%TF.GenerationSoftware,KiCad,Pcbnew,8.0.9-8.0.9-0~ubuntu22.04.1*%
%TF.CreationDate,2025-08-10T04:03:49+02:00*%
%TF.ProjectId,H-C3-ulp29,482d4333-2d75-46c7-9032-392e6b696361,rev?*%
%TF.SameCoordinates,Original*%
%TF.FileFunction,Legend,Bot*%
%TF.FilePolarity,Positive*%
%FSLAX46Y46*%
G04 Gerber Fmt 4.6, Leading zero omitted, Abs format (unit mm)*
G04 Created by KiCad (PCBNEW 8.0.9-8.0.9-0~ubuntu22.04.1) date 2025-08-10 04:03:49*
%MOMM*%
%LPD*%
G01*
G04 APERTURE LIST*
%ADD10C,0.100000*%
%ADD11C,0.200000*%
G04 APERTURE END LIST*
D10*
X147600000Y-54370000D02*
X147890000Y-53890000D01*
D11*
G36*
X162093471Y-76288357D02*
G01*
X162118140Y-76313025D01*
X162147945Y-76372635D01*
X162147945Y-76611135D01*
X162118140Y-76670743D01*
X162093471Y-76695413D01*
X162033862Y-76725219D01*
X161890600Y-76725219D01*
X161871755Y-76715796D01*
X161871755Y-76267974D01*
X161890600Y-76258552D01*
X162033862Y-76258552D01*
X162093471Y-76288357D01*
G37*
G36*
X133125790Y-76280707D02*
G01*
X133147945Y-76325016D01*
X133147945Y-76369904D01*
X132876459Y-76315607D01*
X132893910Y-76280706D01*
X132938219Y-76258552D01*
X133081481Y-76258552D01*
X133125790Y-76280707D01*
G37*
G36*
X135283947Y-75955024D02*
G01*
X135308616Y-75979692D01*
X135338421Y-76039302D01*
X135338421Y-76230183D01*
X135308616Y-76289792D01*
X135283947Y-76314460D01*
X135224338Y-76344266D01*
X135081076Y-76344266D01*
X135021466Y-76314461D01*
X134996798Y-76289792D01*
X134966993Y-76230182D01*
X134966993Y-76039302D01*
X134996798Y-75979692D01*
X135021466Y-75955023D01*
X135081076Y-75925219D01*
X135224338Y-75925219D01*
X135283947Y-75955024D01*
G37*
G36*
X137141090Y-75955024D02*
G01*
X137165759Y-75979692D01*
X137201212Y-76050599D01*
X137243183Y-76218480D01*
X137243183Y-76431956D01*
X137201212Y-76599837D01*
X137165759Y-76670743D01*
X137141090Y-76695413D01*
X137081481Y-76725219D01*
X137033457Y-76725219D01*
X136973847Y-76695414D01*
X136949180Y-76670746D01*
X136913725Y-76599837D01*
X136871755Y-76431956D01*
X136871755Y-76218481D01*
X136913725Y-76050599D01*
X136949179Y-75979692D01*
X136973847Y-75955023D01*
X137033457Y-75925219D01*
X137081481Y-75925219D01*
X137141090Y-75955024D01*
G37*
G36*
X147125790Y-76280707D02*
G01*
X147147945Y-76325016D01*
X147147945Y-76369904D01*
X146876459Y-76315607D01*
X146893910Y-76280706D01*
X146938219Y-76258552D01*
X147081481Y-76258552D01*
X147125790Y-76280707D01*
G37*
G36*
X148005088Y-76267974D02*
G01*
X148005088Y-76715796D01*
X147986243Y-76725219D01*
X147842981Y-76725219D01*
X147783371Y-76695414D01*
X147758704Y-76670746D01*
X147728898Y-76611134D01*
X147728898Y-76372635D01*
X147758703Y-76313025D01*
X147783371Y-76288356D01*
X147842981Y-76258552D01*
X147986243Y-76258552D01*
X148005088Y-76267974D01*
G37*
G36*
X151506743Y-76566421D02*
G01*
X151528898Y-76610730D01*
X151528898Y-76658754D01*
X151506743Y-76703063D01*
X151462434Y-76725219D01*
X151271553Y-76725219D01*
X151252708Y-76715796D01*
X151252708Y-76544266D01*
X151462434Y-76544266D01*
X151506743Y-76566421D01*
G37*
G36*
X156093471Y-76288357D02*
G01*
X156118140Y-76313025D01*
X156147945Y-76372635D01*
X156147945Y-76611135D01*
X156118140Y-76670743D01*
X156093471Y-76695413D01*
X156033862Y-76725219D01*
X155938219Y-76725219D01*
X155878609Y-76695414D01*
X155853942Y-76670746D01*
X155824136Y-76611134D01*
X155824136Y-76372635D01*
X155853941Y-76313025D01*
X155878609Y-76288356D01*
X155938219Y-76258552D01*
X156033862Y-76258552D01*
X156093471Y-76288357D01*
G37*
G36*
X158338421Y-76267974D02*
G01*
X158338421Y-76715796D01*
X158319576Y-76725219D01*
X158176314Y-76725219D01*
X158116704Y-76695414D01*
X158092037Y-76670746D01*
X158062231Y-76611134D01*
X158062231Y-76372635D01*
X158092036Y-76313025D01*
X158116704Y-76288356D01*
X158176314Y-76258552D01*
X158319576Y-76258552D01*
X158338421Y-76267974D01*
G37*
G36*
X162459056Y-77369663D02*
G01*
X130370316Y-77369663D01*
X130370316Y-76819777D01*
X130481427Y-76819777D01*
X130486945Y-76858403D01*
X130506824Y-76891977D01*
X130538039Y-76915388D01*
X130575837Y-76925071D01*
X130614463Y-76919553D01*
X130648037Y-76899674D01*
X130661279Y-76885219D01*
X130862231Y-76617282D01*
X130862231Y-76825219D01*
X130864152Y-76844728D01*
X130879084Y-76880776D01*
X130906674Y-76908366D01*
X130942722Y-76923298D01*
X130981740Y-76923298D01*
X131017788Y-76908366D01*
X131045378Y-76880776D01*
X131060310Y-76844728D01*
X131062231Y-76825219D01*
X131062231Y-76301409D01*
X131338422Y-76301409D01*
X131338422Y-76825219D01*
X131340343Y-76844728D01*
X131355275Y-76880776D01*
X131382865Y-76908366D01*
X131418913Y-76923298D01*
X131457931Y-76923298D01*
X131493979Y-76908366D01*
X131521569Y-76880776D01*
X131536501Y-76844728D01*
X131538422Y-76825219D01*
X131538422Y-76325016D01*
X131560577Y-76280706D01*
X131604886Y-76258552D01*
X131700529Y-76258552D01*
X131760138Y-76288357D01*
X131766993Y-76295211D01*
X131766993Y-76825219D01*
X131768914Y-76844728D01*
X131783846Y-76880776D01*
X131811436Y-76908366D01*
X131847484Y-76923298D01*
X131886502Y-76923298D01*
X131922550Y-76908366D01*
X131950140Y-76880776D01*
X131965072Y-76844728D01*
X131966993Y-76825219D01*
X131966993Y-76158552D01*
X132243183Y-76158552D01*
X132243183Y-76825219D01*
X132245104Y-76844728D01*
X132260036Y-76880776D01*
X132287626Y-76908366D01*
X132323674Y-76923298D01*
X132362692Y-76923298D01*
X132398740Y-76908366D01*
X132426330Y-76880776D01*
X132441262Y-76844728D01*
X132443183Y-76825219D01*
X132443183Y-76301409D01*
X132671755Y-76301409D01*
X132671755Y-76396647D01*
X132673676Y-76416156D01*
X132677425Y-76425208D01*
X132679327Y-76434819D01*
X132684819Y-76443057D01*
X132688608Y-76452204D01*
X132695534Y-76459130D01*
X132700970Y-76467284D01*
X132709198Y-76472794D01*
X132716198Y-76479794D01*
X132725249Y-76483543D01*
X132733390Y-76488995D01*
X132752143Y-76494705D01*
X132752244Y-76494725D01*
X132752246Y-76494726D01*
X132752248Y-76494726D01*
X133147945Y-76573865D01*
X133147945Y-76658754D01*
X133125790Y-76703063D01*
X133081481Y-76725219D01*
X132938219Y-76725219D01*
X132864095Y-76688157D01*
X132845787Y-76681151D01*
X132806867Y-76678385D01*
X132769851Y-76690724D01*
X132740374Y-76716288D01*
X132722925Y-76751187D01*
X132720159Y-76790107D01*
X132732498Y-76827123D01*
X132758062Y-76856600D01*
X132774653Y-76867043D01*
X132869890Y-76914662D01*
X132888199Y-76921668D01*
X132891782Y-76921922D01*
X132895103Y-76923298D01*
X132914612Y-76925219D01*
X133105088Y-76925219D01*
X133124597Y-76923298D01*
X133127917Y-76921922D01*
X133131501Y-76921668D01*
X133149809Y-76914662D01*
X133245047Y-76867043D01*
X133248309Y-76864989D01*
X133249849Y-76864476D01*
X133251765Y-76862813D01*
X133261637Y-76856600D01*
X133269852Y-76847126D01*
X133279326Y-76838911D01*
X133285539Y-76829039D01*
X133287202Y-76827123D01*
X133287714Y-76825584D01*
X133289769Y-76822321D01*
X133337388Y-76727082D01*
X133344394Y-76708774D01*
X133344648Y-76705190D01*
X133346024Y-76701870D01*
X133347945Y-76682361D01*
X133347945Y-76424757D01*
X133578438Y-76424757D01*
X133578438Y-76463775D01*
X133593370Y-76499823D01*
X133620960Y-76527413D01*
X133657008Y-76542345D01*
X133676517Y-76544266D01*
X134438421Y-76544266D01*
X134457930Y-76542345D01*
X134493978Y-76527413D01*
X134521568Y-76499823D01*
X134536500Y-76463775D01*
X134536500Y-76424757D01*
X134521568Y-76388709D01*
X134493978Y-76361119D01*
X134457930Y-76346187D01*
X134438421Y-76344266D01*
X133676517Y-76344266D01*
X133657008Y-76346187D01*
X133620960Y-76361119D01*
X133593370Y-76388709D01*
X133578438Y-76424757D01*
X133347945Y-76424757D01*
X133347945Y-76301409D01*
X133346024Y-76281900D01*
X133344648Y-76278579D01*
X133344394Y-76274996D01*
X133337388Y-76256687D01*
X133289769Y-76161450D01*
X133287714Y-76158186D01*
X133287202Y-76156648D01*
X133285540Y-76154732D01*
X133279326Y-76144859D01*
X133269850Y-76136641D01*
X133261637Y-76127171D01*
X133251765Y-76120957D01*
X133249849Y-76119295D01*
X133248310Y-76118781D01*
X133245047Y-76116728D01*
X133149809Y-76069109D01*
X133131501Y-76062103D01*
X133127917Y-76061848D01*
X133124597Y-76060473D01*
X133105088Y-76058552D01*
X132914612Y-76058552D01*
X132895103Y-76060473D01*
X132891782Y-76061848D01*
X132888199Y-76062103D01*
X132869890Y-76069109D01*
X132774653Y-76116728D01*
X132771389Y-76118782D01*
X132769851Y-76119295D01*
X132767935Y-76120956D01*
X132758062Y-76127171D01*
X132749844Y-76136646D01*
X132740374Y-76144860D01*
X132734160Y-76154731D01*
X132732498Y-76156648D01*
X132731984Y-76158186D01*
X132729931Y-76161450D01*
X132682312Y-76256688D01*
X132675306Y-76274996D01*
X132675051Y-76278579D01*
X132673676Y-76281900D01*
X132671755Y-76301409D01*
X132443183Y-76301409D01*
X132443183Y-76158552D01*
X132441262Y-76139043D01*
X132426330Y-76102995D01*
X132398740Y-76075405D01*
X132362692Y-76060473D01*
X132323674Y-76060473D01*
X132287626Y-76075405D01*
X132260036Y-76102995D01*
X132245104Y-76139043D01*
X132243183Y-76158552D01*
X131966993Y-76158552D01*
X131965072Y-76139043D01*
X131950140Y-76102995D01*
X131922550Y-76075405D01*
X131886502Y-76060473D01*
X131847484Y-76060473D01*
X131811436Y-76075405D01*
X131801440Y-76085400D01*
X131768857Y-76069109D01*
X131750549Y-76062103D01*
X131746965Y-76061848D01*
X131743645Y-76060473D01*
X131724136Y-76058552D01*
X131581279Y-76058552D01*
X131561770Y-76060473D01*
X131558449Y-76061848D01*
X131554866Y-76062103D01*
X131536557Y-76069109D01*
X131441320Y-76116728D01*
X131438056Y-76118782D01*
X131436518Y-76119295D01*
X131434602Y-76120956D01*
X131424729Y-76127171D01*
X131416511Y-76136646D01*
X131407041Y-76144860D01*
X131400827Y-76154731D01*
X131399165Y-76156648D01*
X131398651Y-76158186D01*
X131396598Y-76161450D01*
X131348979Y-76256688D01*
X131341973Y-76274996D01*
X131341718Y-76278579D01*
X131340343Y-76281900D01*
X131338422Y-76301409D01*
X131062231Y-76301409D01*
X131062231Y-75853329D01*
X132197485Y-75853329D01*
X132197485Y-75892347D01*
X132212417Y-75928395D01*
X132224853Y-75943549D01*
X132272472Y-75991167D01*
X132287625Y-76003604D01*
X132298183Y-76007977D01*
X132323674Y-76018536D01*
X132362692Y-76018536D01*
X132369551Y-76015695D01*
X134766993Y-76015695D01*
X134766993Y-76396647D01*
X134767328Y-76400049D01*
X134767111Y-76401508D01*
X134768190Y-76408805D01*
X134768914Y-76416156D01*
X134769478Y-76417519D01*
X134769979Y-76420901D01*
X134817598Y-76611376D01*
X134821704Y-76622871D01*
X134822184Y-76625295D01*
X134823355Y-76627491D01*
X134824193Y-76629837D01*
X134825664Y-76631823D01*
X134831407Y-76642593D01*
X134926645Y-76785450D01*
X134926687Y-76785501D01*
X134926702Y-76785537D01*
X134932925Y-76793119D01*
X134939065Y-76800617D01*
X134939096Y-76800637D01*
X134939139Y-76800690D01*
X134986757Y-76848310D01*
X134994425Y-76854603D01*
X134996157Y-76856600D01*
X134999165Y-76858493D01*
X135001911Y-76860747D01*
X135004351Y-76861757D01*
X135012748Y-76867043D01*
X135107985Y-76914662D01*
X135126294Y-76921668D01*
X135129877Y-76921922D01*
X135133198Y-76923298D01*
X135152707Y-76925219D01*
X135343183Y-76925219D01*
X135362692Y-76923298D01*
X135398740Y-76908366D01*
X135426330Y-76880776D01*
X135441262Y-76844728D01*
X135441262Y-76805710D01*
X135426330Y-76769662D01*
X135398740Y-76742072D01*
X135362692Y-76727140D01*
X135343183Y-76725219D01*
X135176314Y-76725219D01*
X135116704Y-76695414D01*
X135087563Y-76666272D01*
X135007425Y-76546065D01*
X135003134Y-76528902D01*
X135012747Y-76533709D01*
X135031056Y-76540715D01*
X135034639Y-76540969D01*
X135037960Y-76542345D01*
X135057469Y-76544266D01*
X135247945Y-76544266D01*
X135267454Y-76542345D01*
X135270774Y-76540969D01*
X135274358Y-76540715D01*
X135292666Y-76533709D01*
X135387904Y-76486090D01*
X135396300Y-76480804D01*
X135398740Y-76479794D01*
X135401486Y-76477540D01*
X135404494Y-76475647D01*
X135406223Y-76473652D01*
X135413894Y-76467358D01*
X135461512Y-76419739D01*
X135467804Y-76412072D01*
X135469802Y-76410340D01*
X135471695Y-76407331D01*
X135473949Y-76404586D01*
X135474959Y-76402145D01*
X135480245Y-76393749D01*
X135527864Y-76298512D01*
X135534870Y-76280203D01*
X135535124Y-76276619D01*
X135536500Y-76273299D01*
X135538421Y-76253790D01*
X135538421Y-76015695D01*
X135719374Y-76015695D01*
X135719374Y-76110933D01*
X135720346Y-76120806D01*
X135720159Y-76123440D01*
X135720946Y-76126903D01*
X135721295Y-76130442D01*
X135722306Y-76132884D01*
X135724506Y-76142556D01*
X135772125Y-76285412D01*
X135780116Y-76303313D01*
X135782471Y-76306028D01*
X135783846Y-76309347D01*
X135796282Y-76324501D01*
X136196999Y-76725219D01*
X135819374Y-76725219D01*
X135799865Y-76727140D01*
X135763817Y-76742072D01*
X135736227Y-76769662D01*
X135721295Y-76805710D01*
X135721295Y-76844728D01*
X135736227Y-76880776D01*
X135763817Y-76908366D01*
X135799865Y-76923298D01*
X135819374Y-76925219D01*
X136438421Y-76925219D01*
X136457930Y-76923298D01*
X136493978Y-76908366D01*
X136521568Y-76880776D01*
X136536500Y-76844728D01*
X136536500Y-76805710D01*
X136521568Y-76769662D01*
X136521567Y-76769661D01*
X136509132Y-76754508D01*
X135960796Y-76206171D01*
X136671755Y-76206171D01*
X136671755Y-76444266D01*
X136672090Y-76447668D01*
X136671873Y-76449127D01*
X136672952Y-76456424D01*
X136673676Y-76463775D01*
X136674240Y-76465138D01*
X136674741Y-76468520D01*
X136722360Y-76658995D01*
X136722873Y-76660432D01*
X136722925Y-76661155D01*
X136726033Y-76669279D01*
X136728955Y-76677456D01*
X136729385Y-76678036D01*
X136729931Y-76679463D01*
X136777550Y-76774701D01*
X136782833Y-76783093D01*
X136783845Y-76785537D01*
X136786101Y-76788286D01*
X136787993Y-76791291D01*
X136789987Y-76793020D01*
X136796282Y-76800690D01*
X136843900Y-76848310D01*
X136851568Y-76854603D01*
X136853300Y-76856600D01*
X136856308Y-76858493D01*
X136859054Y-76860747D01*
X136861494Y-76861757D01*
X136869891Y-76867043D01*
X136965128Y-76914662D01*
X136983437Y-76921668D01*
X136987020Y-76921922D01*
X136990341Y-76923298D01*
X137009850Y-76925219D01*
X137105088Y-76925219D01*
X137124597Y-76923298D01*
X137127917Y-76921922D01*
X137131501Y-76921668D01*
X137149809Y-76914662D01*
X137245047Y-76867043D01*
X137253442Y-76861758D01*
X137255884Y-76860747D01*
X137258631Y-76858491D01*
X137261637Y-76856600D01*
X137263367Y-76854605D01*
X137271037Y-76848310D01*
X137318656Y-76800690D01*
X137324948Y-76793023D01*
X137326945Y-76791292D01*
X137328838Y-76788284D01*
X137331093Y-76785537D01*
X137332104Y-76783095D01*
X137337388Y-76774701D01*
X137385007Y-76679464D01*
X137385553Y-76678035D01*
X137385983Y-76677456D01*
X137388904Y-76669279D01*
X137392013Y-76661155D01*
X137392064Y-76660434D01*
X137392578Y-76658996D01*
X137440197Y-76468520D01*
X137440697Y-76465138D01*
X137441262Y-76463775D01*
X137441985Y-76456424D01*
X137443065Y-76449127D01*
X137442847Y-76447668D01*
X137443183Y-76444266D01*
X137443183Y-76424757D01*
X137673676Y-76424757D01*
X137673676Y-76463775D01*
X137688608Y-76499823D01*
X137716198Y-76527413D01*
X137752246Y-76542345D01*
X137771755Y-76544266D01*
X138533659Y-76544266D01*
X138553168Y-76542345D01*
X138589216Y-76527413D01*
X138616806Y-76499823D01*
X138631738Y-76463775D01*
X138631738Y-76424757D01*
X138620094Y-76396647D01*
X138862231Y-76396647D01*
X138862231Y-76634742D01*
X138864152Y-76654251D01*
X138865527Y-76657571D01*
X138865782Y-76661155D01*
X138872788Y-76679463D01*
X138920407Y-76774701D01*
X138925690Y-76783093D01*
X138926702Y-76785537D01*
X138928958Y-76788286D01*
X138930850Y-76791291D01*
X138932844Y-76793020D01*
X138939139Y-76800690D01*
X138986757Y-76848310D01*
X138994425Y-76854603D01*
X138996157Y-76856600D01*
X138999165Y-76858493D01*
X139001911Y-76860747D01*
X139004351Y-76861757D01*
X139012748Y-76867043D01*
X139107985Y-76914662D01*
X139126294Y-76921668D01*
X139129877Y-76921922D01*
X139133198Y-76923298D01*
X139152707Y-76925219D01*
X139438421Y-76925219D01*
X139457930Y-76923298D01*
X139461250Y-76921922D01*
X139464834Y-76921668D01*
X139483142Y-76914662D01*
X139578380Y-76867043D01*
X139586775Y-76861758D01*
X139589217Y-76860747D01*
X139591964Y-76858491D01*
X139594970Y-76856600D01*
X139596700Y-76854605D01*
X139604370Y-76848310D01*
X139651989Y-76800690D01*
X139664426Y-76785537D01*
X139679357Y-76749488D01*
X139679356Y-76710470D01*
X139664425Y-76674422D01*
X139636834Y-76646832D01*
X139600786Y-76631901D01*
X139561768Y-76631902D01*
X139525720Y-76646833D01*
X139510566Y-76659270D01*
X139474423Y-76695413D01*
X139414814Y-76725219D01*
X139176314Y-76725219D01*
X139116704Y-76695414D01*
X139092037Y-76670746D01*
X139062231Y-76611134D01*
X139062231Y-76420254D01*
X139092036Y-76360644D01*
X139116704Y-76335975D01*
X139176314Y-76306171D01*
X139295564Y-76306171D01*
X139305881Y-76305155D01*
X139308506Y-76305330D01*
X139310313Y-76304718D01*
X139315073Y-76304250D01*
X139330076Y-76298035D01*
X139345468Y-76292830D01*
X139348007Y-76290607D01*
X139351121Y-76289318D01*
X139362598Y-76277840D01*
X139374832Y-76267136D01*
X139376327Y-76264111D01*
X139378711Y-76261728D01*
X139384925Y-76246726D01*
X139392128Y-76232161D01*
X139392352Y-76228795D01*
X139393643Y-76225680D01*
X139393643Y-76209431D01*
X139394723Y-76193229D01*
X139393643Y-76190035D01*
X139393643Y-76186662D01*
X139387427Y-76171656D01*
X139382223Y-76156268D01*
X139379441Y-76152377D01*
X139378711Y-76150614D01*
X139376851Y-76148754D01*
X139370822Y-76140321D01*
X139182608Y-75925219D01*
X139581278Y-75925219D01*
X139600787Y-75923298D01*
X139636835Y-75908366D01*
X139644253Y-75900948D01*
X139816533Y-75900948D01*
X139816533Y-75939966D01*
X139831465Y-75976014D01*
X139859055Y-76003604D01*
X139895103Y-76018536D01*
X139934121Y-76018536D01*
X139970169Y-76003604D01*
X139985323Y-75991168D01*
X140016249Y-75960240D01*
X140121314Y-75925219D01*
X140184099Y-75925219D01*
X140289163Y-75960240D01*
X140356236Y-76027313D01*
X140391688Y-76098218D01*
X140433659Y-76266099D01*
X140433659Y-76384337D01*
X140391688Y-76552218D01*
X140356235Y-76623124D01*
X140289164Y-76690197D01*
X140184099Y-76725219D01*
X140121314Y-76725219D01*
X140016249Y-76690197D01*
X139985323Y-76659270D01*
X139970170Y-76646833D01*
X139934122Y-76631902D01*
X139895104Y-76631901D01*
X139859055Y-76646832D01*
X139831465Y-76674422D01*
X139816534Y-76710470D01*
X139816533Y-76749488D01*
X139831464Y-76785537D01*
X139843901Y-76800690D01*
X139891519Y-76848310D01*
X139906673Y-76860747D01*
X139909992Y-76862122D01*
X139912708Y-76864477D01*
X139930608Y-76872468D01*
X140073465Y-76920087D01*
X140083137Y-76922286D01*
X140085579Y-76923298D01*
X140089116Y-76923646D01*
X140092580Y-76924434D01*
X140095214Y-76924246D01*
X140105088Y-76925219D01*
X140200326Y-76925219D01*
X140210199Y-76924246D01*
X140212833Y-76924434D01*
X140216296Y-76923646D01*
X140219835Y-76923298D01*
X140222277Y-76922286D01*
X140231949Y-76920087D01*
X140374805Y-76872468D01*
X140392706Y-76864477D01*
X140395421Y-76862122D01*
X140398741Y-76860747D01*
X140413894Y-76848310D01*
X140509132Y-76753071D01*
X140515424Y-76745404D01*
X140517421Y-76743673D01*
X140519314Y-76740665D01*
X140521569Y-76737918D01*
X140522580Y-76735476D01*
X140527864Y-76727082D01*
X140575483Y-76631845D01*
X140576029Y-76630416D01*
X140576459Y-76629837D01*
X140579380Y-76621660D01*
X140582489Y-76613536D01*
X140582540Y-76612815D01*
X140583054Y-76611377D01*
X140629709Y-76424757D01*
X140864152Y-76424757D01*
X140864152Y-76463775D01*
X140879084Y-76499823D01*
X140906674Y-76527413D01*
X140942722Y-76542345D01*
X140962231Y-76544266D01*
X141724135Y-76544266D01*
X141743644Y-76542345D01*
X141779692Y-76527413D01*
X141807282Y-76499823D01*
X141822214Y-76463775D01*
X141822214Y-76424757D01*
X141807282Y-76388709D01*
X141779692Y-76361119D01*
X141743644Y-76346187D01*
X141724135Y-76344266D01*
X140962231Y-76344266D01*
X140942722Y-76346187D01*
X140906674Y-76361119D01*
X140879084Y-76388709D01*
X140864152Y-76424757D01*
X140629709Y-76424757D01*
X140630673Y-76420901D01*
X140631173Y-76417519D01*
X140631738Y-76416156D01*
X140632461Y-76408805D01*
X140633541Y-76401508D01*
X140633323Y-76400049D01*
X140633659Y-76396647D01*
X140633659Y-76253790D01*
X140633323Y-76250387D01*
X140633541Y-76248929D01*
X140632461Y-76241631D01*
X140631738Y-76234281D01*
X140631173Y-76232917D01*
X140630673Y-76229536D01*
X140583054Y-76039060D01*
X140582540Y-76037621D01*
X140582489Y-76036901D01*
X140579380Y-76028776D01*
X140576459Y-76020600D01*
X140576029Y-76020020D01*
X140575483Y-76018592D01*
X140527864Y-75923355D01*
X140522577Y-75914956D01*
X140521568Y-75912519D01*
X140519316Y-75909775D01*
X140517421Y-75906764D01*
X140515423Y-75905031D01*
X140509132Y-75897365D01*
X140436986Y-75825219D01*
X142100326Y-75825219D01*
X142100326Y-76825219D01*
X142102247Y-76844728D01*
X142117179Y-76880776D01*
X142144769Y-76908366D01*
X142180817Y-76923298D01*
X142219835Y-76923298D01*
X142255883Y-76908366D01*
X142283473Y-76880776D01*
X142298405Y-76844728D01*
X142300326Y-76825219D01*
X142300326Y-76401409D01*
X142671754Y-76401409D01*
X142671754Y-76825219D01*
X142673675Y-76844728D01*
X142688607Y-76880776D01*
X142716197Y-76908366D01*
X142752245Y-76923298D01*
X142791263Y-76923298D01*
X142827311Y-76908366D01*
X142854901Y-76880776D01*
X142869833Y-76844728D01*
X142871754Y-76825219D01*
X142871754Y-75825219D01*
X142869833Y-75805710D01*
X142858146Y-75777495D01*
X143005088Y-75777495D01*
X143012660Y-75815772D01*
X143021883Y-75833070D01*
X143879025Y-77118784D01*
X143891445Y-77133951D01*
X143923865Y-77155662D01*
X143962126Y-77163314D01*
X144000402Y-77155743D01*
X144032867Y-77134099D01*
X144054578Y-77101679D01*
X144062230Y-77063419D01*
X144054659Y-77025142D01*
X144045435Y-77007844D01*
X143574479Y-76301409D01*
X144195564Y-76301409D01*
X144195564Y-76825219D01*
X144197485Y-76844728D01*
X144212417Y-76880776D01*
X144240007Y-76908366D01*
X144276055Y-76923298D01*
X144315073Y-76923298D01*
X144351121Y-76908366D01*
X144378711Y-76880776D01*
X144393643Y-76844728D01*
X144395564Y-76825219D01*
X144395564Y-76325016D01*
X144417719Y-76280706D01*
X144462028Y-76258552D01*
X144557671Y-76258552D01*
X144617280Y-76288357D01*
X144624135Y-76295211D01*
X144624135Y-76825219D01*
X144626056Y-76844728D01*
X144640988Y-76880776D01*
X144668578Y-76908366D01*
X144704626Y-76923298D01*
X144743644Y-76923298D01*
X144779692Y-76908366D01*
X144807282Y-76880776D01*
X144822214Y-76844728D01*
X144824135Y-76825219D01*
X144824135Y-76158552D01*
X145100325Y-76158552D01*
X145100325Y-76825219D01*
X145102246Y-76844728D01*
X145117178Y-76880776D01*
X145144768Y-76908366D01*
X145180816Y-76923298D01*
X145219834Y-76923298D01*
X145255882Y-76908366D01*
X145283472Y-76880776D01*
X145298404Y-76844728D01*
X145300325Y-76825219D01*
X145300325Y-76812712D01*
X145482063Y-76812712D01*
X145484829Y-76851632D01*
X145502278Y-76886531D01*
X145531755Y-76912095D01*
X145568771Y-76924434D01*
X145607691Y-76921668D01*
X145625999Y-76914662D01*
X145721237Y-76867043D01*
X145724499Y-76864989D01*
X145726039Y-76864476D01*
X145727955Y-76862813D01*
X145737827Y-76856600D01*
X145746042Y-76847126D01*
X145755516Y-76838911D01*
X145761729Y-76829039D01*
X145763392Y-76827123D01*
X145763904Y-76825584D01*
X145765959Y-76822321D01*
X145813578Y-76727082D01*
X145820584Y-76708774D01*
X145820838Y-76705190D01*
X145822214Y-76701870D01*
X145824135Y-76682361D01*
X145824135Y-76139043D01*
X145959390Y-76139043D01*
X145959390Y-76178061D01*
X145974322Y-76214109D01*
X146001912Y-76241699D01*
X146037960Y-76256631D01*
X146057469Y-76258552D01*
X146129100Y-76258552D01*
X146188709Y-76288357D01*
X146213378Y-76313025D01*
X146243183Y-76372635D01*
X146243183Y-76825219D01*
X146245104Y-76844728D01*
X146260036Y-76880776D01*
X146287626Y-76908366D01*
X146323674Y-76923298D01*
X146362692Y-76923298D01*
X146398740Y-76908366D01*
X146426330Y-76880776D01*
X146441262Y-76844728D01*
X146443183Y-76825219D01*
X146443183Y-76301409D01*
X146671755Y-76301409D01*
X146671755Y-76396647D01*
X146673676Y-76416156D01*
X146677425Y-76425208D01*
X146679327Y-76434819D01*
X146684819Y-76443057D01*
X146688608Y-76452204D01*
X146695534Y-76459130D01*
X146700970Y-76467284D01*
X146709198Y-76472794D01*
X146716198Y-76479794D01*
X146725249Y-76483543D01*
X146733390Y-76488995D01*
X146752143Y-76494705D01*
X146752244Y-76494725D01*
X146752246Y-76494726D01*
X146752248Y-76494726D01*
X147147945Y-76573865D01*
X147147945Y-76658754D01*
X147125790Y-76703063D01*
X147081481Y-76725219D01*
X146938219Y-76725219D01*
X146864095Y-76688157D01*
X146845787Y-76681151D01*
X146806867Y-76678385D01*
X146769851Y-76690724D01*
X146740374Y-76716288D01*
X146722925Y-76751187D01*
X146720159Y-76790107D01*
X146732498Y-76827123D01*
X146758062Y-76856600D01*
X146774653Y-76867043D01*
X146869890Y-76914662D01*
X146888199Y-76921668D01*
X146891782Y-76921922D01*
X146895103Y-76923298D01*
X146914612Y-76925219D01*
X147105088Y-76925219D01*
X147124597Y-76923298D01*
X147127917Y-76921922D01*
X147131501Y-76921668D01*
X147149809Y-76914662D01*
X147245047Y-76867043D01*
X147248309Y-76864989D01*
X147249849Y-76864476D01*
X147251765Y-76862813D01*
X147261637Y-76856600D01*
X147269852Y-76847126D01*
X147279326Y-76838911D01*
X147285539Y-76829039D01*
X147287202Y-76827123D01*
X147287714Y-76825584D01*
X147289769Y-76822321D01*
X147337388Y-76727082D01*
X147344394Y-76708774D01*
X147344648Y-76705190D01*
X147346024Y-76701870D01*
X147347945Y-76682361D01*
X147347945Y-76349028D01*
X147528898Y-76349028D01*
X147528898Y-76634742D01*
X147530819Y-76654251D01*
X147532194Y-76657571D01*
X147532449Y-76661155D01*
X147539455Y-76679463D01*
X147587074Y-76774701D01*
X147592357Y-76783093D01*
X147593369Y-76785537D01*
X147595625Y-76788286D01*
X147597517Y-76791291D01*
X147599511Y-76793020D01*
X147605806Y-76800690D01*
X147653424Y-76848310D01*
X147661092Y-76854603D01*
X147662824Y-76856600D01*
X147665832Y-76858493D01*
X147668578Y-76860747D01*
X147671018Y-76861757D01*
X147679415Y-76867043D01*
X147774652Y-76914662D01*
X147792961Y-76921668D01*
X147796544Y-76921922D01*
X147799865Y-76923298D01*
X147819374Y-76925219D01*
X148009850Y-76925219D01*
X148029359Y-76923298D01*
X148032679Y-76921922D01*
X148036263Y-76921668D01*
X148054571Y-76914662D01*
X148059174Y-76912360D01*
X148085579Y-76923298D01*
X148124597Y-76923298D01*
X148160645Y-76908366D01*
X148188235Y-76880776D01*
X148203167Y-76844728D01*
X148205088Y-76825219D01*
X148205088Y-76301409D01*
X148481279Y-76301409D01*
X148481279Y-76825219D01*
X148483200Y-76844728D01*
X148498132Y-76880776D01*
X148525722Y-76908366D01*
X148561770Y-76923298D01*
X148600788Y-76923298D01*
X148636836Y-76908366D01*
X148664426Y-76880776D01*
X148679358Y-76844728D01*
X148681279Y-76825219D01*
X148681279Y-76325016D01*
X148703434Y-76280706D01*
X148747743Y-76258552D01*
X148843386Y-76258552D01*
X148902995Y-76288357D01*
X148909850Y-76295211D01*
X148909850Y-76825219D01*
X148911771Y-76844728D01*
X148926703Y-76880776D01*
X148954293Y-76908366D01*
X148990341Y-76923298D01*
X149029359Y-76923298D01*
X149065407Y-76908366D01*
X149092997Y-76880776D01*
X149107929Y-76844728D01*
X149109850Y-76825219D01*
X149109850Y-76158552D01*
X149386040Y-76158552D01*
X149386040Y-76825219D01*
X149387961Y-76844728D01*
X149402893Y-76880776D01*
X149430483Y-76908366D01*
X149466531Y-76923298D01*
X149505549Y-76923298D01*
X149541597Y-76908366D01*
X149569187Y-76880776D01*
X149584119Y-76844728D01*
X149586040Y-76825219D01*
X149586040Y-76158552D01*
X149584119Y-76139043D01*
X149721295Y-76139043D01*
X149721295Y-76178061D01*
X149736227Y-76214109D01*
X149763817Y-76241699D01*
X149799865Y-76256631D01*
X149819374Y-76258552D01*
X149957469Y-76258552D01*
X149957469Y-76658754D01*
X149935314Y-76703063D01*
X149891005Y-76725219D01*
X149819374Y-76725219D01*
X149799865Y-76727140D01*
X149763817Y-76742072D01*
X149736227Y-76769662D01*
X149721295Y-76805710D01*
X149721295Y-76844728D01*
X149736227Y-76880776D01*
X149763817Y-76908366D01*
X149799865Y-76923298D01*
X149819374Y-76925219D01*
X149914612Y-76925219D01*
X149934121Y-76923298D01*
X149937441Y-76921922D01*
X149941025Y-76921668D01*
X149959333Y-76914662D01*
X150054571Y-76867043D01*
X150057833Y-76864989D01*
X150059373Y-76864476D01*
X150061289Y-76862813D01*
X150071161Y-76856600D01*
X150079376Y-76847126D01*
X150088850Y-76838911D01*
X150095063Y-76829039D01*
X150096726Y-76827123D01*
X150097238Y-76825584D01*
X150099293Y-76822321D01*
X150146912Y-76727082D01*
X150153918Y-76708774D01*
X150154172Y-76705190D01*
X150155548Y-76701870D01*
X150157469Y-76682361D01*
X150157469Y-76258552D01*
X150200326Y-76258552D01*
X150219835Y-76256631D01*
X150255883Y-76241699D01*
X150283473Y-76214109D01*
X150295564Y-76184918D01*
X150307656Y-76214109D01*
X150335246Y-76241699D01*
X150371294Y-76256631D01*
X150390803Y-76258552D01*
X150462434Y-76258552D01*
X150522043Y-76288357D01*
X150546712Y-76313025D01*
X150576517Y-76372635D01*
X150576517Y-76825219D01*
X150578438Y-76844728D01*
X150593370Y-76880776D01*
X150620960Y-76908366D01*
X150657008Y-76923298D01*
X150696026Y-76923298D01*
X150732074Y-76908366D01*
X150759664Y-76880776D01*
X150774596Y-76844728D01*
X150776517Y-76825219D01*
X150776517Y-76301409D01*
X151052708Y-76301409D01*
X151052708Y-76825219D01*
X151054629Y-76844728D01*
X151069561Y-76880776D01*
X151097151Y-76908366D01*
X151133199Y-76923298D01*
X151172217Y-76923298D01*
X151198621Y-76912360D01*
X151203224Y-76914662D01*
X151221533Y-76921668D01*
X151225116Y-76921922D01*
X151228437Y-76923298D01*
X151247946Y-76925219D01*
X151486041Y-76925219D01*
X151505550Y-76923298D01*
X151508870Y-76921922D01*
X151512454Y-76921668D01*
X151530762Y-76914662D01*
X151626000Y-76867043D01*
X151629262Y-76864989D01*
X151630802Y-76864476D01*
X151632718Y-76862813D01*
X151642590Y-76856600D01*
X151650805Y-76847126D01*
X151660279Y-76838911D01*
X151666492Y-76829039D01*
X151668155Y-76827123D01*
X151668667Y-76825584D01*
X151670722Y-76822321D01*
X151718341Y-76727082D01*
X151725347Y-76708774D01*
X151725601Y-76705190D01*
X151726977Y-76701870D01*
X151728898Y-76682361D01*
X151728898Y-76587123D01*
X151726977Y-76567614D01*
X151725601Y-76564293D01*
X151725347Y-76560710D01*
X151718341Y-76542401D01*
X151670722Y-76447164D01*
X151668667Y-76443900D01*
X151668155Y-76442362D01*
X151666493Y-76440446D01*
X151660279Y-76430573D01*
X151650803Y-76422355D01*
X151642590Y-76412885D01*
X151632718Y-76406671D01*
X151630802Y-76405009D01*
X151629263Y-76404495D01*
X151626000Y-76402442D01*
X151530762Y-76354823D01*
X151512454Y-76347817D01*
X151508870Y-76347562D01*
X151505550Y-76346187D01*
X151486041Y-76344266D01*
X151271553Y-76344266D01*
X151252708Y-76334843D01*
X151252708Y-76325016D01*
X151274863Y-76280706D01*
X151319172Y-76258552D01*
X151462434Y-76258552D01*
X151536557Y-76295614D01*
X151554866Y-76302620D01*
X151593786Y-76305386D01*
X151605717Y-76301409D01*
X151957469Y-76301409D01*
X151957469Y-76825219D01*
X151959390Y-76844728D01*
X151974322Y-76880776D01*
X152001912Y-76908366D01*
X152037960Y-76923298D01*
X152076978Y-76923298D01*
X152113026Y-76908366D01*
X152140616Y-76880776D01*
X152155548Y-76844728D01*
X152157469Y-76825219D01*
X152157469Y-76325016D01*
X152179624Y-76280706D01*
X152223934Y-76258552D01*
X152319577Y-76258552D01*
X152363886Y-76280707D01*
X152386041Y-76325016D01*
X152386041Y-76825219D01*
X152387962Y-76844728D01*
X152402894Y-76880776D01*
X152430484Y-76908366D01*
X152466532Y-76923298D01*
X152505550Y-76923298D01*
X152541598Y-76908366D01*
X152569188Y-76880776D01*
X152584120Y-76844728D01*
X152586041Y-76825219D01*
X152586041Y-76325016D01*
X152608196Y-76280706D01*
X152652505Y-76258552D01*
X152748148Y-76258552D01*
X152807757Y-76288357D01*
X152814612Y-76295211D01*
X152814612Y-76825219D01*
X152816533Y-76844728D01*
X152831465Y-76880776D01*
X152859055Y-76908366D01*
X152895103Y-76923298D01*
X152934121Y-76923298D01*
X152970169Y-76908366D01*
X152997759Y-76880776D01*
X153012691Y-76844728D01*
X153014612Y-76825219D01*
X153014612Y-76158552D01*
X153012691Y-76139043D01*
X152997759Y-76102995D01*
X152970169Y-76075405D01*
X152934121Y-76060473D01*
X152895103Y-76060473D01*
X152859055Y-76075405D01*
X152849059Y-76085400D01*
X152816476Y-76069109D01*
X152798168Y-76062103D01*
X152794584Y-76061848D01*
X152791264Y-76060473D01*
X152771755Y-76058552D01*
X152628898Y-76058552D01*
X152609389Y-76060473D01*
X152606068Y-76061848D01*
X152602485Y-76062103D01*
X152584176Y-76069109D01*
X152488939Y-76116728D01*
X152486040Y-76118552D01*
X152483143Y-76116728D01*
X152387905Y-76069109D01*
X152369597Y-76062103D01*
X152366013Y-76061848D01*
X152362693Y-76060473D01*
X152343184Y-76058552D01*
X152200327Y-76058552D01*
X152180818Y-76060473D01*
X152177497Y-76061848D01*
X152173914Y-76062103D01*
X152155606Y-76069109D01*
X152060367Y-76116728D01*
X152057103Y-76118782D01*
X152055565Y-76119295D01*
X152053648Y-76120957D01*
X152043777Y-76127171D01*
X152035561Y-76136644D01*
X152026088Y-76144860D01*
X152019874Y-76154731D01*
X152018212Y-76156648D01*
X152017698Y-76158187D01*
X152015645Y-76161450D01*
X151968026Y-76256688D01*
X151961020Y-76274996D01*
X151960765Y-76278579D01*
X151959390Y-76281900D01*
X151957469Y-76301409D01*
X151605717Y-76301409D01*
X151630802Y-76293047D01*
X151660279Y-76267482D01*
X151677728Y-76232584D01*
X151680493Y-76193664D01*
X151668155Y-76156648D01*
X151642590Y-76127171D01*
X151626000Y-76116728D01*
X151530762Y-76069109D01*
X151512454Y-76062103D01*
X151508870Y-76061848D01*
X151505550Y-76060473D01*
X151486041Y-76058552D01*
X151295565Y-76058552D01*
X151276056Y-76060473D01*
X151272735Y-76061848D01*
X151269152Y-76062103D01*
X151250843Y-76069109D01*
X151155606Y-76116728D01*
X151152342Y-76118782D01*
X151150804Y-76119295D01*
X151148888Y-76120956D01*
X151139015Y-76127171D01*
X151130797Y-76136646D01*
X151121327Y-76144860D01*
X151115113Y-76154731D01*
X151113451Y-76156648D01*
X151112937Y-76158186D01*
X151110884Y-76161450D01*
X151063265Y-76256688D01*
X151056259Y-76274996D01*
X151056004Y-76278579D01*
X151054629Y-76281900D01*
X151052708Y-76301409D01*
X150776517Y-76301409D01*
X150776517Y-76158552D01*
X150774596Y-76139043D01*
X150759664Y-76102995D01*
X150732074Y-76075405D01*
X150696026Y-76060473D01*
X150657008Y-76060473D01*
X150620960Y-76075405D01*
X150595091Y-76101273D01*
X150530762Y-76069109D01*
X150512454Y-76062103D01*
X150508870Y-76061848D01*
X150505550Y-76060473D01*
X150486041Y-76058552D01*
X150390803Y-76058552D01*
X150371294Y-76060473D01*
X150335246Y-76075405D01*
X150307656Y-76102995D01*
X150295564Y-76132185D01*
X150283473Y-76102995D01*
X150255883Y-76075405D01*
X150219835Y-76060473D01*
X150200326Y-76058552D01*
X150157469Y-76058552D01*
X150157469Y-75825219D01*
X150155548Y-75805710D01*
X150143861Y-75777495D01*
X153147946Y-75777495D01*
X153155518Y-75815772D01*
X153164741Y-75833070D01*
X154021883Y-77118784D01*
X154034303Y-77133951D01*
X154066723Y-77155662D01*
X154104984Y-77163314D01*
X154143260Y-77155743D01*
X154175725Y-77134099D01*
X154197436Y-77101679D01*
X154205088Y-77063419D01*
X154197517Y-77025142D01*
X154188293Y-77007844D01*
X153717337Y-76301409D01*
X154338421Y-76301409D01*
X154338421Y-76825219D01*
X154340342Y-76844728D01*
X154355274Y-76880776D01*
X154382864Y-76908366D01*
X154418912Y-76923298D01*
X154457930Y-76923298D01*
X154493978Y-76908366D01*
X154521568Y-76880776D01*
X154536500Y-76844728D01*
X154538421Y-76825219D01*
X154538421Y-76325016D01*
X154560576Y-76280706D01*
X154604886Y-76258552D01*
X154700529Y-76258552D01*
X154744838Y-76280707D01*
X154766993Y-76325016D01*
X154766993Y-76825219D01*
X154768914Y-76844728D01*
X154783846Y-76880776D01*
X154811436Y-76908366D01*
X154847484Y-76923298D01*
X154886502Y-76923298D01*
X154922550Y-76908366D01*
X154950140Y-76880776D01*
X154965072Y-76844728D01*
X154966993Y-76825219D01*
X154966993Y-76325016D01*
X154989148Y-76280706D01*
X155033457Y-76258552D01*
X155129100Y-76258552D01*
X155188709Y-76288357D01*
X155195564Y-76295211D01*
X155195564Y-76825219D01*
X155197485Y-76844728D01*
X155212417Y-76880776D01*
X155240007Y-76908366D01*
X155276055Y-76923298D01*
X155315073Y-76923298D01*
X155351121Y-76908366D01*
X155378711Y-76880776D01*
X155393643Y-76844728D01*
X155395564Y-76825219D01*
X155395564Y-76349028D01*
X155624136Y-76349028D01*
X155624136Y-76634742D01*
X155626057Y-76654251D01*
X155627432Y-76657571D01*
X155627687Y-76661155D01*
X155634693Y-76679463D01*
X155682312Y-76774701D01*
X155687595Y-76783093D01*
X155688607Y-76785537D01*
X155690863Y-76788286D01*
X155692755Y-76791291D01*
X155694749Y-76793020D01*
X155701044Y-76800690D01*
X155748662Y-76848310D01*
X155756330Y-76854603D01*
X155758062Y-76856600D01*
X155761070Y-76858493D01*
X155763816Y-76860747D01*
X155766256Y-76861757D01*
X155774653Y-76867043D01*
X155869890Y-76914662D01*
X155888199Y-76921668D01*
X155891782Y-76921922D01*
X155895103Y-76923298D01*
X155914612Y-76925219D01*
X156057469Y-76925219D01*
X156076978Y-76923298D01*
X156080298Y-76921922D01*
X156083882Y-76921668D01*
X156102190Y-76914662D01*
X156197428Y-76867043D01*
X156205823Y-76861758D01*
X156208265Y-76860747D01*
X156211012Y-76858491D01*
X156214018Y-76856600D01*
X156215748Y-76854605D01*
X156223418Y-76848310D01*
X156271037Y-76800690D01*
X156277329Y-76793023D01*
X156279326Y-76791292D01*
X156281219Y-76788284D01*
X156283474Y-76785537D01*
X156284485Y-76783095D01*
X156289769Y-76774701D01*
X156337388Y-76679464D01*
X156344394Y-76661155D01*
X156344648Y-76657571D01*
X156346024Y-76654251D01*
X156347945Y-76634742D01*
X156347945Y-76349028D01*
X156346024Y-76329519D01*
X156344648Y-76326198D01*
X156344394Y-76322615D01*
X156337388Y-76304306D01*
X156289769Y-76209069D01*
X156284483Y-76200672D01*
X156283473Y-76198232D01*
X156281219Y-76195486D01*
X156280072Y-76193664D01*
X156529683Y-76193664D01*
X156532449Y-76232584D01*
X156549898Y-76267483D01*
X156579375Y-76293047D01*
X156616391Y-76305386D01*
X156655311Y-76302620D01*
X156673619Y-76295614D01*
X156747743Y-76258552D01*
X156891005Y-76258552D01*
X156950614Y-76288357D01*
X156975283Y-76313025D01*
X157005088Y-76372635D01*
X157005088Y-76611135D01*
X156975283Y-76670743D01*
X156950614Y-76695413D01*
X156891005Y-76725219D01*
X156747743Y-76725219D01*
X156673619Y-76688157D01*
X156655311Y-76681151D01*
X156616391Y-76678385D01*
X156579375Y-76690724D01*
X156549898Y-76716288D01*
X156532449Y-76751187D01*
X156529683Y-76790107D01*
X156542022Y-76827123D01*
X156567586Y-76856600D01*
X156584177Y-76867043D01*
X156679414Y-76914662D01*
X156697723Y-76921668D01*
X156701306Y-76921922D01*
X156704627Y-76923298D01*
X156724136Y-76925219D01*
X156914612Y-76925219D01*
X156934121Y-76923298D01*
X156937441Y-76921922D01*
X156941025Y-76921668D01*
X156959333Y-76914662D01*
X157054571Y-76867043D01*
X157062966Y-76861758D01*
X157065408Y-76860747D01*
X157068155Y-76858491D01*
X157071161Y-76856600D01*
X157072891Y-76854605D01*
X157080561Y-76848310D01*
X157128180Y-76800690D01*
X157134472Y-76793023D01*
X157136469Y-76791292D01*
X157138362Y-76788284D01*
X157140617Y-76785537D01*
X157141628Y-76783095D01*
X157146912Y-76774701D01*
X157155217Y-76758091D01*
X157387961Y-76758091D01*
X157387961Y-76797109D01*
X157394424Y-76812712D01*
X157402893Y-76833158D01*
X157402897Y-76833162D01*
X157415329Y-76848311D01*
X157462948Y-76895929D01*
X157478101Y-76908366D01*
X157487104Y-76912095D01*
X157514150Y-76923298D01*
X157553168Y-76923298D01*
X157589216Y-76908366D01*
X157604370Y-76895930D01*
X157651988Y-76848311D01*
X157664425Y-76833158D01*
X157671177Y-76816856D01*
X157679356Y-76797110D01*
X157679357Y-76758092D01*
X157664426Y-76722043D01*
X157651989Y-76706890D01*
X157604370Y-76659270D01*
X157589217Y-76646833D01*
X157578981Y-76642593D01*
X157564623Y-76636646D01*
X157553168Y-76631901D01*
X157514150Y-76631901D01*
X157503592Y-76636274D01*
X157478102Y-76646832D01*
X157478101Y-76646833D01*
X157462947Y-76659270D01*
X157415329Y-76706890D01*
X157402892Y-76722043D01*
X157393933Y-76743673D01*
X157387961Y-76758091D01*
X157155217Y-76758091D01*
X157194531Y-76679464D01*
X157201537Y-76661155D01*
X157201791Y-76657571D01*
X157203167Y-76654251D01*
X157205088Y-76634742D01*
X157205088Y-76349028D01*
X157862231Y-76349028D01*
X157862231Y-76634742D01*
X157864152Y-76654251D01*
X157865527Y-76657571D01*
X157865782Y-76661155D01*
X157872788Y-76679463D01*
X157920407Y-76774701D01*
X157925690Y-76783093D01*
X157926702Y-76785537D01*
X157928958Y-76788286D01*
X157930850Y-76791291D01*
X157932844Y-76793020D01*
X157939139Y-76800690D01*
X157986757Y-76848310D01*
X157994425Y-76854603D01*
X157996157Y-76856600D01*
X157999165Y-76858493D01*
X158001911Y-76860747D01*
X158004351Y-76861757D01*
X158012748Y-76867043D01*
X158107985Y-76914662D01*
X158126294Y-76921668D01*
X158129877Y-76921922D01*
X158133198Y-76923298D01*
X158152707Y-76925219D01*
X158343183Y-76925219D01*
X158362692Y-76923298D01*
X158366012Y-76921922D01*
X158369596Y-76921668D01*
X158387904Y-76914662D01*
X158392507Y-76912360D01*
X158418912Y-76923298D01*
X158457930Y-76923298D01*
X158493978Y-76908366D01*
X158521568Y-76880776D01*
X158536500Y-76844728D01*
X158538421Y-76825219D01*
X158538421Y-76158552D01*
X158814612Y-76158552D01*
X158814612Y-76825219D01*
X158816533Y-76844728D01*
X158831465Y-76880776D01*
X158859055Y-76908366D01*
X158895103Y-76923298D01*
X158934121Y-76923298D01*
X158970169Y-76908366D01*
X158980164Y-76898370D01*
X159012747Y-76914662D01*
X159031056Y-76921668D01*
X159034639Y-76921922D01*
X159037960Y-76923298D01*
X159057469Y-76925219D01*
X159200326Y-76925219D01*
X159219835Y-76923298D01*
X159223155Y-76921922D01*
X159226739Y-76921668D01*
X159245047Y-76914662D01*
X159340285Y-76867043D01*
X159343547Y-76864989D01*
X159345087Y-76864476D01*
X159347003Y-76862813D01*
X159356875Y-76856600D01*
X159365090Y-76847126D01*
X159374564Y-76838911D01*
X159380777Y-76829039D01*
X159382440Y-76827123D01*
X159382952Y-76825584D01*
X159385007Y-76822321D01*
X159432626Y-76727082D01*
X159439632Y-76708774D01*
X159439886Y-76705190D01*
X159441262Y-76701870D01*
X159443183Y-76682361D01*
X159443183Y-76301409D01*
X159719374Y-76301409D01*
X159719374Y-76825219D01*
X159721295Y-76844728D01*
X159736227Y-76880776D01*
X159763817Y-76908366D01*
X159799865Y-76923298D01*
X159838883Y-76923298D01*
X159874931Y-76908366D01*
X159902521Y-76880776D01*
X159917453Y-76844728D01*
X159919374Y-76825219D01*
X159919374Y-76325016D01*
X159941529Y-76280706D01*
X159985838Y-76258552D01*
X160081481Y-76258552D01*
X160141090Y-76288357D01*
X160147945Y-76295211D01*
X160147945Y-76825219D01*
X160149866Y-76844728D01*
X160164798Y-76880776D01*
X160192388Y-76908366D01*
X160228436Y-76923298D01*
X160267454Y-76923298D01*
X160303502Y-76908366D01*
X160331092Y-76880776D01*
X160346024Y-76844728D01*
X160347945Y-76825219D01*
X160347945Y-76139043D01*
X160483200Y-76139043D01*
X160483200Y-76178061D01*
X160498132Y-76214109D01*
X160525722Y-76241699D01*
X160561770Y-76256631D01*
X160581279Y-76258552D01*
X160719374Y-76258552D01*
X160719374Y-76658754D01*
X160697219Y-76703063D01*
X160652910Y-76725219D01*
X160581279Y-76725219D01*
X160561770Y-76727140D01*
X160525722Y-76742072D01*
X160498132Y-76769662D01*
X160483200Y-76805710D01*
X160483200Y-76844728D01*
X160498132Y-76880776D01*
X160525722Y-76908366D01*
X160561770Y-76923298D01*
X160581279Y-76925219D01*
X160676517Y-76925219D01*
X160696026Y-76923298D01*
X160699346Y-76921922D01*
X160702930Y-76921668D01*
X160721238Y-76914662D01*
X160816476Y-76867043D01*
X160819738Y-76864989D01*
X160821278Y-76864476D01*
X160823194Y-76862813D01*
X160833066Y-76856600D01*
X160841281Y-76847126D01*
X160850755Y-76838911D01*
X160856968Y-76829039D01*
X160858631Y-76827123D01*
X160859143Y-76825584D01*
X160861198Y-76822321D01*
X160908817Y-76727082D01*
X160915823Y-76708774D01*
X160916077Y-76705190D01*
X160917453Y-76701870D01*
X160919374Y-76682361D01*
X160919374Y-76258552D01*
X160962231Y-76258552D01*
X160981740Y-76256631D01*
X161017788Y-76241699D01*
X161045378Y-76214109D01*
X161060310Y-76178061D01*
X161060310Y-76158552D01*
X161195564Y-76158552D01*
X161195564Y-76825219D01*
X161197485Y-76844728D01*
X161212417Y-76880776D01*
X161240007Y-76908366D01*
X161276055Y-76923298D01*
X161315073Y-76923298D01*
X161351121Y-76908366D01*
X161378711Y-76880776D01*
X161393643Y-76844728D01*
X161395564Y-76825219D01*
X161395564Y-76158552D01*
X161671755Y-76158552D01*
X161671755Y-76968076D01*
X161673676Y-76987585D01*
X161675051Y-76990905D01*
X161675306Y-76994489D01*
X161682312Y-77012797D01*
X161729931Y-77108035D01*
X161735216Y-77116431D01*
X161736227Y-77118871D01*
X161738480Y-77121617D01*
X161740374Y-77124625D01*
X161742368Y-77126354D01*
X161748663Y-77134025D01*
X161796282Y-77181643D01*
X161803948Y-77187935D01*
X161805681Y-77189933D01*
X161808689Y-77191826D01*
X161811435Y-77194080D01*
X161813875Y-77195090D01*
X161822272Y-77200376D01*
X161917509Y-77247995D01*
X161935818Y-77255001D01*
X161939401Y-77255255D01*
X161942722Y-77256631D01*
X161962231Y-77258552D01*
X162105088Y-77258552D01*
X162124597Y-77256631D01*
X162127917Y-77255255D01*
X162131501Y-77255001D01*
X162149809Y-77247995D01*
X162245047Y-77200376D01*
X162261637Y-77189933D01*
X162287202Y-77160456D01*
X162299540Y-77123440D01*
X162296775Y-77084520D01*
X162279326Y-77049622D01*
X162249849Y-77024057D01*
X162212833Y-77011718D01*
X162173913Y-77014484D01*
X162155604Y-77021490D01*
X162081481Y-77058552D01*
X161985838Y-77058552D01*
X161926228Y-77028747D01*
X161901560Y-77004078D01*
X161871755Y-76944468D01*
X161871755Y-76925219D01*
X162057469Y-76925219D01*
X162076978Y-76923298D01*
X162080298Y-76921922D01*
X162083882Y-76921668D01*
X162102190Y-76914662D01*
X162197428Y-76867043D01*
X162205823Y-76861758D01*
X162208265Y-76860747D01*
X162211012Y-76858491D01*
X162214018Y-76856600D01*
X162215748Y-76854605D01*
X162223418Y-76848310D01*
X162271037Y-76800690D01*
X162277329Y-76793023D01*
X162279326Y-76791292D01*
X162281219Y-76788284D01*
X162283474Y-76785537D01*
X162284485Y-76783095D01*
X162289769Y-76774701D01*
X162337388Y-76679464D01*
X162344394Y-76661155D01*
X162344648Y-76657571D01*
X162346024Y-76654251D01*
X162347945Y-76634742D01*
X162347945Y-76349028D01*
X162346024Y-76329519D01*
X162344648Y-76326198D01*
X162344394Y-76322615D01*
X162337388Y-76304306D01*
X162289769Y-76209069D01*
X162284483Y-76200672D01*
X162283473Y-76198232D01*
X162281219Y-76195486D01*
X162279326Y-76192478D01*
X162277328Y-76190745D01*
X162271036Y-76183079D01*
X162223418Y-76135460D01*
X162215747Y-76129165D01*
X162214018Y-76127171D01*
X162211010Y-76125277D01*
X162208264Y-76123024D01*
X162205824Y-76122013D01*
X162197428Y-76116728D01*
X162102190Y-76069109D01*
X162083882Y-76062103D01*
X162080298Y-76061848D01*
X162076978Y-76060473D01*
X162057469Y-76058552D01*
X161866993Y-76058552D01*
X161847484Y-76060473D01*
X161844163Y-76061848D01*
X161840580Y-76062103D01*
X161822271Y-76069109D01*
X161817668Y-76071410D01*
X161791264Y-76060473D01*
X161752246Y-76060473D01*
X161716198Y-76075405D01*
X161688608Y-76102995D01*
X161673676Y-76139043D01*
X161671755Y-76158552D01*
X161395564Y-76158552D01*
X161393643Y-76139043D01*
X161378711Y-76102995D01*
X161351121Y-76075405D01*
X161315073Y-76060473D01*
X161276055Y-76060473D01*
X161240007Y-76075405D01*
X161212417Y-76102995D01*
X161197485Y-76139043D01*
X161195564Y-76158552D01*
X161060310Y-76158552D01*
X161060310Y-76139043D01*
X161045378Y-76102995D01*
X161017788Y-76075405D01*
X160981740Y-76060473D01*
X160962231Y-76058552D01*
X160919374Y-76058552D01*
X160919374Y-75853329D01*
X161149866Y-75853329D01*
X161149866Y-75892347D01*
X161164798Y-75928395D01*
X161177234Y-75943549D01*
X161224853Y-75991167D01*
X161240006Y-76003604D01*
X161250564Y-76007977D01*
X161276055Y-76018536D01*
X161315073Y-76018536D01*
X161351121Y-76003604D01*
X161366275Y-75991168D01*
X161413893Y-75943549D01*
X161426330Y-75928396D01*
X161441261Y-75892347D01*
X161441261Y-75853329D01*
X161438401Y-75846425D01*
X161426330Y-75817280D01*
X161413893Y-75802127D01*
X161366275Y-75754508D01*
X161351121Y-75742072D01*
X161315073Y-75727140D01*
X161276055Y-75727140D01*
X161250564Y-75737698D01*
X161240006Y-75742072D01*
X161224853Y-75754509D01*
X161177234Y-75802127D01*
X161164799Y-75817280D01*
X161164798Y-75817281D01*
X161149866Y-75853329D01*
X160919374Y-75853329D01*
X160919374Y-75825219D01*
X160917453Y-75805710D01*
X160902521Y-75769662D01*
X160874931Y-75742072D01*
X160838883Y-75727140D01*
X160799865Y-75727140D01*
X160763817Y-75742072D01*
X160736227Y-75769662D01*
X160721295Y-75805710D01*
X160719374Y-75825219D01*
X160719374Y-76058552D01*
X160581279Y-76058552D01*
X160561770Y-76060473D01*
X160525722Y-76075405D01*
X160498132Y-76102995D01*
X160483200Y-76139043D01*
X160347945Y-76139043D01*
X160347945Y-75825219D01*
X160346024Y-75805710D01*
X160331092Y-75769662D01*
X160303502Y-75742072D01*
X160267454Y-75727140D01*
X160228436Y-75727140D01*
X160192388Y-75742072D01*
X160164798Y-75769662D01*
X160149866Y-75805710D01*
X160147945Y-75825219D01*
X160147945Y-76068395D01*
X160131501Y-76062103D01*
X160127917Y-76061848D01*
X160124597Y-76060473D01*
X160105088Y-76058552D01*
X159962231Y-76058552D01*
X159942722Y-76060473D01*
X159939401Y-76061848D01*
X159935818Y-76062103D01*
X159917509Y-76069109D01*
X159822272Y-76116728D01*
X159819008Y-76118782D01*
X159817470Y-76119295D01*
X159815554Y-76120956D01*
X159805681Y-76127171D01*
X159797463Y-76136646D01*
X159787993Y-76144860D01*
X159781779Y-76154731D01*
X159780117Y-76156648D01*
X159779603Y-76158186D01*
X159777550Y-76161450D01*
X159729931Y-76256688D01*
X159722925Y-76274996D01*
X159722670Y-76278579D01*
X159721295Y-76281900D01*
X159719374Y-76301409D01*
X159443183Y-76301409D01*
X159443183Y-76158552D01*
X159441262Y-76139043D01*
X159426330Y-76102995D01*
X159398740Y-76075405D01*
X159362692Y-76060473D01*
X159323674Y-76060473D01*
X159287626Y-76075405D01*
X159260036Y-76102995D01*
X159245104Y-76139043D01*
X159243183Y-76158552D01*
X159243183Y-76658754D01*
X159221028Y-76703063D01*
X159176719Y-76725219D01*
X159081076Y-76725219D01*
X159021466Y-76695414D01*
X159014612Y-76688559D01*
X159014612Y-76158552D01*
X159012691Y-76139043D01*
X158997759Y-76102995D01*
X158970169Y-76075405D01*
X158934121Y-76060473D01*
X158895103Y-76060473D01*
X158859055Y-76075405D01*
X158831465Y-76102995D01*
X158816533Y-76139043D01*
X158814612Y-76158552D01*
X158538421Y-76158552D01*
X158538421Y-75825219D01*
X158536500Y-75805710D01*
X158521568Y-75769662D01*
X158493978Y-75742072D01*
X158457930Y-75727140D01*
X158418912Y-75727140D01*
X158382864Y-75742072D01*
X158355274Y-75769662D01*
X158340342Y-75805710D01*
X158338421Y-75825219D01*
X158338421Y-76058552D01*
X158152707Y-76058552D01*
X158133198Y-76060473D01*
X158129877Y-76061848D01*
X158126294Y-76062103D01*
X158107985Y-76069109D01*
X158012748Y-76116728D01*
X158004351Y-76122013D01*
X158001911Y-76123024D01*
X157999165Y-76125277D01*
X157996157Y-76127171D01*
X157994424Y-76129168D01*
X157986758Y-76135461D01*
X157939139Y-76183079D01*
X157932844Y-76190749D01*
X157930850Y-76192479D01*
X157928956Y-76195486D01*
X157926703Y-76198233D01*
X157925692Y-76200672D01*
X157920407Y-76209069D01*
X157872788Y-76304307D01*
X157865782Y-76322615D01*
X157865527Y-76326198D01*
X157864152Y-76329519D01*
X157862231Y-76349028D01*
X157205088Y-76349028D01*
X157203167Y-76329519D01*
X157201791Y-76326198D01*
X157201537Y-76322615D01*
X157194531Y-76304306D01*
X157146912Y-76209069D01*
X157141626Y-76200672D01*
X157140616Y-76198232D01*
X157138362Y-76195486D01*
X157136469Y-76192478D01*
X157134471Y-76190745D01*
X157128179Y-76183079D01*
X157080561Y-76135460D01*
X157072890Y-76129165D01*
X157071161Y-76127171D01*
X157068153Y-76125277D01*
X157065407Y-76123024D01*
X157062967Y-76122013D01*
X157054571Y-76116728D01*
X156959333Y-76069109D01*
X156941025Y-76062103D01*
X156937441Y-76061848D01*
X156934121Y-76060473D01*
X156914612Y-76058552D01*
X156724136Y-76058552D01*
X156704627Y-76060473D01*
X156701306Y-76061848D01*
X156697723Y-76062103D01*
X156679414Y-76069109D01*
X156584177Y-76116728D01*
X156567586Y-76127171D01*
X156542022Y-76156648D01*
X156529683Y-76193664D01*
X156280072Y-76193664D01*
X156279326Y-76192478D01*
X156277328Y-76190745D01*
X156271036Y-76183079D01*
X156223418Y-76135460D01*
X156215747Y-76129165D01*
X156214018Y-76127171D01*
X156211010Y-76125277D01*
X156208264Y-76123024D01*
X156205824Y-76122013D01*
X156197428Y-76116728D01*
X156102190Y-76069109D01*
X156083882Y-76062103D01*
X156080298Y-76061848D01*
X156076978Y-76060473D01*
X156057469Y-76058552D01*
X155914612Y-76058552D01*
X155895103Y-76060473D01*
X155891782Y-76061848D01*
X155888199Y-76062103D01*
X155869890Y-76069109D01*
X155774653Y-76116728D01*
X155766256Y-76122013D01*
X155763816Y-76123024D01*
X155761070Y-76125277D01*
X155758062Y-76127171D01*
X155756329Y-76129168D01*
X155748663Y-76135461D01*
X155701044Y-76183079D01*
X155694749Y-76190749D01*
X155692755Y-76192479D01*
X155690861Y-76195486D01*
X155688608Y-76198233D01*
X155687597Y-76200672D01*
X155682312Y-76209069D01*
X155634693Y-76304307D01*
X155627687Y-76322615D01*
X155627432Y-76326198D01*
X155626057Y-76329519D01*
X155624136Y-76349028D01*
X155395564Y-76349028D01*
X155395564Y-76158552D01*
X155393643Y-76139043D01*
X155378711Y-76102995D01*
X155351121Y-76075405D01*
X155315073Y-76060473D01*
X155276055Y-76060473D01*
X155240007Y-76075405D01*
X155230011Y-76085400D01*
X155197428Y-76069109D01*
X155179120Y-76062103D01*
X155175536Y-76061848D01*
X155172216Y-76060473D01*
X155152707Y-76058552D01*
X155009850Y-76058552D01*
X154990341Y-76060473D01*
X154987020Y-76061848D01*
X154983437Y-76062103D01*
X154965128Y-76069109D01*
X154869891Y-76116728D01*
X154866992Y-76118552D01*
X154864095Y-76116728D01*
X154768857Y-76069109D01*
X154750549Y-76062103D01*
X154746965Y-76061848D01*
X154743645Y-76060473D01*
X154724136Y-76058552D01*
X154581279Y-76058552D01*
X154561770Y-76060473D01*
X154558449Y-76061848D01*
X154554866Y-76062103D01*
X154536558Y-76069109D01*
X154441319Y-76116728D01*
X154438055Y-76118782D01*
X154436517Y-76119295D01*
X154434600Y-76120957D01*
X154424729Y-76127171D01*
X154416513Y-76136644D01*
X154407040Y-76144860D01*
X154400826Y-76154731D01*
X154399164Y-76156648D01*
X154398650Y-76158187D01*
X154396597Y-76161450D01*
X154348978Y-76256688D01*
X154341972Y-76274996D01*
X154341717Y-76278579D01*
X154340342Y-76281900D01*
X154338421Y-76301409D01*
X153717337Y-76301409D01*
X153331151Y-75722130D01*
X153318731Y-75706963D01*
X153286311Y-75685252D01*
X153248051Y-75677600D01*
X153209774Y-75685172D01*
X153177309Y-75706815D01*
X153155598Y-75739235D01*
X153147946Y-75777495D01*
X150143861Y-75777495D01*
X150140616Y-75769662D01*
X150113026Y-75742072D01*
X150076978Y-75727140D01*
X150037960Y-75727140D01*
X150001912Y-75742072D01*
X149974322Y-75769662D01*
X149959390Y-75805710D01*
X149957469Y-75825219D01*
X149957469Y-76058552D01*
X149819374Y-76058552D01*
X149799865Y-76060473D01*
X149763817Y-76075405D01*
X149736227Y-76102995D01*
X149721295Y-76139043D01*
X149584119Y-76139043D01*
X149569187Y-76102995D01*
X149541597Y-76075405D01*
X149505549Y-76060473D01*
X149466531Y-76060473D01*
X149430483Y-76075405D01*
X149402893Y-76102995D01*
X149387961Y-76139043D01*
X149386040Y-76158552D01*
X149109850Y-76158552D01*
X149107929Y-76139043D01*
X149092997Y-76102995D01*
X149065407Y-76075405D01*
X149029359Y-76060473D01*
X148990341Y-76060473D01*
X148954293Y-76075405D01*
X148944297Y-76085400D01*
X148911714Y-76069109D01*
X148893406Y-76062103D01*
X148889822Y-76061848D01*
X148886502Y-76060473D01*
X148866993Y-76058552D01*
X148724136Y-76058552D01*
X148704627Y-76060473D01*
X148701306Y-76061848D01*
X148697723Y-76062103D01*
X148679414Y-76069109D01*
X148584177Y-76116728D01*
X148580913Y-76118782D01*
X148579375Y-76119295D01*
X148577459Y-76120956D01*
X148567586Y-76127171D01*
X148559368Y-76136646D01*
X148549898Y-76144860D01*
X148543684Y-76154731D01*
X148542022Y-76156648D01*
X148541508Y-76158186D01*
X148539455Y-76161450D01*
X148491836Y-76256688D01*
X148484830Y-76274996D01*
X148484575Y-76278579D01*
X148483200Y-76281900D01*
X148481279Y-76301409D01*
X148205088Y-76301409D01*
X148205088Y-75853329D01*
X149340342Y-75853329D01*
X149340342Y-75892347D01*
X149355274Y-75928395D01*
X149367710Y-75943549D01*
X149415329Y-75991167D01*
X149430482Y-76003604D01*
X149441040Y-76007977D01*
X149466531Y-76018536D01*
X149505549Y-76018536D01*
X149541597Y-76003604D01*
X149556751Y-75991168D01*
X149604369Y-75943549D01*
X149616806Y-75928396D01*
X149631737Y-75892347D01*
X149631737Y-75853329D01*
X149628877Y-75846425D01*
X149616806Y-75817280D01*
X149604369Y-75802127D01*
X149556751Y-75754508D01*
X149541597Y-75742072D01*
X149505549Y-75727140D01*
X149466531Y-75727140D01*
X149441040Y-75737698D01*
X149430482Y-75742072D01*
X149415329Y-75754509D01*
X149367710Y-75802127D01*
X149355275Y-75817280D01*
X149355274Y-75817281D01*
X149340342Y-75853329D01*
X148205088Y-75853329D01*
X148205088Y-75825219D01*
X148203167Y-75805710D01*
X148188235Y-75769662D01*
X148160645Y-75742072D01*
X148124597Y-75727140D01*
X148085579Y-75727140D01*
X148049531Y-75742072D01*
X148021941Y-75769662D01*
X148007009Y-75805710D01*
X148005088Y-75825219D01*
X148005088Y-76058552D01*
X147819374Y-76058552D01*
X147799865Y-76060473D01*
X147796544Y-76061848D01*
X147792961Y-76062103D01*
X147774652Y-76069109D01*
X147679415Y-76116728D01*
X147671018Y-76122013D01*
X147668578Y-76123024D01*
X147665832Y-76125277D01*
X147662824Y-76127171D01*
X147661091Y-76129168D01*
X147653425Y-76135461D01*
X147605806Y-76183079D01*
X147599511Y-76190749D01*
X147597517Y-76192479D01*
X147595623Y-76195486D01*
X147593370Y-76198233D01*
X147592359Y-76200672D01*
X147587074Y-76209069D01*
X147539455Y-76304307D01*
X147532449Y-76322615D01*
X147532194Y-76326198D01*
X147530819Y-76329519D01*
X147528898Y-76349028D01*
X147347945Y-76349028D01*
X147347945Y-76301409D01*
X147346024Y-76281900D01*
X147344648Y-76278579D01*
X147344394Y-76274996D01*
X147337388Y-76256687D01*
X147289769Y-76161450D01*
X147287714Y-76158186D01*
X147287202Y-76156648D01*
X147285540Y-76154732D01*
X147279326Y-76144859D01*
X147269850Y-76136641D01*
X147261637Y-76127171D01*
X147251765Y-76120957D01*
X147249849Y-76119295D01*
X147248310Y-76118781D01*
X147245047Y-76116728D01*
X147149809Y-76069109D01*
X147131501Y-76062103D01*
X147127917Y-76061848D01*
X147124597Y-76060473D01*
X147105088Y-76058552D01*
X146914612Y-76058552D01*
X146895103Y-76060473D01*
X146891782Y-76061848D01*
X146888199Y-76062103D01*
X146869890Y-76069109D01*
X146774653Y-76116728D01*
X146771389Y-76118782D01*
X146769851Y-76119295D01*
X146767935Y-76120956D01*
X146758062Y-76127171D01*
X146749844Y-76136646D01*
X146740374Y-76144860D01*
X146734160Y-76154731D01*
X146732498Y-76156648D01*
X146731984Y-76158186D01*
X146729931Y-76161450D01*
X146682312Y-76256688D01*
X146675306Y-76274996D01*
X146675051Y-76278579D01*
X146673676Y-76281900D01*
X146671755Y-76301409D01*
X146443183Y-76301409D01*
X146443183Y-76158552D01*
X146441262Y-76139043D01*
X146426330Y-76102995D01*
X146398740Y-76075405D01*
X146362692Y-76060473D01*
X146323674Y-76060473D01*
X146287626Y-76075405D01*
X146261757Y-76101273D01*
X146197428Y-76069109D01*
X146179120Y-76062103D01*
X146175536Y-76061848D01*
X146172216Y-76060473D01*
X146152707Y-76058552D01*
X146057469Y-76058552D01*
X146037960Y-76060473D01*
X146001912Y-76075405D01*
X145974322Y-76102995D01*
X145959390Y-76139043D01*
X145824135Y-76139043D01*
X145824135Y-75825219D01*
X145822214Y-75805710D01*
X145807282Y-75769662D01*
X145779692Y-75742072D01*
X145743644Y-75727140D01*
X145704626Y-75727140D01*
X145668578Y-75742072D01*
X145640988Y-75769662D01*
X145626056Y-75805710D01*
X145624135Y-75825219D01*
X145624135Y-76658754D01*
X145601980Y-76703063D01*
X145536557Y-76735776D01*
X145519966Y-76746219D01*
X145494402Y-76775696D01*
X145482063Y-76812712D01*
X145300325Y-76812712D01*
X145300325Y-76158552D01*
X145298404Y-76139043D01*
X145283472Y-76102995D01*
X145255882Y-76075405D01*
X145219834Y-76060473D01*
X145180816Y-76060473D01*
X145144768Y-76075405D01*
X145117178Y-76102995D01*
X145102246Y-76139043D01*
X145100325Y-76158552D01*
X144824135Y-76158552D01*
X144822214Y-76139043D01*
X144807282Y-76102995D01*
X144779692Y-76075405D01*
X144743644Y-76060473D01*
X144704626Y-76060473D01*
X144668578Y-76075405D01*
X144658582Y-76085400D01*
X144625999Y-76069109D01*
X144607691Y-76062103D01*
X144604107Y-76061848D01*
X144600787Y-76060473D01*
X144581278Y-76058552D01*
X144438421Y-76058552D01*
X144418912Y-76060473D01*
X144415591Y-76061848D01*
X144412008Y-76062103D01*
X144393699Y-76069109D01*
X144298462Y-76116728D01*
X144295198Y-76118782D01*
X144293660Y-76119295D01*
X144291744Y-76120956D01*
X144281871Y-76127171D01*
X144273653Y-76136646D01*
X144264183Y-76144860D01*
X144257969Y-76154731D01*
X144256307Y-76156648D01*
X144255793Y-76158186D01*
X144253740Y-76161450D01*
X144206121Y-76256688D01*
X144199115Y-76274996D01*
X144198860Y-76278579D01*
X144197485Y-76281900D01*
X144195564Y-76301409D01*
X143574479Y-76301409D01*
X143275759Y-75853329D01*
X145054627Y-75853329D01*
X145054627Y-75892347D01*
X145069559Y-75928395D01*
X145081995Y-75943549D01*
X145129614Y-75991167D01*
X145144767Y-76003604D01*
X145155325Y-76007977D01*
X145180816Y-76018536D01*
X145219834Y-76018536D01*
X145255882Y-76003604D01*
X145271036Y-75991168D01*
X145318654Y-75943549D01*
X145331091Y-75928396D01*
X145346022Y-75892347D01*
X145346022Y-75853329D01*
X145343162Y-75846425D01*
X145331091Y-75817280D01*
X145318654Y-75802127D01*
X145271036Y-75754508D01*
X145255882Y-75742072D01*
X145219834Y-75727140D01*
X145180816Y-75727140D01*
X145155325Y-75737698D01*
X145144767Y-75742072D01*
X145129614Y-75754509D01*
X145081995Y-75802127D01*
X145069560Y-75817280D01*
X145069559Y-75817281D01*
X145054627Y-75853329D01*
X143275759Y-75853329D01*
X143188293Y-75722130D01*
X143175873Y-75706963D01*
X143143453Y-75685252D01*
X143105193Y-75677600D01*
X143066916Y-75685172D01*
X143034451Y-75706815D01*
X143012740Y-75739235D01*
X143005088Y-75777495D01*
X142858146Y-75777495D01*
X142854901Y-75769662D01*
X142827311Y-75742072D01*
X142791263Y-75727140D01*
X142752245Y-75727140D01*
X142716197Y-75742072D01*
X142688607Y-75769662D01*
X142673675Y-75805710D01*
X142671754Y-75825219D01*
X142671754Y-76201409D01*
X142300326Y-76201409D01*
X142300326Y-75825219D01*
X142298405Y-75805710D01*
X142283473Y-75769662D01*
X142255883Y-75742072D01*
X142219835Y-75727140D01*
X142180817Y-75727140D01*
X142144769Y-75742072D01*
X142117179Y-75769662D01*
X142102247Y-75805710D01*
X142100326Y-75825219D01*
X140436986Y-75825219D01*
X140413894Y-75802127D01*
X140398740Y-75789691D01*
X140395421Y-75788316D01*
X140392706Y-75785961D01*
X140374805Y-75777970D01*
X140231949Y-75730351D01*
X140222277Y-75728151D01*
X140219835Y-75727140D01*
X140216296Y-75726791D01*
X140212833Y-75726004D01*
X140210199Y-75726191D01*
X140200326Y-75725219D01*
X140105088Y-75725219D01*
X140095214Y-75726191D01*
X140092580Y-75726004D01*
X140089116Y-75726791D01*
X140085579Y-75727140D01*
X140083137Y-75728151D01*
X140073465Y-75730351D01*
X139930608Y-75777970D01*
X139912708Y-75785961D01*
X139909992Y-75788316D01*
X139906673Y-75789691D01*
X139891520Y-75802128D01*
X139843901Y-75849746D01*
X139831465Y-75864900D01*
X139816533Y-75900948D01*
X139644253Y-75900948D01*
X139664425Y-75880776D01*
X139679357Y-75844728D01*
X139679357Y-75805710D01*
X139664425Y-75769662D01*
X139636835Y-75742072D01*
X139600787Y-75727140D01*
X139581278Y-75725219D01*
X138962231Y-75725219D01*
X138951913Y-75726234D01*
X138949289Y-75726060D01*
X138947481Y-75726671D01*
X138942722Y-75727140D01*
X138927716Y-75733355D01*
X138912328Y-75738560D01*
X138909788Y-75740781D01*
X138906674Y-75742072D01*
X138895189Y-75753556D01*
X138882964Y-75764254D01*
X138881468Y-75767277D01*
X138879084Y-75769662D01*
X138872867Y-75784668D01*
X138865667Y-75799229D01*
X138865442Y-75802594D01*
X138864152Y-75805710D01*
X138864152Y-75821958D01*
X138863072Y-75838161D01*
X138864152Y-75841354D01*
X138864152Y-75844728D01*
X138870367Y-75859733D01*
X138875572Y-75875122D01*
X138878353Y-75879012D01*
X138879084Y-75880776D01*
X138880943Y-75882635D01*
X138886973Y-75891069D01*
X139091594Y-76124923D01*
X139012748Y-76164347D01*
X139004351Y-76169632D01*
X139001911Y-76170643D01*
X138999165Y-76172896D01*
X138996157Y-76174790D01*
X138994424Y-76176787D01*
X138986758Y-76183080D01*
X138939139Y-76230698D01*
X138932844Y-76238368D01*
X138930850Y-76240098D01*
X138928956Y-76243105D01*
X138926703Y-76245852D01*
X138925692Y-76248291D01*
X138920407Y-76256688D01*
X138872788Y-76351926D01*
X138865782Y-76370234D01*
X138865527Y-76373817D01*
X138864152Y-76377138D01*
X138862231Y-76396647D01*
X138620094Y-76396647D01*
X138616806Y-76388709D01*
X138589216Y-76361119D01*
X138553168Y-76346187D01*
X138533659Y-76344266D01*
X137771755Y-76344266D01*
X137752246Y-76346187D01*
X137716198Y-76361119D01*
X137688608Y-76388709D01*
X137673676Y-76424757D01*
X137443183Y-76424757D01*
X137443183Y-76206171D01*
X137442847Y-76202768D01*
X137443065Y-76201310D01*
X137441985Y-76194012D01*
X137441262Y-76186662D01*
X137440697Y-76185298D01*
X137440197Y-76181917D01*
X137392578Y-75991441D01*
X137392064Y-75990002D01*
X137392013Y-75989282D01*
X137388904Y-75981157D01*
X137385983Y-75972981D01*
X137385553Y-75972401D01*
X137385007Y-75970973D01*
X137337388Y-75875736D01*
X137332102Y-75867339D01*
X137331092Y-75864899D01*
X137328838Y-75862153D01*
X137326945Y-75859145D01*
X137324947Y-75857412D01*
X137318655Y-75849746D01*
X137271037Y-75802127D01*
X137263366Y-75795832D01*
X137261637Y-75793838D01*
X137258629Y-75791944D01*
X137255883Y-75789691D01*
X137253443Y-75788680D01*
X137245047Y-75783395D01*
X137149809Y-75735776D01*
X137131501Y-75728770D01*
X137127917Y-75728515D01*
X137124597Y-75727140D01*
X137105088Y-75725219D01*
X137009850Y-75725219D01*
X136990341Y-75727140D01*
X136987020Y-75728515D01*
X136983437Y-75728770D01*
X136965128Y-75735776D01*
X136869891Y-75783395D01*
X136861494Y-75788680D01*
X136859054Y-75789691D01*
X136856308Y-75791944D01*
X136853300Y-75793838D01*
X136851567Y-75795835D01*
X136843901Y-75802128D01*
X136796282Y-75849746D01*
X136789987Y-75857416D01*
X136787993Y-75859146D01*
X136786099Y-75862153D01*
X136783846Y-75864900D01*
X136782835Y-75867339D01*
X136777550Y-75875736D01*
X136729931Y-75970974D01*
X136729385Y-75972400D01*
X136728955Y-75972981D01*
X136726033Y-75981157D01*
X136722925Y-75989282D01*
X136722873Y-75990004D01*
X136722360Y-75991442D01*
X136674741Y-76181917D01*
X136674240Y-76185298D01*
X136673676Y-76186662D01*
X136672952Y-76194012D01*
X136671873Y-76201310D01*
X136672090Y-76202768D01*
X136671755Y-76206171D01*
X135960796Y-76206171D01*
X135954395Y-76199770D01*
X135919374Y-76094706D01*
X135919374Y-76039302D01*
X135949179Y-75979692D01*
X135973847Y-75955023D01*
X136033457Y-75925219D01*
X136224338Y-75925219D01*
X136283947Y-75955024D01*
X136320091Y-75991167D01*
X136335244Y-76003604D01*
X136371293Y-76018535D01*
X136410311Y-76018535D01*
X136446359Y-76003604D01*
X136473949Y-75976014D01*
X136488880Y-75939966D01*
X136488880Y-75900948D01*
X136473949Y-75864899D01*
X136461512Y-75849746D01*
X136413894Y-75802127D01*
X136406223Y-75795832D01*
X136404494Y-75793838D01*
X136401486Y-75791944D01*
X136398740Y-75789691D01*
X136396300Y-75788680D01*
X136387904Y-75783395D01*
X136292666Y-75735776D01*
X136274358Y-75728770D01*
X136270774Y-75728515D01*
X136267454Y-75727140D01*
X136247945Y-75725219D01*
X136009850Y-75725219D01*
X135990341Y-75727140D01*
X135987020Y-75728515D01*
X135983437Y-75728770D01*
X135965128Y-75735776D01*
X135869891Y-75783395D01*
X135861494Y-75788680D01*
X135859054Y-75789691D01*
X135856308Y-75791944D01*
X135853300Y-75793838D01*
X135851567Y-75795835D01*
X135843901Y-75802128D01*
X135796282Y-75849746D01*
X135789987Y-75857416D01*
X135787993Y-75859146D01*
X135786099Y-75862153D01*
X135783846Y-75864900D01*
X135782835Y-75867339D01*
X135777550Y-75875736D01*
X135729931Y-75970974D01*
X135722925Y-75989282D01*
X135722670Y-75992865D01*
X135721295Y-75996186D01*
X135719374Y-76015695D01*
X135538421Y-76015695D01*
X135536500Y-75996186D01*
X135535124Y-75992865D01*
X135534870Y-75989282D01*
X135527864Y-75970973D01*
X135480245Y-75875736D01*
X135474959Y-75867339D01*
X135473949Y-75864899D01*
X135471695Y-75862153D01*
X135469802Y-75859145D01*
X135467804Y-75857412D01*
X135461512Y-75849746D01*
X135413894Y-75802127D01*
X135406223Y-75795832D01*
X135404494Y-75793838D01*
X135401486Y-75791944D01*
X135398740Y-75789691D01*
X135396300Y-75788680D01*
X135387904Y-75783395D01*
X135292666Y-75735776D01*
X135274358Y-75728770D01*
X135270774Y-75728515D01*
X135267454Y-75727140D01*
X135247945Y-75725219D01*
X135057469Y-75725219D01*
X135037960Y-75727140D01*
X135034639Y-75728515D01*
X135031056Y-75728770D01*
X135012747Y-75735776D01*
X134917510Y-75783395D01*
X134909113Y-75788680D01*
X134906673Y-75789691D01*
X134903927Y-75791944D01*
X134900919Y-75793838D01*
X134899186Y-75795835D01*
X134891520Y-75802128D01*
X134843901Y-75849746D01*
X134837606Y-75857416D01*
X134835612Y-75859146D01*
X134833718Y-75862153D01*
X134831465Y-75864900D01*
X134830454Y-75867339D01*
X134825169Y-75875736D01*
X134777550Y-75970974D01*
X134770544Y-75989282D01*
X134770289Y-75992865D01*
X134768914Y-75996186D01*
X134766993Y-76015695D01*
X132369551Y-76015695D01*
X132398740Y-76003604D01*
X132413894Y-75991168D01*
X132461512Y-75943549D01*
X132473949Y-75928396D01*
X132488880Y-75892347D01*
X132488880Y-75853329D01*
X132486020Y-75846425D01*
X132473949Y-75817280D01*
X132461512Y-75802127D01*
X132413894Y-75754508D01*
X132398740Y-75742072D01*
X132362692Y-75727140D01*
X132323674Y-75727140D01*
X132298183Y-75737698D01*
X132287625Y-75742072D01*
X132272472Y-75754509D01*
X132224853Y-75802127D01*
X132212418Y-75817280D01*
X132212417Y-75817281D01*
X132197485Y-75853329D01*
X131062231Y-75853329D01*
X131062231Y-75825219D01*
X131060310Y-75805710D01*
X131045378Y-75769662D01*
X131017788Y-75742072D01*
X130981740Y-75727140D01*
X130942722Y-75727140D01*
X130906674Y-75742072D01*
X130879084Y-75769662D01*
X130864152Y-75805710D01*
X130862231Y-75825219D01*
X130862231Y-76298082D01*
X130651990Y-76087841D01*
X130636836Y-76075405D01*
X130600788Y-76060473D01*
X130561770Y-76060473D01*
X130525722Y-76075405D01*
X130498132Y-76102995D01*
X130483200Y-76139043D01*
X130483200Y-76178061D01*
X130498132Y-76214109D01*
X130510568Y-76229263D01*
X130734955Y-76453649D01*
X130501279Y-76765219D01*
X130491110Y-76781979D01*
X130481427Y-76819777D01*
X130370316Y-76819777D01*
X130370316Y-75566489D01*
X162459056Y-75566489D01*
X162459056Y-77369663D01*
G37*
M02*
