%TF.GenerationSoftware,KiCad,Pcbnew,8.0.9-8.0.9-0~ubuntu22.04.1*%
%TF.CreationDate,2025-08-10T04:03:49+02:00*%
%TF.ProjectId,H-C3-ulp29,482d4333-2d75-46c7-9032-392e6b696361,rev?*%
%TF.SameCoordinates,Original*%
%TF.FileFunction,Profile,NP*%
%FSLAX46Y46*%
G04 Gerber Fmt 4.6, Leading zero omitted, Abs format (unit mm)*
G04 Created by KiCad (PCBNEW 8.0.9-8.0.9-0~ubuntu22.04.1) date 2025-08-10 04:03:49*
%MOMM*%
%LPD*%
G01*
G04 APERTURE LIST*
%TA.AperFunction,Profile*%
%ADD10C,0.100000*%
%TD*%
%TA.AperFunction,Profile*%
%ADD11C,0.050000*%
%TD*%
G04 APERTURE END LIST*
D10*
X168301812Y-44512144D02*
G75*
G02*
X169500000Y-45727000I-18812J-1216856D01*
G01*
D11*
X120706992Y-44236406D02*
G75*
G02*
X120709992Y-41215394I1508J1510506D01*
G01*
D10*
X86104218Y-45790000D02*
G75*
G02*
X87400000Y-44497221I1292782J0D01*
G01*
D11*
X134771992Y-41212408D02*
G75*
G02*
X134768992Y-44236392I-1492J-1511992D01*
G01*
D10*
X169500000Y-45727000D02*
X169500000Y-55500000D01*
X168301812Y-44512144D02*
X141526010Y-44500000D01*
X137021990Y-39496975D02*
G75*
G02*
X141525025Y-43998000I10J-4503025D01*
G01*
X118440990Y-39496975D02*
X137021990Y-39496975D01*
X168000000Y-69600000D02*
X169500000Y-69600000D01*
X169500000Y-69600000D02*
X169500000Y-80300000D01*
X169500000Y-80304226D02*
G75*
G02*
X168198232Y-81600014I-1301800J6026D01*
G01*
X168000000Y-55500000D02*
X168000000Y-69600000D01*
X141525000Y-43998000D02*
X141526010Y-44500000D01*
X87399992Y-81600000D02*
G75*
G02*
X86104186Y-80298232I6008J1301800D01*
G01*
D11*
X120706992Y-44236407D02*
X134768992Y-44236407D01*
D10*
X168000000Y-55500000D02*
X169500000Y-55500000D01*
X87399992Y-81600000D02*
X168198232Y-81600000D01*
D11*
X120709992Y-41215407D02*
X127131975Y-41212221D01*
D10*
X113941712Y-44500000D02*
X113940702Y-43998000D01*
D11*
X128466008Y-41209592D02*
X134771992Y-41212407D01*
D10*
X86104218Y-45790000D02*
X86104218Y-80300000D01*
X113940702Y-43998000D02*
G75*
G02*
X118440990Y-39495001I4500298J2700D01*
G01*
D11*
X127131976Y-41212221D02*
G75*
G02*
X128466058Y-41209593I667024J10021D01*
G01*
D10*
X113941712Y-44500000D02*
X87400000Y-44497221D01*
M02*
