%TF.GenerationSoftware,KiCad,Pcbnew,8.0.9-8.0.9-0~ubuntu22.04.1*%
%TF.CreationDate,2025-08-10T04:03:38+02:00*%
%TF.ProjectId,H-C3-ulp29,482d4333-2d75-46c7-9032-392e6b696361,rev?*%
%TF.SameCoordinates,Original*%
%TF.FileFunction,Drillmap*%
%TF.FilePolarity,Positive*%
%FSLAX45Y45*%
G04 Gerber Fmt 4.5, Leading zero omitted, Abs format (unit mm)*
G04 Created by KiCad (PCBNEW 8.0.9-8.0.9-0~ubuntu22.04.1) date 2025-08-10 04:03:38*
%MOMM*%
%LPD*%
G01*
G04 APERTURE LIST*
%ADD10C,0.100000*%
%ADD11C,0.050000*%
%ADD12C,0.200000*%
%ADD13C,0.110000*%
G04 APERTURE END LIST*
D10*
X16830181Y-4451214D02*
G75*
G02*
X16950000Y-4572700I-1881J-121686D01*
G01*
D11*
X12070699Y-4423641D02*
G75*
G02*
X12070999Y-4121539I151J151051D01*
G01*
D10*
X8610422Y-4579000D02*
G75*
G02*
X8740000Y-4449722I129278J0D01*
G01*
D11*
X13477199Y-4121241D02*
G75*
G02*
X13476899Y-4423639I-149J-151199D01*
G01*
D10*
X16950000Y-4572700D02*
X16950000Y-5550000D01*
X16830181Y-4451214D02*
X14152601Y-4450000D01*
X13702199Y-3949697D02*
G75*
G02*
X14152502Y-4399800I1J-450303D01*
G01*
X11844099Y-3949697D02*
X13702199Y-3949697D01*
X16800000Y-6960000D02*
X16950000Y-6960000D01*
X16950000Y-6960000D02*
X16950000Y-8030000D01*
X16950000Y-8030423D02*
G75*
G02*
X16819823Y-8160001I-130180J603D01*
G01*
X16800000Y-5550000D02*
X16800000Y-6960000D01*
X14152500Y-4399800D02*
X14152601Y-4450000D01*
X8739999Y-8160000D02*
G75*
G02*
X8610419Y-8029823I601J130180D01*
G01*
D11*
X12070699Y-4423641D02*
X13476899Y-4423641D01*
D10*
X16800000Y-5550000D02*
X16950000Y-5550000D01*
X8739999Y-8160000D02*
X16819823Y-8160000D01*
D11*
X12070999Y-4121541D02*
X12713197Y-4121222D01*
D10*
X11394171Y-4450000D02*
X11394070Y-4399800D01*
D11*
X12846601Y-4120959D02*
X13477199Y-4121241D01*
D10*
X8610422Y-4579000D02*
X8610422Y-8030000D01*
X11394070Y-4399800D02*
G75*
G02*
X11844099Y-3949500I450030J270D01*
G01*
D11*
X12713198Y-4121222D02*
G75*
G02*
X12846606Y-4120959I66702J1002D01*
G01*
D10*
X11394171Y-4450000D02*
X8740000Y-4449722D01*
D12*
D10*
X8770000Y-7255000D02*
X8800000Y-7285000D01*
X8800000Y-7255000D02*
X8770000Y-7285000D01*
X8912800Y-5336000D02*
X8942800Y-5366000D01*
X8942800Y-5336000D02*
X8912800Y-5366000D01*
X8991000Y-6052300D02*
X9021000Y-6082300D01*
X9021000Y-6052300D02*
X8991000Y-6082300D01*
X9037800Y-5382700D02*
X9067800Y-5412700D01*
X9067800Y-5382700D02*
X9037800Y-5412700D01*
X9120303Y-6064297D02*
X9150303Y-6094297D01*
X9150303Y-6064297D02*
X9120303Y-6094297D01*
X9225000Y-7510000D02*
X9255000Y-7540000D01*
X9255000Y-7510000D02*
X9225000Y-7540000D01*
X9225000Y-7610000D02*
X9255000Y-7640000D01*
X9255000Y-7610000D02*
X9225000Y-7640000D01*
X9317500Y-6050500D02*
X9347500Y-6080500D01*
X9347500Y-6050500D02*
X9317500Y-6080500D01*
X9386600Y-4789800D02*
X9416600Y-4819800D01*
X9416600Y-4789800D02*
X9386600Y-4819800D01*
X9452500Y-5444571D02*
X9482500Y-5474571D01*
X9482500Y-5444571D02*
X9452500Y-5474571D01*
X9452500Y-5522500D02*
X9482500Y-5552500D01*
X9482500Y-5522500D02*
X9452500Y-5552500D01*
X9610000Y-5425000D02*
X9640000Y-5455000D01*
X9640000Y-5425000D02*
X9610000Y-5455000D01*
X9643900Y-7232300D02*
X9673900Y-7262300D01*
X9673900Y-7232300D02*
X9643900Y-7262300D01*
X9688003Y-7621997D02*
X9718003Y-7651997D01*
X9718003Y-7621997D02*
X9688003Y-7651997D01*
X9712823Y-6832895D02*
X9742823Y-6862895D01*
X9742823Y-6832895D02*
X9712823Y-6862895D01*
X9770000Y-6770000D02*
X9800000Y-6800000D01*
X9800000Y-6770000D02*
X9770000Y-6800000D01*
X9845000Y-6755000D02*
X9875000Y-6785000D01*
X9875000Y-6755000D02*
X9845000Y-6785000D01*
X9913200Y-5348100D02*
X9943200Y-5378100D01*
X9943200Y-5348100D02*
X9913200Y-5378100D01*
X10007600Y-6473277D02*
X10037600Y-6503277D01*
X10037600Y-6473277D02*
X10007600Y-6503277D01*
X10021500Y-6238200D02*
X10051500Y-6268200D01*
X10051500Y-6238200D02*
X10021500Y-6268200D01*
X10028600Y-7695200D02*
X10058600Y-7725200D01*
X10058600Y-7695200D02*
X10028600Y-7725200D01*
X10075100Y-6558300D02*
X10105100Y-6588300D01*
X10105100Y-6558300D02*
X10075100Y-6588300D01*
X10098500Y-5275400D02*
X10128500Y-5305400D01*
X10128500Y-5275400D02*
X10098500Y-5305400D01*
X10113200Y-5994400D02*
X10143200Y-6024400D01*
X10143200Y-5994400D02*
X10113200Y-6024400D01*
X10555600Y-6309700D02*
X10585600Y-6339700D01*
X10585600Y-6309700D02*
X10555600Y-6339700D01*
X11325000Y-6253900D02*
X11355000Y-6283900D01*
X11355000Y-6253900D02*
X11325000Y-6283900D01*
X11504500Y-6270500D02*
X11534500Y-6300500D01*
X11534500Y-6270500D02*
X11504500Y-6300500D01*
X12003100Y-7078400D02*
X12033100Y-7108400D01*
X12033100Y-7078400D02*
X12003100Y-7108400D01*
X12261200Y-7010000D02*
X12291200Y-7040000D01*
X12291200Y-7010000D02*
X12261200Y-7040000D01*
X12433700Y-6867400D02*
X12463700Y-6897400D01*
X12463700Y-6867400D02*
X12433700Y-6897400D01*
X12651200Y-6553000D02*
X12681200Y-6583000D01*
X12681200Y-6553000D02*
X12651200Y-6583000D01*
X12776968Y-7453331D02*
X12806968Y-7483331D01*
X12806968Y-7453331D02*
X12776968Y-7483331D01*
X12779900Y-7133500D02*
X12809900Y-7163500D01*
X12809900Y-7133500D02*
X12779900Y-7163500D01*
X13303200Y-6674300D02*
X13333200Y-6704300D01*
X13333200Y-6674300D02*
X13303200Y-6704300D01*
X13393800Y-7226600D02*
X13423800Y-7256600D01*
X13423800Y-7226600D02*
X13393800Y-7256600D01*
X13616300Y-7115900D02*
X13646300Y-7145900D01*
X13646300Y-7115900D02*
X13616300Y-7145900D01*
X13877300Y-6221300D02*
X13907300Y-6251300D01*
X13907300Y-6221300D02*
X13877300Y-6251300D01*
X14446500Y-7091500D02*
X14476500Y-7121500D01*
X14476500Y-7091500D02*
X14446500Y-7121500D01*
X14454000Y-7176000D02*
X14484000Y-7206000D01*
X14484000Y-7176000D02*
X14454000Y-7206000D01*
X14458500Y-7519800D02*
X14488500Y-7549800D01*
X14488500Y-7519800D02*
X14458500Y-7549800D01*
X14665000Y-6855000D02*
X14695000Y-6885000D01*
X14695000Y-6855000D02*
X14665000Y-6885000D01*
X14775000Y-5870000D02*
X14805000Y-5900000D01*
X14805000Y-5870000D02*
X14775000Y-5900000D01*
X15015000Y-6920000D02*
X15045000Y-6950000D01*
X15045000Y-6920000D02*
X15015000Y-6950000D01*
X15020000Y-6672500D02*
X15050000Y-6702500D01*
X15050000Y-6672500D02*
X15020000Y-6702500D01*
X15245000Y-6522500D02*
X15275000Y-6552500D01*
X15275000Y-6522500D02*
X15245000Y-6552500D01*
X15322500Y-6522500D02*
X15352500Y-6552500D01*
X15352500Y-6522500D02*
X15322500Y-6552500D01*
X15353000Y-7545000D02*
X15383000Y-7575000D01*
X15383000Y-7545000D02*
X15353000Y-7575000D01*
X15500000Y-5535200D02*
X15530000Y-5565200D01*
X15530000Y-5535200D02*
X15500000Y-5565200D01*
X15545000Y-7535000D02*
X15575000Y-7565000D01*
X15575000Y-7535000D02*
X15545000Y-7565000D01*
X15595000Y-6115000D02*
X15625000Y-6145000D01*
X15625000Y-6115000D02*
X15595000Y-6145000D01*
X15610000Y-6610000D02*
X15640000Y-6640000D01*
X15640000Y-6610000D02*
X15610000Y-6640000D01*
X15697500Y-7435000D02*
X15727500Y-7465000D01*
X15727500Y-7435000D02*
X15697500Y-7465000D01*
X15870000Y-6020000D02*
X15900000Y-6050000D01*
X15900000Y-6020000D02*
X15870000Y-6050000D01*
X16211000Y-4660600D02*
X16241000Y-4690600D01*
X16241000Y-4660600D02*
X16211000Y-4690600D01*
X16282500Y-5117500D02*
X16312500Y-5147500D01*
X16312500Y-5117500D02*
X16282500Y-5147500D01*
X16568200Y-4985000D02*
X16598200Y-5015000D01*
X16598200Y-4985000D02*
X16568200Y-5015000D01*
X9552300Y-4747000D02*
G75*
G02*
X9502300Y-4747000I-25000J0D01*
G01*
X9502300Y-4747000D02*
G75*
G02*
X9552300Y-4747000I25000J0D01*
G01*
X9553300Y-7195800D02*
G75*
G02*
X9503300Y-7195800I-25000J0D01*
G01*
X9503300Y-7195800D02*
G75*
G02*
X9553300Y-7195800I25000J0D01*
G01*
X10646800Y-6161000D02*
G75*
G02*
X10596800Y-6161000I-25000J0D01*
G01*
X10596800Y-6161000D02*
G75*
G02*
X10646800Y-6161000I25000J0D01*
G01*
X10907700Y-5705500D02*
G75*
G02*
X10857700Y-5705500I-25000J0D01*
G01*
X10857700Y-5705500D02*
G75*
G02*
X10907700Y-5705500I25000J0D01*
G01*
X11366100Y-5702500D02*
G75*
G02*
X11316100Y-5702500I-25000J0D01*
G01*
X11316100Y-5702500D02*
G75*
G02*
X11366100Y-5702500I25000J0D01*
G01*
X11770000Y-7460000D02*
G75*
G02*
X11720000Y-7460000I-25000J0D01*
G01*
X11720000Y-7460000D02*
G75*
G02*
X11770000Y-7460000I25000J0D01*
G01*
X11833000Y-7099800D02*
G75*
G02*
X11783000Y-7099800I-25000J0D01*
G01*
X11783000Y-7099800D02*
G75*
G02*
X11833000Y-7099800I25000J0D01*
G01*
X12181300Y-7032300D02*
G75*
G02*
X12131300Y-7032300I-25000J0D01*
G01*
X12131300Y-7032300D02*
G75*
G02*
X12181300Y-7032300I25000J0D01*
G01*
X12321600Y-6634200D02*
G75*
G02*
X12271600Y-6634200I-25000J0D01*
G01*
X12271600Y-6634200D02*
G75*
G02*
X12321600Y-6634200I25000J0D01*
G01*
X13718196Y-6740304D02*
G75*
G02*
X13668196Y-6740304I-25000J0D01*
G01*
X13668196Y-6740304D02*
G75*
G02*
X13718196Y-6740304I25000J0D01*
G01*
X13918000Y-5475500D02*
G75*
G02*
X13868000Y-5475500I-25000J0D01*
G01*
X13868000Y-5475500D02*
G75*
G02*
X13918000Y-5475500I25000J0D01*
G01*
X14408100Y-6044800D02*
G75*
G02*
X14358100Y-6044800I-25000J0D01*
G01*
X14358100Y-6044800D02*
G75*
G02*
X14408100Y-6044800I25000J0D01*
G01*
X14709500Y-6065500D02*
G75*
G02*
X14659500Y-6065500I-25000J0D01*
G01*
X14659500Y-6065500D02*
G75*
G02*
X14709500Y-6065500I25000J0D01*
G01*
X15165140Y-5639860D02*
G75*
G02*
X15115140Y-5639860I-25000J0D01*
G01*
X15115140Y-5639860D02*
G75*
G02*
X15165140Y-5639860I25000J0D01*
G01*
X15357200Y-5323100D02*
G75*
G02*
X15307200Y-5323100I-25000J0D01*
G01*
X15307200Y-5323100D02*
G75*
G02*
X15357200Y-5323100I25000J0D01*
G01*
X15360100Y-5447200D02*
G75*
G02*
X15310100Y-5447200I-25000J0D01*
G01*
X15310100Y-5447200D02*
G75*
G02*
X15360100Y-5447200I25000J0D01*
G01*
X16393400Y-7788800D02*
G75*
G02*
X16343400Y-7788800I-25000J0D01*
G01*
X16343400Y-7788800D02*
G75*
G02*
X16393400Y-7788800I25000J0D01*
G01*
X16540400Y-7679900D02*
G75*
G02*
X16490400Y-7679900I-25000J0D01*
G01*
X16490400Y-7679900D02*
G75*
G02*
X16540400Y-7679900I25000J0D01*
G01*
X16811500Y-4714699D02*
X16811500Y-4764701D01*
X16786499Y-4739700D02*
X16836501Y-4739700D01*
X16811500Y-5094699D02*
X16811500Y-5144701D01*
X16786499Y-5119700D02*
X16836501Y-5119700D01*
X12357713Y-7447613D02*
X12357713Y-7405187D01*
X12315287Y-7405187D01*
X12315287Y-7447613D01*
X12357713Y-7447613D01*
X12306500Y-7371400D02*
X12306500Y-7481400D01*
X12366500Y-7481400D02*
G75*
G02*
X12306500Y-7481400I-30000J0D01*
G01*
X12366500Y-7481400D02*
X12366500Y-7371400D01*
X12366500Y-7371400D02*
G75*
G03*
X12306500Y-7371400I-30000J0D01*
G01*
X12357713Y-7865613D02*
X12357713Y-7823187D01*
X12315287Y-7823187D01*
X12315287Y-7865613D01*
X12357713Y-7865613D01*
X12306500Y-7814400D02*
X12306500Y-7874400D01*
X12366500Y-7874400D02*
G75*
G02*
X12306500Y-7874400I-30000J0D01*
G01*
X12366500Y-7874400D02*
X12366500Y-7814400D01*
X12366500Y-7814400D02*
G75*
G03*
X12306500Y-7814400I-30000J0D01*
G01*
X13221713Y-7447613D02*
X13221713Y-7405187D01*
X13179287Y-7405187D01*
X13179287Y-7447613D01*
X13221713Y-7447613D01*
X13170500Y-7371400D02*
X13170500Y-7481400D01*
X13230500Y-7481400D02*
G75*
G02*
X13170500Y-7481400I-30000J0D01*
G01*
X13230500Y-7481400D02*
X13230500Y-7371400D01*
X13230500Y-7371400D02*
G75*
G03*
X13170500Y-7371400I-30000J0D01*
G01*
X13221713Y-7865613D02*
X13221713Y-7823187D01*
X13179287Y-7823187D01*
X13179287Y-7865613D01*
X13221713Y-7865613D01*
X13170500Y-7814400D02*
X13170500Y-7874400D01*
X13230500Y-7874400D02*
G75*
G02*
X13170500Y-7874400I-30000J0D01*
G01*
X13230500Y-7874400D02*
X13230500Y-7814400D01*
X13230500Y-7814400D02*
G75*
G03*
X13170500Y-7814400I-30000J0D01*
G01*
X10475000Y-7880000D02*
X10525000Y-7830000D01*
X10475000Y-7780000D01*
X10425000Y-7830000D01*
X10475000Y-7880000D01*
X10729000Y-7880000D02*
X10779000Y-7830000D01*
X10729000Y-7780000D01*
X10679000Y-7830000D01*
X10729000Y-7880000D01*
X10983000Y-7880000D02*
X11033000Y-7830000D01*
X10983000Y-7780000D01*
X10933000Y-7830000D01*
X10983000Y-7880000D01*
X11237000Y-7880000D02*
X11287000Y-7830000D01*
X11237000Y-7780000D01*
X11187000Y-7830000D01*
X11237000Y-7880000D01*
X11491000Y-7880000D02*
X11541000Y-7830000D01*
X11491000Y-7780000D01*
X11441000Y-7830000D01*
X11491000Y-7880000D01*
X11745000Y-7880000D02*
X11795000Y-7830000D01*
X11745000Y-7780000D01*
X11695000Y-7830000D01*
X11745000Y-7880000D01*
X11999000Y-7880000D02*
X12049000Y-7830000D01*
X11999000Y-7780000D01*
X11949000Y-7830000D01*
X11999000Y-7880000D01*
D13*
X8992800Y-4816500D02*
X9102800Y-4926500D01*
X9102800Y-4816500D02*
X8992800Y-4926500D01*
X9102800Y-4871500D02*
G75*
G02*
X8992800Y-4871500I-55000J0D01*
G01*
X8992800Y-4871500D02*
G75*
G02*
X9102800Y-4871500I55000J0D01*
G01*
X8992800Y-5196500D02*
X9102800Y-5306500D01*
X9102800Y-5196500D02*
X8992800Y-5306500D01*
X9102800Y-5251500D02*
G75*
G02*
X8992800Y-5251500I-55000J0D01*
G01*
X8992800Y-5251500D02*
G75*
G02*
X9102800Y-5251500I55000J0D01*
G01*
D12*
X8866199Y-8476484D02*
X8866199Y-8276484D01*
X8866199Y-8276484D02*
X8913818Y-8276484D01*
X8913818Y-8276484D02*
X8942389Y-8286008D01*
X8942389Y-8286008D02*
X8961437Y-8305055D01*
X8961437Y-8305055D02*
X8970961Y-8324103D01*
X8970961Y-8324103D02*
X8980484Y-8362198D01*
X8980484Y-8362198D02*
X8980484Y-8390770D01*
X8980484Y-8390770D02*
X8970961Y-8428865D01*
X8970961Y-8428865D02*
X8961437Y-8447912D01*
X8961437Y-8447912D02*
X8942389Y-8466960D01*
X8942389Y-8466960D02*
X8913818Y-8476484D01*
X8913818Y-8476484D02*
X8866199Y-8476484D01*
X9066199Y-8476484D02*
X9066199Y-8343150D01*
X9066199Y-8381246D02*
X9075722Y-8362198D01*
X9075722Y-8362198D02*
X9085246Y-8352674D01*
X9085246Y-8352674D02*
X9104294Y-8343150D01*
X9104294Y-8343150D02*
X9123342Y-8343150D01*
X9190008Y-8476484D02*
X9190008Y-8343150D01*
X9190008Y-8276484D02*
X9180484Y-8286008D01*
X9180484Y-8286008D02*
X9190008Y-8295531D01*
X9190008Y-8295531D02*
X9199532Y-8286008D01*
X9199532Y-8286008D02*
X9190008Y-8276484D01*
X9190008Y-8276484D02*
X9190008Y-8295531D01*
X9313818Y-8476484D02*
X9294770Y-8466960D01*
X9294770Y-8466960D02*
X9285246Y-8447912D01*
X9285246Y-8447912D02*
X9285246Y-8276484D01*
X9418580Y-8476484D02*
X9399532Y-8466960D01*
X9399532Y-8466960D02*
X9390008Y-8447912D01*
X9390008Y-8447912D02*
X9390008Y-8276484D01*
X9647151Y-8476484D02*
X9647151Y-8276484D01*
X9647151Y-8276484D02*
X9713818Y-8419341D01*
X9713818Y-8419341D02*
X9780484Y-8276484D01*
X9780484Y-8276484D02*
X9780484Y-8476484D01*
X9961437Y-8476484D02*
X9961437Y-8371722D01*
X9961437Y-8371722D02*
X9951913Y-8352674D01*
X9951913Y-8352674D02*
X9932865Y-8343150D01*
X9932865Y-8343150D02*
X9894770Y-8343150D01*
X9894770Y-8343150D02*
X9875722Y-8352674D01*
X9961437Y-8466960D02*
X9942389Y-8476484D01*
X9942389Y-8476484D02*
X9894770Y-8476484D01*
X9894770Y-8476484D02*
X9875722Y-8466960D01*
X9875722Y-8466960D02*
X9866199Y-8447912D01*
X9866199Y-8447912D02*
X9866199Y-8428865D01*
X9866199Y-8428865D02*
X9875722Y-8409817D01*
X9875722Y-8409817D02*
X9894770Y-8400293D01*
X9894770Y-8400293D02*
X9942389Y-8400293D01*
X9942389Y-8400293D02*
X9961437Y-8390770D01*
X10056675Y-8343150D02*
X10056675Y-8543150D01*
X10056675Y-8352674D02*
X10075722Y-8343150D01*
X10075722Y-8343150D02*
X10113818Y-8343150D01*
X10113818Y-8343150D02*
X10132865Y-8352674D01*
X10132865Y-8352674D02*
X10142389Y-8362198D01*
X10142389Y-8362198D02*
X10151913Y-8381246D01*
X10151913Y-8381246D02*
X10151913Y-8438389D01*
X10151913Y-8438389D02*
X10142389Y-8457436D01*
X10142389Y-8457436D02*
X10132865Y-8466960D01*
X10132865Y-8466960D02*
X10113818Y-8476484D01*
X10113818Y-8476484D02*
X10075722Y-8476484D01*
X10075722Y-8476484D02*
X10056675Y-8466960D01*
X10237627Y-8457436D02*
X10247151Y-8466960D01*
X10247151Y-8466960D02*
X10237627Y-8476484D01*
X10237627Y-8476484D02*
X10228103Y-8466960D01*
X10228103Y-8466960D02*
X10237627Y-8457436D01*
X10237627Y-8457436D02*
X10237627Y-8476484D01*
X10237627Y-8352674D02*
X10247151Y-8362198D01*
X10247151Y-8362198D02*
X10237627Y-8371722D01*
X10237627Y-8371722D02*
X10228103Y-8362198D01*
X10228103Y-8362198D02*
X10237627Y-8352674D01*
X10237627Y-8352674D02*
X10237627Y-8371722D01*
D10*
X8575422Y-8790000D02*
X8605422Y-8820000D01*
X8605422Y-8790000D02*
X8575422Y-8820000D01*
D12*
X8904294Y-8696484D02*
X8923342Y-8696484D01*
X8923342Y-8696484D02*
X8942389Y-8706008D01*
X8942389Y-8706008D02*
X8951913Y-8715531D01*
X8951913Y-8715531D02*
X8961437Y-8734579D01*
X8961437Y-8734579D02*
X8970961Y-8772674D01*
X8970961Y-8772674D02*
X8970961Y-8820293D01*
X8970961Y-8820293D02*
X8961437Y-8858389D01*
X8961437Y-8858389D02*
X8951913Y-8877436D01*
X8951913Y-8877436D02*
X8942389Y-8886960D01*
X8942389Y-8886960D02*
X8923342Y-8896484D01*
X8923342Y-8896484D02*
X8904294Y-8896484D01*
X8904294Y-8896484D02*
X8885246Y-8886960D01*
X8885246Y-8886960D02*
X8875722Y-8877436D01*
X8875722Y-8877436D02*
X8866199Y-8858389D01*
X8866199Y-8858389D02*
X8856675Y-8820293D01*
X8856675Y-8820293D02*
X8856675Y-8772674D01*
X8856675Y-8772674D02*
X8866199Y-8734579D01*
X8866199Y-8734579D02*
X8875722Y-8715531D01*
X8875722Y-8715531D02*
X8885246Y-8706008D01*
X8885246Y-8706008D02*
X8904294Y-8696484D01*
X9056675Y-8877436D02*
X9066199Y-8886960D01*
X9066199Y-8886960D02*
X9056675Y-8896484D01*
X9056675Y-8896484D02*
X9047151Y-8886960D01*
X9047151Y-8886960D02*
X9056675Y-8877436D01*
X9056675Y-8877436D02*
X9056675Y-8896484D01*
X9132865Y-8696484D02*
X9256675Y-8696484D01*
X9256675Y-8696484D02*
X9190008Y-8772674D01*
X9190008Y-8772674D02*
X9218580Y-8772674D01*
X9218580Y-8772674D02*
X9237627Y-8782198D01*
X9237627Y-8782198D02*
X9247151Y-8791722D01*
X9247151Y-8791722D02*
X9256675Y-8810770D01*
X9256675Y-8810770D02*
X9256675Y-8858389D01*
X9256675Y-8858389D02*
X9247151Y-8877436D01*
X9247151Y-8877436D02*
X9237627Y-8886960D01*
X9237627Y-8886960D02*
X9218580Y-8896484D01*
X9218580Y-8896484D02*
X9161437Y-8896484D01*
X9161437Y-8896484D02*
X9142389Y-8886960D01*
X9142389Y-8886960D02*
X9132865Y-8877436D01*
X9380484Y-8696484D02*
X9399532Y-8696484D01*
X9399532Y-8696484D02*
X9418580Y-8706008D01*
X9418580Y-8706008D02*
X9428103Y-8715531D01*
X9428103Y-8715531D02*
X9437627Y-8734579D01*
X9437627Y-8734579D02*
X9447151Y-8772674D01*
X9447151Y-8772674D02*
X9447151Y-8820293D01*
X9447151Y-8820293D02*
X9437627Y-8858389D01*
X9437627Y-8858389D02*
X9428103Y-8877436D01*
X9428103Y-8877436D02*
X9418580Y-8886960D01*
X9418580Y-8886960D02*
X9399532Y-8896484D01*
X9399532Y-8896484D02*
X9380484Y-8896484D01*
X9380484Y-8896484D02*
X9361437Y-8886960D01*
X9361437Y-8886960D02*
X9351913Y-8877436D01*
X9351913Y-8877436D02*
X9342389Y-8858389D01*
X9342389Y-8858389D02*
X9332865Y-8820293D01*
X9332865Y-8820293D02*
X9332865Y-8772674D01*
X9332865Y-8772674D02*
X9342389Y-8734579D01*
X9342389Y-8734579D02*
X9351913Y-8715531D01*
X9351913Y-8715531D02*
X9361437Y-8706008D01*
X9361437Y-8706008D02*
X9380484Y-8696484D01*
X9570961Y-8696484D02*
X9590008Y-8696484D01*
X9590008Y-8696484D02*
X9609056Y-8706008D01*
X9609056Y-8706008D02*
X9618580Y-8715531D01*
X9618580Y-8715531D02*
X9628103Y-8734579D01*
X9628103Y-8734579D02*
X9637627Y-8772674D01*
X9637627Y-8772674D02*
X9637627Y-8820293D01*
X9637627Y-8820293D02*
X9628103Y-8858389D01*
X9628103Y-8858389D02*
X9618580Y-8877436D01*
X9618580Y-8877436D02*
X9609056Y-8886960D01*
X9609056Y-8886960D02*
X9590008Y-8896484D01*
X9590008Y-8896484D02*
X9570961Y-8896484D01*
X9570961Y-8896484D02*
X9551913Y-8886960D01*
X9551913Y-8886960D02*
X9542389Y-8877436D01*
X9542389Y-8877436D02*
X9532865Y-8858389D01*
X9532865Y-8858389D02*
X9523342Y-8820293D01*
X9523342Y-8820293D02*
X9523342Y-8772674D01*
X9523342Y-8772674D02*
X9532865Y-8734579D01*
X9532865Y-8734579D02*
X9542389Y-8715531D01*
X9542389Y-8715531D02*
X9551913Y-8706008D01*
X9551913Y-8706008D02*
X9570961Y-8696484D01*
X9723342Y-8896484D02*
X9723342Y-8763150D01*
X9723342Y-8782198D02*
X9732865Y-8772674D01*
X9732865Y-8772674D02*
X9751913Y-8763150D01*
X9751913Y-8763150D02*
X9780484Y-8763150D01*
X9780484Y-8763150D02*
X9799532Y-8772674D01*
X9799532Y-8772674D02*
X9809056Y-8791722D01*
X9809056Y-8791722D02*
X9809056Y-8896484D01*
X9809056Y-8791722D02*
X9818580Y-8772674D01*
X9818580Y-8772674D02*
X9837627Y-8763150D01*
X9837627Y-8763150D02*
X9866199Y-8763150D01*
X9866199Y-8763150D02*
X9885246Y-8772674D01*
X9885246Y-8772674D02*
X9894770Y-8791722D01*
X9894770Y-8791722D02*
X9894770Y-8896484D01*
X9990008Y-8896484D02*
X9990008Y-8763150D01*
X9990008Y-8782198D02*
X9999532Y-8772674D01*
X9999532Y-8772674D02*
X10018580Y-8763150D01*
X10018580Y-8763150D02*
X10047151Y-8763150D01*
X10047151Y-8763150D02*
X10066199Y-8772674D01*
X10066199Y-8772674D02*
X10075723Y-8791722D01*
X10075723Y-8791722D02*
X10075723Y-8896484D01*
X10075723Y-8791722D02*
X10085246Y-8772674D01*
X10085246Y-8772674D02*
X10104294Y-8763150D01*
X10104294Y-8763150D02*
X10132865Y-8763150D01*
X10132865Y-8763150D02*
X10151913Y-8772674D01*
X10151913Y-8772674D02*
X10161437Y-8791722D01*
X10161437Y-8791722D02*
X10161437Y-8896484D01*
X10551913Y-8686960D02*
X10380485Y-8944103D01*
X10809056Y-8696484D02*
X10828104Y-8696484D01*
X10828104Y-8696484D02*
X10847151Y-8706008D01*
X10847151Y-8706008D02*
X10856675Y-8715531D01*
X10856675Y-8715531D02*
X10866199Y-8734579D01*
X10866199Y-8734579D02*
X10875723Y-8772674D01*
X10875723Y-8772674D02*
X10875723Y-8820293D01*
X10875723Y-8820293D02*
X10866199Y-8858389D01*
X10866199Y-8858389D02*
X10856675Y-8877436D01*
X10856675Y-8877436D02*
X10847151Y-8886960D01*
X10847151Y-8886960D02*
X10828104Y-8896484D01*
X10828104Y-8896484D02*
X10809056Y-8896484D01*
X10809056Y-8896484D02*
X10790008Y-8886960D01*
X10790008Y-8886960D02*
X10780485Y-8877436D01*
X10780485Y-8877436D02*
X10770961Y-8858389D01*
X10770961Y-8858389D02*
X10761437Y-8820293D01*
X10761437Y-8820293D02*
X10761437Y-8772674D01*
X10761437Y-8772674D02*
X10770961Y-8734579D01*
X10770961Y-8734579D02*
X10780485Y-8715531D01*
X10780485Y-8715531D02*
X10790008Y-8706008D01*
X10790008Y-8706008D02*
X10809056Y-8696484D01*
X10961437Y-8877436D02*
X10970961Y-8886960D01*
X10970961Y-8886960D02*
X10961437Y-8896484D01*
X10961437Y-8896484D02*
X10951913Y-8886960D01*
X10951913Y-8886960D02*
X10961437Y-8877436D01*
X10961437Y-8877436D02*
X10961437Y-8896484D01*
X11094770Y-8696484D02*
X11113818Y-8696484D01*
X11113818Y-8696484D02*
X11132866Y-8706008D01*
X11132866Y-8706008D02*
X11142389Y-8715531D01*
X11142389Y-8715531D02*
X11151913Y-8734579D01*
X11151913Y-8734579D02*
X11161437Y-8772674D01*
X11161437Y-8772674D02*
X11161437Y-8820293D01*
X11161437Y-8820293D02*
X11151913Y-8858389D01*
X11151913Y-8858389D02*
X11142389Y-8877436D01*
X11142389Y-8877436D02*
X11132866Y-8886960D01*
X11132866Y-8886960D02*
X11113818Y-8896484D01*
X11113818Y-8896484D02*
X11094770Y-8896484D01*
X11094770Y-8896484D02*
X11075723Y-8886960D01*
X11075723Y-8886960D02*
X11066199Y-8877436D01*
X11066199Y-8877436D02*
X11056675Y-8858389D01*
X11056675Y-8858389D02*
X11047151Y-8820293D01*
X11047151Y-8820293D02*
X11047151Y-8772674D01*
X11047151Y-8772674D02*
X11056675Y-8734579D01*
X11056675Y-8734579D02*
X11066199Y-8715531D01*
X11066199Y-8715531D02*
X11075723Y-8706008D01*
X11075723Y-8706008D02*
X11094770Y-8696484D01*
X11351913Y-8896484D02*
X11237627Y-8896484D01*
X11294770Y-8896484D02*
X11294770Y-8696484D01*
X11294770Y-8696484D02*
X11275723Y-8725055D01*
X11275723Y-8725055D02*
X11256675Y-8744103D01*
X11256675Y-8744103D02*
X11237627Y-8753627D01*
X11542389Y-8896484D02*
X11428104Y-8896484D01*
X11485246Y-8896484D02*
X11485246Y-8696484D01*
X11485246Y-8696484D02*
X11466199Y-8725055D01*
X11466199Y-8725055D02*
X11447151Y-8744103D01*
X11447151Y-8744103D02*
X11428104Y-8753627D01*
X11656675Y-8782198D02*
X11637627Y-8772674D01*
X11637627Y-8772674D02*
X11628104Y-8763150D01*
X11628104Y-8763150D02*
X11618580Y-8744103D01*
X11618580Y-8744103D02*
X11618580Y-8734579D01*
X11618580Y-8734579D02*
X11628104Y-8715531D01*
X11628104Y-8715531D02*
X11637627Y-8706008D01*
X11637627Y-8706008D02*
X11656675Y-8696484D01*
X11656675Y-8696484D02*
X11694770Y-8696484D01*
X11694770Y-8696484D02*
X11713818Y-8706008D01*
X11713818Y-8706008D02*
X11723342Y-8715531D01*
X11723342Y-8715531D02*
X11732865Y-8734579D01*
X11732865Y-8734579D02*
X11732865Y-8744103D01*
X11732865Y-8744103D02*
X11723342Y-8763150D01*
X11723342Y-8763150D02*
X11713818Y-8772674D01*
X11713818Y-8772674D02*
X11694770Y-8782198D01*
X11694770Y-8782198D02*
X11656675Y-8782198D01*
X11656675Y-8782198D02*
X11637627Y-8791722D01*
X11637627Y-8791722D02*
X11628104Y-8801246D01*
X11628104Y-8801246D02*
X11618580Y-8820293D01*
X11618580Y-8820293D02*
X11618580Y-8858389D01*
X11618580Y-8858389D02*
X11628104Y-8877436D01*
X11628104Y-8877436D02*
X11637627Y-8886960D01*
X11637627Y-8886960D02*
X11656675Y-8896484D01*
X11656675Y-8896484D02*
X11694770Y-8896484D01*
X11694770Y-8896484D02*
X11713818Y-8886960D01*
X11713818Y-8886960D02*
X11723342Y-8877436D01*
X11723342Y-8877436D02*
X11732865Y-8858389D01*
X11732865Y-8858389D02*
X11732865Y-8820293D01*
X11732865Y-8820293D02*
X11723342Y-8801246D01*
X11723342Y-8801246D02*
X11713818Y-8791722D01*
X11713818Y-8791722D02*
X11694770Y-8782198D01*
X11809056Y-8696484D02*
X11809056Y-8734579D01*
X11885246Y-8696484D02*
X11885246Y-8734579D01*
X12180485Y-8972674D02*
X12170961Y-8963150D01*
X12170961Y-8963150D02*
X12151913Y-8934579D01*
X12151913Y-8934579D02*
X12142389Y-8915531D01*
X12142389Y-8915531D02*
X12132866Y-8886960D01*
X12132866Y-8886960D02*
X12123342Y-8839341D01*
X12123342Y-8839341D02*
X12123342Y-8801246D01*
X12123342Y-8801246D02*
X12132866Y-8753627D01*
X12132866Y-8753627D02*
X12142389Y-8725055D01*
X12142389Y-8725055D02*
X12151913Y-8706008D01*
X12151913Y-8706008D02*
X12170961Y-8677436D01*
X12170961Y-8677436D02*
X12180485Y-8667912D01*
X12351913Y-8696484D02*
X12256675Y-8696484D01*
X12256675Y-8696484D02*
X12247151Y-8791722D01*
X12247151Y-8791722D02*
X12256675Y-8782198D01*
X12256675Y-8782198D02*
X12275723Y-8772674D01*
X12275723Y-8772674D02*
X12323342Y-8772674D01*
X12323342Y-8772674D02*
X12342389Y-8782198D01*
X12342389Y-8782198D02*
X12351913Y-8791722D01*
X12351913Y-8791722D02*
X12361437Y-8810770D01*
X12361437Y-8810770D02*
X12361437Y-8858389D01*
X12361437Y-8858389D02*
X12351913Y-8877436D01*
X12351913Y-8877436D02*
X12342389Y-8886960D01*
X12342389Y-8886960D02*
X12323342Y-8896484D01*
X12323342Y-8896484D02*
X12275723Y-8896484D01*
X12275723Y-8896484D02*
X12256675Y-8886960D01*
X12256675Y-8886960D02*
X12247151Y-8877436D01*
X12532866Y-8696484D02*
X12494770Y-8696484D01*
X12494770Y-8696484D02*
X12475723Y-8706008D01*
X12475723Y-8706008D02*
X12466199Y-8715531D01*
X12466199Y-8715531D02*
X12447151Y-8744103D01*
X12447151Y-8744103D02*
X12437627Y-8782198D01*
X12437627Y-8782198D02*
X12437627Y-8858389D01*
X12437627Y-8858389D02*
X12447151Y-8877436D01*
X12447151Y-8877436D02*
X12456675Y-8886960D01*
X12456675Y-8886960D02*
X12475723Y-8896484D01*
X12475723Y-8896484D02*
X12513818Y-8896484D01*
X12513818Y-8896484D02*
X12532866Y-8886960D01*
X12532866Y-8886960D02*
X12542389Y-8877436D01*
X12542389Y-8877436D02*
X12551913Y-8858389D01*
X12551913Y-8858389D02*
X12551913Y-8810770D01*
X12551913Y-8810770D02*
X12542389Y-8791722D01*
X12542389Y-8791722D02*
X12532866Y-8782198D01*
X12532866Y-8782198D02*
X12513818Y-8772674D01*
X12513818Y-8772674D02*
X12475723Y-8772674D01*
X12475723Y-8772674D02*
X12456675Y-8782198D01*
X12456675Y-8782198D02*
X12447151Y-8791722D01*
X12447151Y-8791722D02*
X12437627Y-8810770D01*
X12790008Y-8896484D02*
X12790008Y-8696484D01*
X12875723Y-8896484D02*
X12875723Y-8791722D01*
X12875723Y-8791722D02*
X12866199Y-8772674D01*
X12866199Y-8772674D02*
X12847151Y-8763150D01*
X12847151Y-8763150D02*
X12818580Y-8763150D01*
X12818580Y-8763150D02*
X12799532Y-8772674D01*
X12799532Y-8772674D02*
X12790008Y-8782198D01*
X12999532Y-8896484D02*
X12980485Y-8886960D01*
X12980485Y-8886960D02*
X12970961Y-8877436D01*
X12970961Y-8877436D02*
X12961437Y-8858389D01*
X12961437Y-8858389D02*
X12961437Y-8801246D01*
X12961437Y-8801246D02*
X12970961Y-8782198D01*
X12970961Y-8782198D02*
X12980485Y-8772674D01*
X12980485Y-8772674D02*
X12999532Y-8763150D01*
X12999532Y-8763150D02*
X13028104Y-8763150D01*
X13028104Y-8763150D02*
X13047151Y-8772674D01*
X13047151Y-8772674D02*
X13056675Y-8782198D01*
X13056675Y-8782198D02*
X13066199Y-8801246D01*
X13066199Y-8801246D02*
X13066199Y-8858389D01*
X13066199Y-8858389D02*
X13056675Y-8877436D01*
X13056675Y-8877436D02*
X13047151Y-8886960D01*
X13047151Y-8886960D02*
X13028104Y-8896484D01*
X13028104Y-8896484D02*
X12999532Y-8896484D01*
X13180485Y-8896484D02*
X13161437Y-8886960D01*
X13161437Y-8886960D02*
X13151913Y-8867912D01*
X13151913Y-8867912D02*
X13151913Y-8696484D01*
X13332866Y-8886960D02*
X13313818Y-8896484D01*
X13313818Y-8896484D02*
X13275723Y-8896484D01*
X13275723Y-8896484D02*
X13256675Y-8886960D01*
X13256675Y-8886960D02*
X13247151Y-8867912D01*
X13247151Y-8867912D02*
X13247151Y-8791722D01*
X13247151Y-8791722D02*
X13256675Y-8772674D01*
X13256675Y-8772674D02*
X13275723Y-8763150D01*
X13275723Y-8763150D02*
X13313818Y-8763150D01*
X13313818Y-8763150D02*
X13332866Y-8772674D01*
X13332866Y-8772674D02*
X13342389Y-8791722D01*
X13342389Y-8791722D02*
X13342389Y-8810770D01*
X13342389Y-8810770D02*
X13247151Y-8829817D01*
X13418580Y-8886960D02*
X13437628Y-8896484D01*
X13437628Y-8896484D02*
X13475723Y-8896484D01*
X13475723Y-8896484D02*
X13494770Y-8886960D01*
X13494770Y-8886960D02*
X13504294Y-8867912D01*
X13504294Y-8867912D02*
X13504294Y-8858389D01*
X13504294Y-8858389D02*
X13494770Y-8839341D01*
X13494770Y-8839341D02*
X13475723Y-8829817D01*
X13475723Y-8829817D02*
X13447151Y-8829817D01*
X13447151Y-8829817D02*
X13428104Y-8820293D01*
X13428104Y-8820293D02*
X13418580Y-8801246D01*
X13418580Y-8801246D02*
X13418580Y-8791722D01*
X13418580Y-8791722D02*
X13428104Y-8772674D01*
X13428104Y-8772674D02*
X13447151Y-8763150D01*
X13447151Y-8763150D02*
X13475723Y-8763150D01*
X13475723Y-8763150D02*
X13494770Y-8772674D01*
X13570961Y-8972674D02*
X13580485Y-8963150D01*
X13580485Y-8963150D02*
X13599532Y-8934579D01*
X13599532Y-8934579D02*
X13609056Y-8915531D01*
X13609056Y-8915531D02*
X13618580Y-8886960D01*
X13618580Y-8886960D02*
X13628104Y-8839341D01*
X13628104Y-8839341D02*
X13628104Y-8801246D01*
X13628104Y-8801246D02*
X13618580Y-8753627D01*
X13618580Y-8753627D02*
X13609056Y-8725055D01*
X13609056Y-8725055D02*
X13599532Y-8706008D01*
X13599532Y-8706008D02*
X13580485Y-8677436D01*
X13580485Y-8677436D02*
X13570961Y-8667912D01*
D10*
X8605422Y-9069000D02*
G75*
G02*
X8555422Y-9069000I-25000J0D01*
G01*
X8555422Y-9069000D02*
G75*
G02*
X8605422Y-9069000I25000J0D01*
G01*
D12*
X8904294Y-8960484D02*
X8923342Y-8960484D01*
X8923342Y-8960484D02*
X8942389Y-8970008D01*
X8942389Y-8970008D02*
X8951913Y-8979531D01*
X8951913Y-8979531D02*
X8961437Y-8998579D01*
X8961437Y-8998579D02*
X8970961Y-9036674D01*
X8970961Y-9036674D02*
X8970961Y-9084293D01*
X8970961Y-9084293D02*
X8961437Y-9122389D01*
X8961437Y-9122389D02*
X8951913Y-9141436D01*
X8951913Y-9141436D02*
X8942389Y-9150960D01*
X8942389Y-9150960D02*
X8923342Y-9160484D01*
X8923342Y-9160484D02*
X8904294Y-9160484D01*
X8904294Y-9160484D02*
X8885246Y-9150960D01*
X8885246Y-9150960D02*
X8875722Y-9141436D01*
X8875722Y-9141436D02*
X8866199Y-9122389D01*
X8866199Y-9122389D02*
X8856675Y-9084293D01*
X8856675Y-9084293D02*
X8856675Y-9036674D01*
X8856675Y-9036674D02*
X8866199Y-8998579D01*
X8866199Y-8998579D02*
X8875722Y-8979531D01*
X8875722Y-8979531D02*
X8885246Y-8970008D01*
X8885246Y-8970008D02*
X8904294Y-8960484D01*
X9056675Y-9141436D02*
X9066199Y-9150960D01*
X9066199Y-9150960D02*
X9056675Y-9160484D01*
X9056675Y-9160484D02*
X9047151Y-9150960D01*
X9047151Y-9150960D02*
X9056675Y-9141436D01*
X9056675Y-9141436D02*
X9056675Y-9160484D01*
X9247151Y-8960484D02*
X9151913Y-8960484D01*
X9151913Y-8960484D02*
X9142389Y-9055722D01*
X9142389Y-9055722D02*
X9151913Y-9046198D01*
X9151913Y-9046198D02*
X9170961Y-9036674D01*
X9170961Y-9036674D02*
X9218580Y-9036674D01*
X9218580Y-9036674D02*
X9237627Y-9046198D01*
X9237627Y-9046198D02*
X9247151Y-9055722D01*
X9247151Y-9055722D02*
X9256675Y-9074770D01*
X9256675Y-9074770D02*
X9256675Y-9122389D01*
X9256675Y-9122389D02*
X9247151Y-9141436D01*
X9247151Y-9141436D02*
X9237627Y-9150960D01*
X9237627Y-9150960D02*
X9218580Y-9160484D01*
X9218580Y-9160484D02*
X9170961Y-9160484D01*
X9170961Y-9160484D02*
X9151913Y-9150960D01*
X9151913Y-9150960D02*
X9142389Y-9141436D01*
X9380484Y-8960484D02*
X9399532Y-8960484D01*
X9399532Y-8960484D02*
X9418580Y-8970008D01*
X9418580Y-8970008D02*
X9428103Y-8979531D01*
X9428103Y-8979531D02*
X9437627Y-8998579D01*
X9437627Y-8998579D02*
X9447151Y-9036674D01*
X9447151Y-9036674D02*
X9447151Y-9084293D01*
X9447151Y-9084293D02*
X9437627Y-9122389D01*
X9437627Y-9122389D02*
X9428103Y-9141436D01*
X9428103Y-9141436D02*
X9418580Y-9150960D01*
X9418580Y-9150960D02*
X9399532Y-9160484D01*
X9399532Y-9160484D02*
X9380484Y-9160484D01*
X9380484Y-9160484D02*
X9361437Y-9150960D01*
X9361437Y-9150960D02*
X9351913Y-9141436D01*
X9351913Y-9141436D02*
X9342389Y-9122389D01*
X9342389Y-9122389D02*
X9332865Y-9084293D01*
X9332865Y-9084293D02*
X9332865Y-9036674D01*
X9332865Y-9036674D02*
X9342389Y-8998579D01*
X9342389Y-8998579D02*
X9351913Y-8979531D01*
X9351913Y-8979531D02*
X9361437Y-8970008D01*
X9361437Y-8970008D02*
X9380484Y-8960484D01*
X9570961Y-8960484D02*
X9590008Y-8960484D01*
X9590008Y-8960484D02*
X9609056Y-8970008D01*
X9609056Y-8970008D02*
X9618580Y-8979531D01*
X9618580Y-8979531D02*
X9628103Y-8998579D01*
X9628103Y-8998579D02*
X9637627Y-9036674D01*
X9637627Y-9036674D02*
X9637627Y-9084293D01*
X9637627Y-9084293D02*
X9628103Y-9122389D01*
X9628103Y-9122389D02*
X9618580Y-9141436D01*
X9618580Y-9141436D02*
X9609056Y-9150960D01*
X9609056Y-9150960D02*
X9590008Y-9160484D01*
X9590008Y-9160484D02*
X9570961Y-9160484D01*
X9570961Y-9160484D02*
X9551913Y-9150960D01*
X9551913Y-9150960D02*
X9542389Y-9141436D01*
X9542389Y-9141436D02*
X9532865Y-9122389D01*
X9532865Y-9122389D02*
X9523342Y-9084293D01*
X9523342Y-9084293D02*
X9523342Y-9036674D01*
X9523342Y-9036674D02*
X9532865Y-8998579D01*
X9532865Y-8998579D02*
X9542389Y-8979531D01*
X9542389Y-8979531D02*
X9551913Y-8970008D01*
X9551913Y-8970008D02*
X9570961Y-8960484D01*
X9723342Y-9160484D02*
X9723342Y-9027150D01*
X9723342Y-9046198D02*
X9732865Y-9036674D01*
X9732865Y-9036674D02*
X9751913Y-9027150D01*
X9751913Y-9027150D02*
X9780484Y-9027150D01*
X9780484Y-9027150D02*
X9799532Y-9036674D01*
X9799532Y-9036674D02*
X9809056Y-9055722D01*
X9809056Y-9055722D02*
X9809056Y-9160484D01*
X9809056Y-9055722D02*
X9818580Y-9036674D01*
X9818580Y-9036674D02*
X9837627Y-9027150D01*
X9837627Y-9027150D02*
X9866199Y-9027150D01*
X9866199Y-9027150D02*
X9885246Y-9036674D01*
X9885246Y-9036674D02*
X9894770Y-9055722D01*
X9894770Y-9055722D02*
X9894770Y-9160484D01*
X9990008Y-9160484D02*
X9990008Y-9027150D01*
X9990008Y-9046198D02*
X9999532Y-9036674D01*
X9999532Y-9036674D02*
X10018580Y-9027150D01*
X10018580Y-9027150D02*
X10047151Y-9027150D01*
X10047151Y-9027150D02*
X10066199Y-9036674D01*
X10066199Y-9036674D02*
X10075723Y-9055722D01*
X10075723Y-9055722D02*
X10075723Y-9160484D01*
X10075723Y-9055722D02*
X10085246Y-9036674D01*
X10085246Y-9036674D02*
X10104294Y-9027150D01*
X10104294Y-9027150D02*
X10132865Y-9027150D01*
X10132865Y-9027150D02*
X10151913Y-9036674D01*
X10151913Y-9036674D02*
X10161437Y-9055722D01*
X10161437Y-9055722D02*
X10161437Y-9160484D01*
X10551913Y-8950960D02*
X10380485Y-9208103D01*
X10809056Y-8960484D02*
X10828104Y-8960484D01*
X10828104Y-8960484D02*
X10847151Y-8970008D01*
X10847151Y-8970008D02*
X10856675Y-8979531D01*
X10856675Y-8979531D02*
X10866199Y-8998579D01*
X10866199Y-8998579D02*
X10875723Y-9036674D01*
X10875723Y-9036674D02*
X10875723Y-9084293D01*
X10875723Y-9084293D02*
X10866199Y-9122389D01*
X10866199Y-9122389D02*
X10856675Y-9141436D01*
X10856675Y-9141436D02*
X10847151Y-9150960D01*
X10847151Y-9150960D02*
X10828104Y-9160484D01*
X10828104Y-9160484D02*
X10809056Y-9160484D01*
X10809056Y-9160484D02*
X10790008Y-9150960D01*
X10790008Y-9150960D02*
X10780485Y-9141436D01*
X10780485Y-9141436D02*
X10770961Y-9122389D01*
X10770961Y-9122389D02*
X10761437Y-9084293D01*
X10761437Y-9084293D02*
X10761437Y-9036674D01*
X10761437Y-9036674D02*
X10770961Y-8998579D01*
X10770961Y-8998579D02*
X10780485Y-8979531D01*
X10780485Y-8979531D02*
X10790008Y-8970008D01*
X10790008Y-8970008D02*
X10809056Y-8960484D01*
X10961437Y-9141436D02*
X10970961Y-9150960D01*
X10970961Y-9150960D02*
X10961437Y-9160484D01*
X10961437Y-9160484D02*
X10951913Y-9150960D01*
X10951913Y-9150960D02*
X10961437Y-9141436D01*
X10961437Y-9141436D02*
X10961437Y-9160484D01*
X11094770Y-8960484D02*
X11113818Y-8960484D01*
X11113818Y-8960484D02*
X11132866Y-8970008D01*
X11132866Y-8970008D02*
X11142389Y-8979531D01*
X11142389Y-8979531D02*
X11151913Y-8998579D01*
X11151913Y-8998579D02*
X11161437Y-9036674D01*
X11161437Y-9036674D02*
X11161437Y-9084293D01*
X11161437Y-9084293D02*
X11151913Y-9122389D01*
X11151913Y-9122389D02*
X11142389Y-9141436D01*
X11142389Y-9141436D02*
X11132866Y-9150960D01*
X11132866Y-9150960D02*
X11113818Y-9160484D01*
X11113818Y-9160484D02*
X11094770Y-9160484D01*
X11094770Y-9160484D02*
X11075723Y-9150960D01*
X11075723Y-9150960D02*
X11066199Y-9141436D01*
X11066199Y-9141436D02*
X11056675Y-9122389D01*
X11056675Y-9122389D02*
X11047151Y-9084293D01*
X11047151Y-9084293D02*
X11047151Y-9036674D01*
X11047151Y-9036674D02*
X11056675Y-8998579D01*
X11056675Y-8998579D02*
X11066199Y-8979531D01*
X11066199Y-8979531D02*
X11075723Y-8970008D01*
X11075723Y-8970008D02*
X11094770Y-8960484D01*
X11351913Y-9160484D02*
X11237627Y-9160484D01*
X11294770Y-9160484D02*
X11294770Y-8960484D01*
X11294770Y-8960484D02*
X11275723Y-8989055D01*
X11275723Y-8989055D02*
X11256675Y-9008103D01*
X11256675Y-9008103D02*
X11237627Y-9017627D01*
X11447151Y-9160484D02*
X11485246Y-9160484D01*
X11485246Y-9160484D02*
X11504294Y-9150960D01*
X11504294Y-9150960D02*
X11513818Y-9141436D01*
X11513818Y-9141436D02*
X11532865Y-9112865D01*
X11532865Y-9112865D02*
X11542389Y-9074770D01*
X11542389Y-9074770D02*
X11542389Y-8998579D01*
X11542389Y-8998579D02*
X11532865Y-8979531D01*
X11532865Y-8979531D02*
X11523342Y-8970008D01*
X11523342Y-8970008D02*
X11504294Y-8960484D01*
X11504294Y-8960484D02*
X11466199Y-8960484D01*
X11466199Y-8960484D02*
X11447151Y-8970008D01*
X11447151Y-8970008D02*
X11437627Y-8979531D01*
X11437627Y-8979531D02*
X11428104Y-8998579D01*
X11428104Y-8998579D02*
X11428104Y-9046198D01*
X11428104Y-9046198D02*
X11437627Y-9065246D01*
X11437627Y-9065246D02*
X11447151Y-9074770D01*
X11447151Y-9074770D02*
X11466199Y-9084293D01*
X11466199Y-9084293D02*
X11504294Y-9084293D01*
X11504294Y-9084293D02*
X11523342Y-9074770D01*
X11523342Y-9074770D02*
X11532865Y-9065246D01*
X11532865Y-9065246D02*
X11542389Y-9046198D01*
X11609056Y-8960484D02*
X11742389Y-8960484D01*
X11742389Y-8960484D02*
X11656675Y-9160484D01*
X11809056Y-8960484D02*
X11809056Y-8998579D01*
X11885246Y-8960484D02*
X11885246Y-8998579D01*
X12180485Y-9236674D02*
X12170961Y-9227150D01*
X12170961Y-9227150D02*
X12151913Y-9198579D01*
X12151913Y-9198579D02*
X12142389Y-9179531D01*
X12142389Y-9179531D02*
X12132866Y-9150960D01*
X12132866Y-9150960D02*
X12123342Y-9103341D01*
X12123342Y-9103341D02*
X12123342Y-9065246D01*
X12123342Y-9065246D02*
X12132866Y-9017627D01*
X12132866Y-9017627D02*
X12142389Y-8989055D01*
X12142389Y-8989055D02*
X12151913Y-8970008D01*
X12151913Y-8970008D02*
X12170961Y-8941436D01*
X12170961Y-8941436D02*
X12180485Y-8931912D01*
X12361437Y-9160484D02*
X12247151Y-9160484D01*
X12304294Y-9160484D02*
X12304294Y-8960484D01*
X12304294Y-8960484D02*
X12285246Y-8989055D01*
X12285246Y-8989055D02*
X12266199Y-9008103D01*
X12266199Y-9008103D02*
X12247151Y-9017627D01*
X12475723Y-9046198D02*
X12456675Y-9036674D01*
X12456675Y-9036674D02*
X12447151Y-9027150D01*
X12447151Y-9027150D02*
X12437627Y-9008103D01*
X12437627Y-9008103D02*
X12437627Y-8998579D01*
X12437627Y-8998579D02*
X12447151Y-8979531D01*
X12447151Y-8979531D02*
X12456675Y-8970008D01*
X12456675Y-8970008D02*
X12475723Y-8960484D01*
X12475723Y-8960484D02*
X12513818Y-8960484D01*
X12513818Y-8960484D02*
X12532866Y-8970008D01*
X12532866Y-8970008D02*
X12542389Y-8979531D01*
X12542389Y-8979531D02*
X12551913Y-8998579D01*
X12551913Y-8998579D02*
X12551913Y-9008103D01*
X12551913Y-9008103D02*
X12542389Y-9027150D01*
X12542389Y-9027150D02*
X12532866Y-9036674D01*
X12532866Y-9036674D02*
X12513818Y-9046198D01*
X12513818Y-9046198D02*
X12475723Y-9046198D01*
X12475723Y-9046198D02*
X12456675Y-9055722D01*
X12456675Y-9055722D02*
X12447151Y-9065246D01*
X12447151Y-9065246D02*
X12437627Y-9084293D01*
X12437627Y-9084293D02*
X12437627Y-9122389D01*
X12437627Y-9122389D02*
X12447151Y-9141436D01*
X12447151Y-9141436D02*
X12456675Y-9150960D01*
X12456675Y-9150960D02*
X12475723Y-9160484D01*
X12475723Y-9160484D02*
X12513818Y-9160484D01*
X12513818Y-9160484D02*
X12532866Y-9150960D01*
X12532866Y-9150960D02*
X12542389Y-9141436D01*
X12542389Y-9141436D02*
X12551913Y-9122389D01*
X12551913Y-9122389D02*
X12551913Y-9084293D01*
X12551913Y-9084293D02*
X12542389Y-9065246D01*
X12542389Y-9065246D02*
X12532866Y-9055722D01*
X12532866Y-9055722D02*
X12513818Y-9046198D01*
X12790008Y-9160484D02*
X12790008Y-8960484D01*
X12875723Y-9160484D02*
X12875723Y-9055722D01*
X12875723Y-9055722D02*
X12866199Y-9036674D01*
X12866199Y-9036674D02*
X12847151Y-9027150D01*
X12847151Y-9027150D02*
X12818580Y-9027150D01*
X12818580Y-9027150D02*
X12799532Y-9036674D01*
X12799532Y-9036674D02*
X12790008Y-9046198D01*
X12999532Y-9160484D02*
X12980485Y-9150960D01*
X12980485Y-9150960D02*
X12970961Y-9141436D01*
X12970961Y-9141436D02*
X12961437Y-9122389D01*
X12961437Y-9122389D02*
X12961437Y-9065246D01*
X12961437Y-9065246D02*
X12970961Y-9046198D01*
X12970961Y-9046198D02*
X12980485Y-9036674D01*
X12980485Y-9036674D02*
X12999532Y-9027150D01*
X12999532Y-9027150D02*
X13028104Y-9027150D01*
X13028104Y-9027150D02*
X13047151Y-9036674D01*
X13047151Y-9036674D02*
X13056675Y-9046198D01*
X13056675Y-9046198D02*
X13066199Y-9065246D01*
X13066199Y-9065246D02*
X13066199Y-9122389D01*
X13066199Y-9122389D02*
X13056675Y-9141436D01*
X13056675Y-9141436D02*
X13047151Y-9150960D01*
X13047151Y-9150960D02*
X13028104Y-9160484D01*
X13028104Y-9160484D02*
X12999532Y-9160484D01*
X13180485Y-9160484D02*
X13161437Y-9150960D01*
X13161437Y-9150960D02*
X13151913Y-9131912D01*
X13151913Y-9131912D02*
X13151913Y-8960484D01*
X13332866Y-9150960D02*
X13313818Y-9160484D01*
X13313818Y-9160484D02*
X13275723Y-9160484D01*
X13275723Y-9160484D02*
X13256675Y-9150960D01*
X13256675Y-9150960D02*
X13247151Y-9131912D01*
X13247151Y-9131912D02*
X13247151Y-9055722D01*
X13247151Y-9055722D02*
X13256675Y-9036674D01*
X13256675Y-9036674D02*
X13275723Y-9027150D01*
X13275723Y-9027150D02*
X13313818Y-9027150D01*
X13313818Y-9027150D02*
X13332866Y-9036674D01*
X13332866Y-9036674D02*
X13342389Y-9055722D01*
X13342389Y-9055722D02*
X13342389Y-9074770D01*
X13342389Y-9074770D02*
X13247151Y-9093817D01*
X13418580Y-9150960D02*
X13437628Y-9160484D01*
X13437628Y-9160484D02*
X13475723Y-9160484D01*
X13475723Y-9160484D02*
X13494770Y-9150960D01*
X13494770Y-9150960D02*
X13504294Y-9131912D01*
X13504294Y-9131912D02*
X13504294Y-9122389D01*
X13504294Y-9122389D02*
X13494770Y-9103341D01*
X13494770Y-9103341D02*
X13475723Y-9093817D01*
X13475723Y-9093817D02*
X13447151Y-9093817D01*
X13447151Y-9093817D02*
X13428104Y-9084293D01*
X13428104Y-9084293D02*
X13418580Y-9065246D01*
X13418580Y-9065246D02*
X13418580Y-9055722D01*
X13418580Y-9055722D02*
X13428104Y-9036674D01*
X13428104Y-9036674D02*
X13447151Y-9027150D01*
X13447151Y-9027150D02*
X13475723Y-9027150D01*
X13475723Y-9027150D02*
X13494770Y-9036674D01*
X13570961Y-9236674D02*
X13580485Y-9227150D01*
X13580485Y-9227150D02*
X13599532Y-9198579D01*
X13599532Y-9198579D02*
X13609056Y-9179531D01*
X13609056Y-9179531D02*
X13618580Y-9150960D01*
X13618580Y-9150960D02*
X13628104Y-9103341D01*
X13628104Y-9103341D02*
X13628104Y-9065246D01*
X13628104Y-9065246D02*
X13618580Y-9017627D01*
X13618580Y-9017627D02*
X13609056Y-8989055D01*
X13609056Y-8989055D02*
X13599532Y-8970008D01*
X13599532Y-8970008D02*
X13580485Y-8941436D01*
X13580485Y-8941436D02*
X13570961Y-8931912D01*
D10*
X8580421Y-9307999D02*
X8580421Y-9358001D01*
X8555419Y-9333000D02*
X8605422Y-9333000D01*
D12*
X8904294Y-9224484D02*
X8923342Y-9224484D01*
X8923342Y-9224484D02*
X8942389Y-9234008D01*
X8942389Y-9234008D02*
X8951913Y-9243531D01*
X8951913Y-9243531D02*
X8961437Y-9262579D01*
X8961437Y-9262579D02*
X8970961Y-9300674D01*
X8970961Y-9300674D02*
X8970961Y-9348293D01*
X8970961Y-9348293D02*
X8961437Y-9386389D01*
X8961437Y-9386389D02*
X8951913Y-9405436D01*
X8951913Y-9405436D02*
X8942389Y-9414960D01*
X8942389Y-9414960D02*
X8923342Y-9424484D01*
X8923342Y-9424484D02*
X8904294Y-9424484D01*
X8904294Y-9424484D02*
X8885246Y-9414960D01*
X8885246Y-9414960D02*
X8875722Y-9405436D01*
X8875722Y-9405436D02*
X8866199Y-9386389D01*
X8866199Y-9386389D02*
X8856675Y-9348293D01*
X8856675Y-9348293D02*
X8856675Y-9300674D01*
X8856675Y-9300674D02*
X8866199Y-9262579D01*
X8866199Y-9262579D02*
X8875722Y-9243531D01*
X8875722Y-9243531D02*
X8885246Y-9234008D01*
X8885246Y-9234008D02*
X8904294Y-9224484D01*
X9056675Y-9405436D02*
X9066199Y-9414960D01*
X9066199Y-9414960D02*
X9056675Y-9424484D01*
X9056675Y-9424484D02*
X9047151Y-9414960D01*
X9047151Y-9414960D02*
X9056675Y-9405436D01*
X9056675Y-9405436D02*
X9056675Y-9424484D01*
X9247151Y-9224484D02*
X9151913Y-9224484D01*
X9151913Y-9224484D02*
X9142389Y-9319722D01*
X9142389Y-9319722D02*
X9151913Y-9310198D01*
X9151913Y-9310198D02*
X9170961Y-9300674D01*
X9170961Y-9300674D02*
X9218580Y-9300674D01*
X9218580Y-9300674D02*
X9237627Y-9310198D01*
X9237627Y-9310198D02*
X9247151Y-9319722D01*
X9247151Y-9319722D02*
X9256675Y-9338770D01*
X9256675Y-9338770D02*
X9256675Y-9386389D01*
X9256675Y-9386389D02*
X9247151Y-9405436D01*
X9247151Y-9405436D02*
X9237627Y-9414960D01*
X9237627Y-9414960D02*
X9218580Y-9424484D01*
X9218580Y-9424484D02*
X9170961Y-9424484D01*
X9170961Y-9424484D02*
X9151913Y-9414960D01*
X9151913Y-9414960D02*
X9142389Y-9405436D01*
X9380484Y-9224484D02*
X9399532Y-9224484D01*
X9399532Y-9224484D02*
X9418580Y-9234008D01*
X9418580Y-9234008D02*
X9428103Y-9243531D01*
X9428103Y-9243531D02*
X9437627Y-9262579D01*
X9437627Y-9262579D02*
X9447151Y-9300674D01*
X9447151Y-9300674D02*
X9447151Y-9348293D01*
X9447151Y-9348293D02*
X9437627Y-9386389D01*
X9437627Y-9386389D02*
X9428103Y-9405436D01*
X9428103Y-9405436D02*
X9418580Y-9414960D01*
X9418580Y-9414960D02*
X9399532Y-9424484D01*
X9399532Y-9424484D02*
X9380484Y-9424484D01*
X9380484Y-9424484D02*
X9361437Y-9414960D01*
X9361437Y-9414960D02*
X9351913Y-9405436D01*
X9351913Y-9405436D02*
X9342389Y-9386389D01*
X9342389Y-9386389D02*
X9332865Y-9348293D01*
X9332865Y-9348293D02*
X9332865Y-9300674D01*
X9332865Y-9300674D02*
X9342389Y-9262579D01*
X9342389Y-9262579D02*
X9351913Y-9243531D01*
X9351913Y-9243531D02*
X9361437Y-9234008D01*
X9361437Y-9234008D02*
X9380484Y-9224484D01*
X9570961Y-9224484D02*
X9590008Y-9224484D01*
X9590008Y-9224484D02*
X9609056Y-9234008D01*
X9609056Y-9234008D02*
X9618580Y-9243531D01*
X9618580Y-9243531D02*
X9628103Y-9262579D01*
X9628103Y-9262579D02*
X9637627Y-9300674D01*
X9637627Y-9300674D02*
X9637627Y-9348293D01*
X9637627Y-9348293D02*
X9628103Y-9386389D01*
X9628103Y-9386389D02*
X9618580Y-9405436D01*
X9618580Y-9405436D02*
X9609056Y-9414960D01*
X9609056Y-9414960D02*
X9590008Y-9424484D01*
X9590008Y-9424484D02*
X9570961Y-9424484D01*
X9570961Y-9424484D02*
X9551913Y-9414960D01*
X9551913Y-9414960D02*
X9542389Y-9405436D01*
X9542389Y-9405436D02*
X9532865Y-9386389D01*
X9532865Y-9386389D02*
X9523342Y-9348293D01*
X9523342Y-9348293D02*
X9523342Y-9300674D01*
X9523342Y-9300674D02*
X9532865Y-9262579D01*
X9532865Y-9262579D02*
X9542389Y-9243531D01*
X9542389Y-9243531D02*
X9551913Y-9234008D01*
X9551913Y-9234008D02*
X9570961Y-9224484D01*
X9723342Y-9424484D02*
X9723342Y-9291150D01*
X9723342Y-9310198D02*
X9732865Y-9300674D01*
X9732865Y-9300674D02*
X9751913Y-9291150D01*
X9751913Y-9291150D02*
X9780484Y-9291150D01*
X9780484Y-9291150D02*
X9799532Y-9300674D01*
X9799532Y-9300674D02*
X9809056Y-9319722D01*
X9809056Y-9319722D02*
X9809056Y-9424484D01*
X9809056Y-9319722D02*
X9818580Y-9300674D01*
X9818580Y-9300674D02*
X9837627Y-9291150D01*
X9837627Y-9291150D02*
X9866199Y-9291150D01*
X9866199Y-9291150D02*
X9885246Y-9300674D01*
X9885246Y-9300674D02*
X9894770Y-9319722D01*
X9894770Y-9319722D02*
X9894770Y-9424484D01*
X9990008Y-9424484D02*
X9990008Y-9291150D01*
X9990008Y-9310198D02*
X9999532Y-9300674D01*
X9999532Y-9300674D02*
X10018580Y-9291150D01*
X10018580Y-9291150D02*
X10047151Y-9291150D01*
X10047151Y-9291150D02*
X10066199Y-9300674D01*
X10066199Y-9300674D02*
X10075723Y-9319722D01*
X10075723Y-9319722D02*
X10075723Y-9424484D01*
X10075723Y-9319722D02*
X10085246Y-9300674D01*
X10085246Y-9300674D02*
X10104294Y-9291150D01*
X10104294Y-9291150D02*
X10132865Y-9291150D01*
X10132865Y-9291150D02*
X10151913Y-9300674D01*
X10151913Y-9300674D02*
X10161437Y-9319722D01*
X10161437Y-9319722D02*
X10161437Y-9424484D01*
X10551913Y-9214960D02*
X10380485Y-9472103D01*
X10809056Y-9224484D02*
X10828104Y-9224484D01*
X10828104Y-9224484D02*
X10847151Y-9234008D01*
X10847151Y-9234008D02*
X10856675Y-9243531D01*
X10856675Y-9243531D02*
X10866199Y-9262579D01*
X10866199Y-9262579D02*
X10875723Y-9300674D01*
X10875723Y-9300674D02*
X10875723Y-9348293D01*
X10875723Y-9348293D02*
X10866199Y-9386389D01*
X10866199Y-9386389D02*
X10856675Y-9405436D01*
X10856675Y-9405436D02*
X10847151Y-9414960D01*
X10847151Y-9414960D02*
X10828104Y-9424484D01*
X10828104Y-9424484D02*
X10809056Y-9424484D01*
X10809056Y-9424484D02*
X10790008Y-9414960D01*
X10790008Y-9414960D02*
X10780485Y-9405436D01*
X10780485Y-9405436D02*
X10770961Y-9386389D01*
X10770961Y-9386389D02*
X10761437Y-9348293D01*
X10761437Y-9348293D02*
X10761437Y-9300674D01*
X10761437Y-9300674D02*
X10770961Y-9262579D01*
X10770961Y-9262579D02*
X10780485Y-9243531D01*
X10780485Y-9243531D02*
X10790008Y-9234008D01*
X10790008Y-9234008D02*
X10809056Y-9224484D01*
X10961437Y-9405436D02*
X10970961Y-9414960D01*
X10970961Y-9414960D02*
X10961437Y-9424484D01*
X10961437Y-9424484D02*
X10951913Y-9414960D01*
X10951913Y-9414960D02*
X10961437Y-9405436D01*
X10961437Y-9405436D02*
X10961437Y-9424484D01*
X11094770Y-9224484D02*
X11113818Y-9224484D01*
X11113818Y-9224484D02*
X11132866Y-9234008D01*
X11132866Y-9234008D02*
X11142389Y-9243531D01*
X11142389Y-9243531D02*
X11151913Y-9262579D01*
X11151913Y-9262579D02*
X11161437Y-9300674D01*
X11161437Y-9300674D02*
X11161437Y-9348293D01*
X11161437Y-9348293D02*
X11151913Y-9386389D01*
X11151913Y-9386389D02*
X11142389Y-9405436D01*
X11142389Y-9405436D02*
X11132866Y-9414960D01*
X11132866Y-9414960D02*
X11113818Y-9424484D01*
X11113818Y-9424484D02*
X11094770Y-9424484D01*
X11094770Y-9424484D02*
X11075723Y-9414960D01*
X11075723Y-9414960D02*
X11066199Y-9405436D01*
X11066199Y-9405436D02*
X11056675Y-9386389D01*
X11056675Y-9386389D02*
X11047151Y-9348293D01*
X11047151Y-9348293D02*
X11047151Y-9300674D01*
X11047151Y-9300674D02*
X11056675Y-9262579D01*
X11056675Y-9262579D02*
X11066199Y-9243531D01*
X11066199Y-9243531D02*
X11075723Y-9234008D01*
X11075723Y-9234008D02*
X11094770Y-9224484D01*
X11351913Y-9424484D02*
X11237627Y-9424484D01*
X11294770Y-9424484D02*
X11294770Y-9224484D01*
X11294770Y-9224484D02*
X11275723Y-9253055D01*
X11275723Y-9253055D02*
X11256675Y-9272103D01*
X11256675Y-9272103D02*
X11237627Y-9281627D01*
X11447151Y-9424484D02*
X11485246Y-9424484D01*
X11485246Y-9424484D02*
X11504294Y-9414960D01*
X11504294Y-9414960D02*
X11513818Y-9405436D01*
X11513818Y-9405436D02*
X11532865Y-9376865D01*
X11532865Y-9376865D02*
X11542389Y-9338770D01*
X11542389Y-9338770D02*
X11542389Y-9262579D01*
X11542389Y-9262579D02*
X11532865Y-9243531D01*
X11532865Y-9243531D02*
X11523342Y-9234008D01*
X11523342Y-9234008D02*
X11504294Y-9224484D01*
X11504294Y-9224484D02*
X11466199Y-9224484D01*
X11466199Y-9224484D02*
X11447151Y-9234008D01*
X11447151Y-9234008D02*
X11437627Y-9243531D01*
X11437627Y-9243531D02*
X11428104Y-9262579D01*
X11428104Y-9262579D02*
X11428104Y-9310198D01*
X11428104Y-9310198D02*
X11437627Y-9329246D01*
X11437627Y-9329246D02*
X11447151Y-9338770D01*
X11447151Y-9338770D02*
X11466199Y-9348293D01*
X11466199Y-9348293D02*
X11504294Y-9348293D01*
X11504294Y-9348293D02*
X11523342Y-9338770D01*
X11523342Y-9338770D02*
X11532865Y-9329246D01*
X11532865Y-9329246D02*
X11542389Y-9310198D01*
X11609056Y-9224484D02*
X11742389Y-9224484D01*
X11742389Y-9224484D02*
X11656675Y-9424484D01*
X11809056Y-9224484D02*
X11809056Y-9262579D01*
X11885246Y-9224484D02*
X11885246Y-9262579D01*
X12180485Y-9500674D02*
X12170961Y-9491150D01*
X12170961Y-9491150D02*
X12151913Y-9462579D01*
X12151913Y-9462579D02*
X12142389Y-9443531D01*
X12142389Y-9443531D02*
X12132866Y-9414960D01*
X12132866Y-9414960D02*
X12123342Y-9367341D01*
X12123342Y-9367341D02*
X12123342Y-9329246D01*
X12123342Y-9329246D02*
X12132866Y-9281627D01*
X12132866Y-9281627D02*
X12142389Y-9253055D01*
X12142389Y-9253055D02*
X12151913Y-9234008D01*
X12151913Y-9234008D02*
X12170961Y-9205436D01*
X12170961Y-9205436D02*
X12180485Y-9195912D01*
X12247151Y-9243531D02*
X12256675Y-9234008D01*
X12256675Y-9234008D02*
X12275723Y-9224484D01*
X12275723Y-9224484D02*
X12323342Y-9224484D01*
X12323342Y-9224484D02*
X12342389Y-9234008D01*
X12342389Y-9234008D02*
X12351913Y-9243531D01*
X12351913Y-9243531D02*
X12361437Y-9262579D01*
X12361437Y-9262579D02*
X12361437Y-9281627D01*
X12361437Y-9281627D02*
X12351913Y-9310198D01*
X12351913Y-9310198D02*
X12237627Y-9424484D01*
X12237627Y-9424484D02*
X12361437Y-9424484D01*
X12599532Y-9424484D02*
X12599532Y-9224484D01*
X12685247Y-9424484D02*
X12685247Y-9319722D01*
X12685247Y-9319722D02*
X12675723Y-9300674D01*
X12675723Y-9300674D02*
X12656675Y-9291150D01*
X12656675Y-9291150D02*
X12628104Y-9291150D01*
X12628104Y-9291150D02*
X12609056Y-9300674D01*
X12609056Y-9300674D02*
X12599532Y-9310198D01*
X12809056Y-9424484D02*
X12790008Y-9414960D01*
X12790008Y-9414960D02*
X12780485Y-9405436D01*
X12780485Y-9405436D02*
X12770961Y-9386389D01*
X12770961Y-9386389D02*
X12770961Y-9329246D01*
X12770961Y-9329246D02*
X12780485Y-9310198D01*
X12780485Y-9310198D02*
X12790008Y-9300674D01*
X12790008Y-9300674D02*
X12809056Y-9291150D01*
X12809056Y-9291150D02*
X12837628Y-9291150D01*
X12837628Y-9291150D02*
X12856675Y-9300674D01*
X12856675Y-9300674D02*
X12866199Y-9310198D01*
X12866199Y-9310198D02*
X12875723Y-9329246D01*
X12875723Y-9329246D02*
X12875723Y-9386389D01*
X12875723Y-9386389D02*
X12866199Y-9405436D01*
X12866199Y-9405436D02*
X12856675Y-9414960D01*
X12856675Y-9414960D02*
X12837628Y-9424484D01*
X12837628Y-9424484D02*
X12809056Y-9424484D01*
X12990008Y-9424484D02*
X12970961Y-9414960D01*
X12970961Y-9414960D02*
X12961437Y-9395912D01*
X12961437Y-9395912D02*
X12961437Y-9224484D01*
X13142389Y-9414960D02*
X13123342Y-9424484D01*
X13123342Y-9424484D02*
X13085247Y-9424484D01*
X13085247Y-9424484D02*
X13066199Y-9414960D01*
X13066199Y-9414960D02*
X13056675Y-9395912D01*
X13056675Y-9395912D02*
X13056675Y-9319722D01*
X13056675Y-9319722D02*
X13066199Y-9300674D01*
X13066199Y-9300674D02*
X13085247Y-9291150D01*
X13085247Y-9291150D02*
X13123342Y-9291150D01*
X13123342Y-9291150D02*
X13142389Y-9300674D01*
X13142389Y-9300674D02*
X13151913Y-9319722D01*
X13151913Y-9319722D02*
X13151913Y-9338770D01*
X13151913Y-9338770D02*
X13056675Y-9357817D01*
X13228104Y-9414960D02*
X13247151Y-9424484D01*
X13247151Y-9424484D02*
X13285247Y-9424484D01*
X13285247Y-9424484D02*
X13304294Y-9414960D01*
X13304294Y-9414960D02*
X13313818Y-9395912D01*
X13313818Y-9395912D02*
X13313818Y-9386389D01*
X13313818Y-9386389D02*
X13304294Y-9367341D01*
X13304294Y-9367341D02*
X13285247Y-9357817D01*
X13285247Y-9357817D02*
X13256675Y-9357817D01*
X13256675Y-9357817D02*
X13237628Y-9348293D01*
X13237628Y-9348293D02*
X13228104Y-9329246D01*
X13228104Y-9329246D02*
X13228104Y-9319722D01*
X13228104Y-9319722D02*
X13237628Y-9300674D01*
X13237628Y-9300674D02*
X13256675Y-9291150D01*
X13256675Y-9291150D02*
X13285247Y-9291150D01*
X13285247Y-9291150D02*
X13304294Y-9300674D01*
X13380485Y-9500674D02*
X13390009Y-9491150D01*
X13390009Y-9491150D02*
X13409056Y-9462579D01*
X13409056Y-9462579D02*
X13418580Y-9443531D01*
X13418580Y-9443531D02*
X13428104Y-9414960D01*
X13428104Y-9414960D02*
X13437628Y-9367341D01*
X13437628Y-9367341D02*
X13437628Y-9329246D01*
X13437628Y-9329246D02*
X13428104Y-9281627D01*
X13428104Y-9281627D02*
X13418580Y-9253055D01*
X13418580Y-9253055D02*
X13409056Y-9234008D01*
X13409056Y-9234008D02*
X13390009Y-9205436D01*
X13390009Y-9205436D02*
X13380485Y-9195912D01*
D10*
X8596635Y-9618213D02*
X8596635Y-9575787D01*
X8554208Y-9575787D01*
X8554208Y-9618213D01*
X8596635Y-9618213D01*
D12*
X8904294Y-9488484D02*
X8923342Y-9488484D01*
X8923342Y-9488484D02*
X8942389Y-9498008D01*
X8942389Y-9498008D02*
X8951913Y-9507531D01*
X8951913Y-9507531D02*
X8961437Y-9526579D01*
X8961437Y-9526579D02*
X8970961Y-9564674D01*
X8970961Y-9564674D02*
X8970961Y-9612293D01*
X8970961Y-9612293D02*
X8961437Y-9650389D01*
X8961437Y-9650389D02*
X8951913Y-9669436D01*
X8951913Y-9669436D02*
X8942389Y-9678960D01*
X8942389Y-9678960D02*
X8923342Y-9688484D01*
X8923342Y-9688484D02*
X8904294Y-9688484D01*
X8904294Y-9688484D02*
X8885246Y-9678960D01*
X8885246Y-9678960D02*
X8875722Y-9669436D01*
X8875722Y-9669436D02*
X8866199Y-9650389D01*
X8866199Y-9650389D02*
X8856675Y-9612293D01*
X8856675Y-9612293D02*
X8856675Y-9564674D01*
X8856675Y-9564674D02*
X8866199Y-9526579D01*
X8866199Y-9526579D02*
X8875722Y-9507531D01*
X8875722Y-9507531D02*
X8885246Y-9498008D01*
X8885246Y-9498008D02*
X8904294Y-9488484D01*
X9056675Y-9669436D02*
X9066199Y-9678960D01*
X9066199Y-9678960D02*
X9056675Y-9688484D01*
X9056675Y-9688484D02*
X9047151Y-9678960D01*
X9047151Y-9678960D02*
X9056675Y-9669436D01*
X9056675Y-9669436D02*
X9056675Y-9688484D01*
X9237627Y-9488484D02*
X9199532Y-9488484D01*
X9199532Y-9488484D02*
X9180484Y-9498008D01*
X9180484Y-9498008D02*
X9170961Y-9507531D01*
X9170961Y-9507531D02*
X9151913Y-9536103D01*
X9151913Y-9536103D02*
X9142389Y-9574198D01*
X9142389Y-9574198D02*
X9142389Y-9650389D01*
X9142389Y-9650389D02*
X9151913Y-9669436D01*
X9151913Y-9669436D02*
X9161437Y-9678960D01*
X9161437Y-9678960D02*
X9180484Y-9688484D01*
X9180484Y-9688484D02*
X9218580Y-9688484D01*
X9218580Y-9688484D02*
X9237627Y-9678960D01*
X9237627Y-9678960D02*
X9247151Y-9669436D01*
X9247151Y-9669436D02*
X9256675Y-9650389D01*
X9256675Y-9650389D02*
X9256675Y-9602770D01*
X9256675Y-9602770D02*
X9247151Y-9583722D01*
X9247151Y-9583722D02*
X9237627Y-9574198D01*
X9237627Y-9574198D02*
X9218580Y-9564674D01*
X9218580Y-9564674D02*
X9180484Y-9564674D01*
X9180484Y-9564674D02*
X9161437Y-9574198D01*
X9161437Y-9574198D02*
X9151913Y-9583722D01*
X9151913Y-9583722D02*
X9142389Y-9602770D01*
X9380484Y-9488484D02*
X9399532Y-9488484D01*
X9399532Y-9488484D02*
X9418580Y-9498008D01*
X9418580Y-9498008D02*
X9428103Y-9507531D01*
X9428103Y-9507531D02*
X9437627Y-9526579D01*
X9437627Y-9526579D02*
X9447151Y-9564674D01*
X9447151Y-9564674D02*
X9447151Y-9612293D01*
X9447151Y-9612293D02*
X9437627Y-9650389D01*
X9437627Y-9650389D02*
X9428103Y-9669436D01*
X9428103Y-9669436D02*
X9418580Y-9678960D01*
X9418580Y-9678960D02*
X9399532Y-9688484D01*
X9399532Y-9688484D02*
X9380484Y-9688484D01*
X9380484Y-9688484D02*
X9361437Y-9678960D01*
X9361437Y-9678960D02*
X9351913Y-9669436D01*
X9351913Y-9669436D02*
X9342389Y-9650389D01*
X9342389Y-9650389D02*
X9332865Y-9612293D01*
X9332865Y-9612293D02*
X9332865Y-9564674D01*
X9332865Y-9564674D02*
X9342389Y-9526579D01*
X9342389Y-9526579D02*
X9351913Y-9507531D01*
X9351913Y-9507531D02*
X9361437Y-9498008D01*
X9361437Y-9498008D02*
X9380484Y-9488484D01*
X9570961Y-9488484D02*
X9590008Y-9488484D01*
X9590008Y-9488484D02*
X9609056Y-9498008D01*
X9609056Y-9498008D02*
X9618580Y-9507531D01*
X9618580Y-9507531D02*
X9628103Y-9526579D01*
X9628103Y-9526579D02*
X9637627Y-9564674D01*
X9637627Y-9564674D02*
X9637627Y-9612293D01*
X9637627Y-9612293D02*
X9628103Y-9650389D01*
X9628103Y-9650389D02*
X9618580Y-9669436D01*
X9618580Y-9669436D02*
X9609056Y-9678960D01*
X9609056Y-9678960D02*
X9590008Y-9688484D01*
X9590008Y-9688484D02*
X9570961Y-9688484D01*
X9570961Y-9688484D02*
X9551913Y-9678960D01*
X9551913Y-9678960D02*
X9542389Y-9669436D01*
X9542389Y-9669436D02*
X9532865Y-9650389D01*
X9532865Y-9650389D02*
X9523342Y-9612293D01*
X9523342Y-9612293D02*
X9523342Y-9564674D01*
X9523342Y-9564674D02*
X9532865Y-9526579D01*
X9532865Y-9526579D02*
X9542389Y-9507531D01*
X9542389Y-9507531D02*
X9551913Y-9498008D01*
X9551913Y-9498008D02*
X9570961Y-9488484D01*
X9723342Y-9688484D02*
X9723342Y-9555150D01*
X9723342Y-9574198D02*
X9732865Y-9564674D01*
X9732865Y-9564674D02*
X9751913Y-9555150D01*
X9751913Y-9555150D02*
X9780484Y-9555150D01*
X9780484Y-9555150D02*
X9799532Y-9564674D01*
X9799532Y-9564674D02*
X9809056Y-9583722D01*
X9809056Y-9583722D02*
X9809056Y-9688484D01*
X9809056Y-9583722D02*
X9818580Y-9564674D01*
X9818580Y-9564674D02*
X9837627Y-9555150D01*
X9837627Y-9555150D02*
X9866199Y-9555150D01*
X9866199Y-9555150D02*
X9885246Y-9564674D01*
X9885246Y-9564674D02*
X9894770Y-9583722D01*
X9894770Y-9583722D02*
X9894770Y-9688484D01*
X9990008Y-9688484D02*
X9990008Y-9555150D01*
X9990008Y-9574198D02*
X9999532Y-9564674D01*
X9999532Y-9564674D02*
X10018580Y-9555150D01*
X10018580Y-9555150D02*
X10047151Y-9555150D01*
X10047151Y-9555150D02*
X10066199Y-9564674D01*
X10066199Y-9564674D02*
X10075723Y-9583722D01*
X10075723Y-9583722D02*
X10075723Y-9688484D01*
X10075723Y-9583722D02*
X10085246Y-9564674D01*
X10085246Y-9564674D02*
X10104294Y-9555150D01*
X10104294Y-9555150D02*
X10132865Y-9555150D01*
X10132865Y-9555150D02*
X10151913Y-9564674D01*
X10151913Y-9564674D02*
X10161437Y-9583722D01*
X10161437Y-9583722D02*
X10161437Y-9688484D01*
X10551913Y-9478960D02*
X10380485Y-9736103D01*
X10809056Y-9488484D02*
X10828104Y-9488484D01*
X10828104Y-9488484D02*
X10847151Y-9498008D01*
X10847151Y-9498008D02*
X10856675Y-9507531D01*
X10856675Y-9507531D02*
X10866199Y-9526579D01*
X10866199Y-9526579D02*
X10875723Y-9564674D01*
X10875723Y-9564674D02*
X10875723Y-9612293D01*
X10875723Y-9612293D02*
X10866199Y-9650389D01*
X10866199Y-9650389D02*
X10856675Y-9669436D01*
X10856675Y-9669436D02*
X10847151Y-9678960D01*
X10847151Y-9678960D02*
X10828104Y-9688484D01*
X10828104Y-9688484D02*
X10809056Y-9688484D01*
X10809056Y-9688484D02*
X10790008Y-9678960D01*
X10790008Y-9678960D02*
X10780485Y-9669436D01*
X10780485Y-9669436D02*
X10770961Y-9650389D01*
X10770961Y-9650389D02*
X10761437Y-9612293D01*
X10761437Y-9612293D02*
X10761437Y-9564674D01*
X10761437Y-9564674D02*
X10770961Y-9526579D01*
X10770961Y-9526579D02*
X10780485Y-9507531D01*
X10780485Y-9507531D02*
X10790008Y-9498008D01*
X10790008Y-9498008D02*
X10809056Y-9488484D01*
X10961437Y-9669436D02*
X10970961Y-9678960D01*
X10970961Y-9678960D02*
X10961437Y-9688484D01*
X10961437Y-9688484D02*
X10951913Y-9678960D01*
X10951913Y-9678960D02*
X10961437Y-9669436D01*
X10961437Y-9669436D02*
X10961437Y-9688484D01*
X11094770Y-9488484D02*
X11113818Y-9488484D01*
X11113818Y-9488484D02*
X11132866Y-9498008D01*
X11132866Y-9498008D02*
X11142389Y-9507531D01*
X11142389Y-9507531D02*
X11151913Y-9526579D01*
X11151913Y-9526579D02*
X11161437Y-9564674D01*
X11161437Y-9564674D02*
X11161437Y-9612293D01*
X11161437Y-9612293D02*
X11151913Y-9650389D01*
X11151913Y-9650389D02*
X11142389Y-9669436D01*
X11142389Y-9669436D02*
X11132866Y-9678960D01*
X11132866Y-9678960D02*
X11113818Y-9688484D01*
X11113818Y-9688484D02*
X11094770Y-9688484D01*
X11094770Y-9688484D02*
X11075723Y-9678960D01*
X11075723Y-9678960D02*
X11066199Y-9669436D01*
X11066199Y-9669436D02*
X11056675Y-9650389D01*
X11056675Y-9650389D02*
X11047151Y-9612293D01*
X11047151Y-9612293D02*
X11047151Y-9564674D01*
X11047151Y-9564674D02*
X11056675Y-9526579D01*
X11056675Y-9526579D02*
X11066199Y-9507531D01*
X11066199Y-9507531D02*
X11075723Y-9498008D01*
X11075723Y-9498008D02*
X11094770Y-9488484D01*
X11237627Y-9507531D02*
X11247151Y-9498008D01*
X11247151Y-9498008D02*
X11266199Y-9488484D01*
X11266199Y-9488484D02*
X11313818Y-9488484D01*
X11313818Y-9488484D02*
X11332865Y-9498008D01*
X11332865Y-9498008D02*
X11342389Y-9507531D01*
X11342389Y-9507531D02*
X11351913Y-9526579D01*
X11351913Y-9526579D02*
X11351913Y-9545627D01*
X11351913Y-9545627D02*
X11342389Y-9574198D01*
X11342389Y-9574198D02*
X11228104Y-9688484D01*
X11228104Y-9688484D02*
X11351913Y-9688484D01*
X11418580Y-9488484D02*
X11542389Y-9488484D01*
X11542389Y-9488484D02*
X11475723Y-9564674D01*
X11475723Y-9564674D02*
X11504294Y-9564674D01*
X11504294Y-9564674D02*
X11523342Y-9574198D01*
X11523342Y-9574198D02*
X11532865Y-9583722D01*
X11532865Y-9583722D02*
X11542389Y-9602770D01*
X11542389Y-9602770D02*
X11542389Y-9650389D01*
X11542389Y-9650389D02*
X11532865Y-9669436D01*
X11532865Y-9669436D02*
X11523342Y-9678960D01*
X11523342Y-9678960D02*
X11504294Y-9688484D01*
X11504294Y-9688484D02*
X11447151Y-9688484D01*
X11447151Y-9688484D02*
X11428104Y-9678960D01*
X11428104Y-9678960D02*
X11418580Y-9669436D01*
X11713818Y-9488484D02*
X11675723Y-9488484D01*
X11675723Y-9488484D02*
X11656675Y-9498008D01*
X11656675Y-9498008D02*
X11647151Y-9507531D01*
X11647151Y-9507531D02*
X11628104Y-9536103D01*
X11628104Y-9536103D02*
X11618580Y-9574198D01*
X11618580Y-9574198D02*
X11618580Y-9650389D01*
X11618580Y-9650389D02*
X11628104Y-9669436D01*
X11628104Y-9669436D02*
X11637627Y-9678960D01*
X11637627Y-9678960D02*
X11656675Y-9688484D01*
X11656675Y-9688484D02*
X11694770Y-9688484D01*
X11694770Y-9688484D02*
X11713818Y-9678960D01*
X11713818Y-9678960D02*
X11723342Y-9669436D01*
X11723342Y-9669436D02*
X11732865Y-9650389D01*
X11732865Y-9650389D02*
X11732865Y-9602770D01*
X11732865Y-9602770D02*
X11723342Y-9583722D01*
X11723342Y-9583722D02*
X11713818Y-9574198D01*
X11713818Y-9574198D02*
X11694770Y-9564674D01*
X11694770Y-9564674D02*
X11656675Y-9564674D01*
X11656675Y-9564674D02*
X11637627Y-9574198D01*
X11637627Y-9574198D02*
X11628104Y-9583722D01*
X11628104Y-9583722D02*
X11618580Y-9602770D01*
X11809056Y-9488484D02*
X11809056Y-9526579D01*
X11885246Y-9488484D02*
X11885246Y-9526579D01*
X12180485Y-9764674D02*
X12170961Y-9755150D01*
X12170961Y-9755150D02*
X12151913Y-9726579D01*
X12151913Y-9726579D02*
X12142389Y-9707531D01*
X12142389Y-9707531D02*
X12132866Y-9678960D01*
X12132866Y-9678960D02*
X12123342Y-9631341D01*
X12123342Y-9631341D02*
X12123342Y-9593246D01*
X12123342Y-9593246D02*
X12132866Y-9545627D01*
X12132866Y-9545627D02*
X12142389Y-9517055D01*
X12142389Y-9517055D02*
X12151913Y-9498008D01*
X12151913Y-9498008D02*
X12170961Y-9469436D01*
X12170961Y-9469436D02*
X12180485Y-9459912D01*
X12294770Y-9488484D02*
X12313818Y-9488484D01*
X12313818Y-9488484D02*
X12332866Y-9498008D01*
X12332866Y-9498008D02*
X12342389Y-9507531D01*
X12342389Y-9507531D02*
X12351913Y-9526579D01*
X12351913Y-9526579D02*
X12361437Y-9564674D01*
X12361437Y-9564674D02*
X12361437Y-9612293D01*
X12361437Y-9612293D02*
X12351913Y-9650389D01*
X12351913Y-9650389D02*
X12342389Y-9669436D01*
X12342389Y-9669436D02*
X12332866Y-9678960D01*
X12332866Y-9678960D02*
X12313818Y-9688484D01*
X12313818Y-9688484D02*
X12294770Y-9688484D01*
X12294770Y-9688484D02*
X12275723Y-9678960D01*
X12275723Y-9678960D02*
X12266199Y-9669436D01*
X12266199Y-9669436D02*
X12256675Y-9650389D01*
X12256675Y-9650389D02*
X12247151Y-9612293D01*
X12247151Y-9612293D02*
X12247151Y-9564674D01*
X12247151Y-9564674D02*
X12256675Y-9526579D01*
X12256675Y-9526579D02*
X12266199Y-9507531D01*
X12266199Y-9507531D02*
X12275723Y-9498008D01*
X12275723Y-9498008D02*
X12294770Y-9488484D01*
X12599532Y-9688484D02*
X12599532Y-9488484D01*
X12685247Y-9688484D02*
X12685247Y-9583722D01*
X12685247Y-9583722D02*
X12675723Y-9564674D01*
X12675723Y-9564674D02*
X12656675Y-9555150D01*
X12656675Y-9555150D02*
X12628104Y-9555150D01*
X12628104Y-9555150D02*
X12609056Y-9564674D01*
X12609056Y-9564674D02*
X12599532Y-9574198D01*
X12809056Y-9688484D02*
X12790008Y-9678960D01*
X12790008Y-9678960D02*
X12780485Y-9669436D01*
X12780485Y-9669436D02*
X12770961Y-9650389D01*
X12770961Y-9650389D02*
X12770961Y-9593246D01*
X12770961Y-9593246D02*
X12780485Y-9574198D01*
X12780485Y-9574198D02*
X12790008Y-9564674D01*
X12790008Y-9564674D02*
X12809056Y-9555150D01*
X12809056Y-9555150D02*
X12837628Y-9555150D01*
X12837628Y-9555150D02*
X12856675Y-9564674D01*
X12856675Y-9564674D02*
X12866199Y-9574198D01*
X12866199Y-9574198D02*
X12875723Y-9593246D01*
X12875723Y-9593246D02*
X12875723Y-9650389D01*
X12875723Y-9650389D02*
X12866199Y-9669436D01*
X12866199Y-9669436D02*
X12856675Y-9678960D01*
X12856675Y-9678960D02*
X12837628Y-9688484D01*
X12837628Y-9688484D02*
X12809056Y-9688484D01*
X12990008Y-9688484D02*
X12970961Y-9678960D01*
X12970961Y-9678960D02*
X12961437Y-9659912D01*
X12961437Y-9659912D02*
X12961437Y-9488484D01*
X13142389Y-9678960D02*
X13123342Y-9688484D01*
X13123342Y-9688484D02*
X13085247Y-9688484D01*
X13085247Y-9688484D02*
X13066199Y-9678960D01*
X13066199Y-9678960D02*
X13056675Y-9659912D01*
X13056675Y-9659912D02*
X13056675Y-9583722D01*
X13056675Y-9583722D02*
X13066199Y-9564674D01*
X13066199Y-9564674D02*
X13085247Y-9555150D01*
X13085247Y-9555150D02*
X13123342Y-9555150D01*
X13123342Y-9555150D02*
X13142389Y-9564674D01*
X13142389Y-9564674D02*
X13151913Y-9583722D01*
X13151913Y-9583722D02*
X13151913Y-9602770D01*
X13151913Y-9602770D02*
X13056675Y-9621817D01*
X13228104Y-9678960D02*
X13247151Y-9688484D01*
X13247151Y-9688484D02*
X13285247Y-9688484D01*
X13285247Y-9688484D02*
X13304294Y-9678960D01*
X13304294Y-9678960D02*
X13313818Y-9659912D01*
X13313818Y-9659912D02*
X13313818Y-9650389D01*
X13313818Y-9650389D02*
X13304294Y-9631341D01*
X13304294Y-9631341D02*
X13285247Y-9621817D01*
X13285247Y-9621817D02*
X13256675Y-9621817D01*
X13256675Y-9621817D02*
X13237628Y-9612293D01*
X13237628Y-9612293D02*
X13228104Y-9593246D01*
X13228104Y-9593246D02*
X13228104Y-9583722D01*
X13228104Y-9583722D02*
X13237628Y-9564674D01*
X13237628Y-9564674D02*
X13256675Y-9555150D01*
X13256675Y-9555150D02*
X13285247Y-9555150D01*
X13285247Y-9555150D02*
X13304294Y-9564674D01*
X13551913Y-9612293D02*
X13704294Y-9612293D01*
X13628104Y-9688484D02*
X13628104Y-9536103D01*
X14037628Y-9555150D02*
X14037628Y-9688484D01*
X13990009Y-9478960D02*
X13942390Y-9621817D01*
X13942390Y-9621817D02*
X14066199Y-9621817D01*
X14285247Y-9678960D02*
X14304294Y-9688484D01*
X14304294Y-9688484D02*
X14342390Y-9688484D01*
X14342390Y-9688484D02*
X14361437Y-9678960D01*
X14361437Y-9678960D02*
X14370961Y-9659912D01*
X14370961Y-9659912D02*
X14370961Y-9650389D01*
X14370961Y-9650389D02*
X14361437Y-9631341D01*
X14361437Y-9631341D02*
X14342390Y-9621817D01*
X14342390Y-9621817D02*
X14313818Y-9621817D01*
X14313818Y-9621817D02*
X14294771Y-9612293D01*
X14294771Y-9612293D02*
X14285247Y-9593246D01*
X14285247Y-9593246D02*
X14285247Y-9583722D01*
X14285247Y-9583722D02*
X14294771Y-9564674D01*
X14294771Y-9564674D02*
X14313818Y-9555150D01*
X14313818Y-9555150D02*
X14342390Y-9555150D01*
X14342390Y-9555150D02*
X14361437Y-9564674D01*
X14485247Y-9688484D02*
X14466199Y-9678960D01*
X14466199Y-9678960D02*
X14456675Y-9659912D01*
X14456675Y-9659912D02*
X14456675Y-9488484D01*
X14590009Y-9688484D02*
X14570961Y-9678960D01*
X14570961Y-9678960D02*
X14561437Y-9669436D01*
X14561437Y-9669436D02*
X14551913Y-9650389D01*
X14551913Y-9650389D02*
X14551913Y-9593246D01*
X14551913Y-9593246D02*
X14561437Y-9574198D01*
X14561437Y-9574198D02*
X14570961Y-9564674D01*
X14570961Y-9564674D02*
X14590009Y-9555150D01*
X14590009Y-9555150D02*
X14618580Y-9555150D01*
X14618580Y-9555150D02*
X14637628Y-9564674D01*
X14637628Y-9564674D02*
X14647152Y-9574198D01*
X14647152Y-9574198D02*
X14656675Y-9593246D01*
X14656675Y-9593246D02*
X14656675Y-9650389D01*
X14656675Y-9650389D02*
X14647152Y-9669436D01*
X14647152Y-9669436D02*
X14637628Y-9678960D01*
X14637628Y-9678960D02*
X14618580Y-9688484D01*
X14618580Y-9688484D02*
X14590009Y-9688484D01*
X14713818Y-9555150D02*
X14790009Y-9555150D01*
X14742390Y-9488484D02*
X14742390Y-9659912D01*
X14742390Y-9659912D02*
X14751913Y-9678960D01*
X14751913Y-9678960D02*
X14770961Y-9688484D01*
X14770961Y-9688484D02*
X14790009Y-9688484D01*
X14847152Y-9678960D02*
X14866199Y-9688484D01*
X14866199Y-9688484D02*
X14904294Y-9688484D01*
X14904294Y-9688484D02*
X14923342Y-9678960D01*
X14923342Y-9678960D02*
X14932866Y-9659912D01*
X14932866Y-9659912D02*
X14932866Y-9650389D01*
X14932866Y-9650389D02*
X14923342Y-9631341D01*
X14923342Y-9631341D02*
X14904294Y-9621817D01*
X14904294Y-9621817D02*
X14875723Y-9621817D01*
X14875723Y-9621817D02*
X14856675Y-9612293D01*
X14856675Y-9612293D02*
X14847152Y-9593246D01*
X14847152Y-9593246D02*
X14847152Y-9583722D01*
X14847152Y-9583722D02*
X14856675Y-9564674D01*
X14856675Y-9564674D02*
X14875723Y-9555150D01*
X14875723Y-9555150D02*
X14904294Y-9555150D01*
X14904294Y-9555150D02*
X14923342Y-9564674D01*
X14999533Y-9764674D02*
X15009056Y-9755150D01*
X15009056Y-9755150D02*
X15028104Y-9726579D01*
X15028104Y-9726579D02*
X15037628Y-9707531D01*
X15037628Y-9707531D02*
X15047152Y-9678960D01*
X15047152Y-9678960D02*
X15056675Y-9631341D01*
X15056675Y-9631341D02*
X15056675Y-9593246D01*
X15056675Y-9593246D02*
X15047152Y-9545627D01*
X15047152Y-9545627D02*
X15037628Y-9517055D01*
X15037628Y-9517055D02*
X15028104Y-9498008D01*
X15028104Y-9498008D02*
X15009056Y-9469436D01*
X15009056Y-9469436D02*
X14999533Y-9459912D01*
D10*
X8555422Y-9911000D02*
X8605422Y-9861000D01*
X8555422Y-9811000D01*
X8505422Y-9861000D01*
X8555422Y-9911000D01*
D12*
X8970961Y-9952484D02*
X8856675Y-9952484D01*
X8913818Y-9952484D02*
X8913818Y-9752484D01*
X8913818Y-9752484D02*
X8894770Y-9781055D01*
X8894770Y-9781055D02*
X8875722Y-9800103D01*
X8875722Y-9800103D02*
X8856675Y-9809627D01*
X9056675Y-9933436D02*
X9066199Y-9942960D01*
X9066199Y-9942960D02*
X9056675Y-9952484D01*
X9056675Y-9952484D02*
X9047151Y-9942960D01*
X9047151Y-9942960D02*
X9056675Y-9933436D01*
X9056675Y-9933436D02*
X9056675Y-9952484D01*
X9190008Y-9752484D02*
X9209056Y-9752484D01*
X9209056Y-9752484D02*
X9228103Y-9762008D01*
X9228103Y-9762008D02*
X9237627Y-9771531D01*
X9237627Y-9771531D02*
X9247151Y-9790579D01*
X9247151Y-9790579D02*
X9256675Y-9828674D01*
X9256675Y-9828674D02*
X9256675Y-9876293D01*
X9256675Y-9876293D02*
X9247151Y-9914389D01*
X9247151Y-9914389D02*
X9237627Y-9933436D01*
X9237627Y-9933436D02*
X9228103Y-9942960D01*
X9228103Y-9942960D02*
X9209056Y-9952484D01*
X9209056Y-9952484D02*
X9190008Y-9952484D01*
X9190008Y-9952484D02*
X9170961Y-9942960D01*
X9170961Y-9942960D02*
X9161437Y-9933436D01*
X9161437Y-9933436D02*
X9151913Y-9914389D01*
X9151913Y-9914389D02*
X9142389Y-9876293D01*
X9142389Y-9876293D02*
X9142389Y-9828674D01*
X9142389Y-9828674D02*
X9151913Y-9790579D01*
X9151913Y-9790579D02*
X9161437Y-9771531D01*
X9161437Y-9771531D02*
X9170961Y-9762008D01*
X9170961Y-9762008D02*
X9190008Y-9752484D01*
X9380484Y-9752484D02*
X9399532Y-9752484D01*
X9399532Y-9752484D02*
X9418580Y-9762008D01*
X9418580Y-9762008D02*
X9428103Y-9771531D01*
X9428103Y-9771531D02*
X9437627Y-9790579D01*
X9437627Y-9790579D02*
X9447151Y-9828674D01*
X9447151Y-9828674D02*
X9447151Y-9876293D01*
X9447151Y-9876293D02*
X9437627Y-9914389D01*
X9437627Y-9914389D02*
X9428103Y-9933436D01*
X9428103Y-9933436D02*
X9418580Y-9942960D01*
X9418580Y-9942960D02*
X9399532Y-9952484D01*
X9399532Y-9952484D02*
X9380484Y-9952484D01*
X9380484Y-9952484D02*
X9361437Y-9942960D01*
X9361437Y-9942960D02*
X9351913Y-9933436D01*
X9351913Y-9933436D02*
X9342389Y-9914389D01*
X9342389Y-9914389D02*
X9332865Y-9876293D01*
X9332865Y-9876293D02*
X9332865Y-9828674D01*
X9332865Y-9828674D02*
X9342389Y-9790579D01*
X9342389Y-9790579D02*
X9351913Y-9771531D01*
X9351913Y-9771531D02*
X9361437Y-9762008D01*
X9361437Y-9762008D02*
X9380484Y-9752484D01*
X9570961Y-9752484D02*
X9590008Y-9752484D01*
X9590008Y-9752484D02*
X9609056Y-9762008D01*
X9609056Y-9762008D02*
X9618580Y-9771531D01*
X9618580Y-9771531D02*
X9628103Y-9790579D01*
X9628103Y-9790579D02*
X9637627Y-9828674D01*
X9637627Y-9828674D02*
X9637627Y-9876293D01*
X9637627Y-9876293D02*
X9628103Y-9914389D01*
X9628103Y-9914389D02*
X9618580Y-9933436D01*
X9618580Y-9933436D02*
X9609056Y-9942960D01*
X9609056Y-9942960D02*
X9590008Y-9952484D01*
X9590008Y-9952484D02*
X9570961Y-9952484D01*
X9570961Y-9952484D02*
X9551913Y-9942960D01*
X9551913Y-9942960D02*
X9542389Y-9933436D01*
X9542389Y-9933436D02*
X9532865Y-9914389D01*
X9532865Y-9914389D02*
X9523342Y-9876293D01*
X9523342Y-9876293D02*
X9523342Y-9828674D01*
X9523342Y-9828674D02*
X9532865Y-9790579D01*
X9532865Y-9790579D02*
X9542389Y-9771531D01*
X9542389Y-9771531D02*
X9551913Y-9762008D01*
X9551913Y-9762008D02*
X9570961Y-9752484D01*
X9723342Y-9952484D02*
X9723342Y-9819150D01*
X9723342Y-9838198D02*
X9732865Y-9828674D01*
X9732865Y-9828674D02*
X9751913Y-9819150D01*
X9751913Y-9819150D02*
X9780484Y-9819150D01*
X9780484Y-9819150D02*
X9799532Y-9828674D01*
X9799532Y-9828674D02*
X9809056Y-9847722D01*
X9809056Y-9847722D02*
X9809056Y-9952484D01*
X9809056Y-9847722D02*
X9818580Y-9828674D01*
X9818580Y-9828674D02*
X9837627Y-9819150D01*
X9837627Y-9819150D02*
X9866199Y-9819150D01*
X9866199Y-9819150D02*
X9885246Y-9828674D01*
X9885246Y-9828674D02*
X9894770Y-9847722D01*
X9894770Y-9847722D02*
X9894770Y-9952484D01*
X9990008Y-9952484D02*
X9990008Y-9819150D01*
X9990008Y-9838198D02*
X9999532Y-9828674D01*
X9999532Y-9828674D02*
X10018580Y-9819150D01*
X10018580Y-9819150D02*
X10047151Y-9819150D01*
X10047151Y-9819150D02*
X10066199Y-9828674D01*
X10066199Y-9828674D02*
X10075723Y-9847722D01*
X10075723Y-9847722D02*
X10075723Y-9952484D01*
X10075723Y-9847722D02*
X10085246Y-9828674D01*
X10085246Y-9828674D02*
X10104294Y-9819150D01*
X10104294Y-9819150D02*
X10132865Y-9819150D01*
X10132865Y-9819150D02*
X10151913Y-9828674D01*
X10151913Y-9828674D02*
X10161437Y-9847722D01*
X10161437Y-9847722D02*
X10161437Y-9952484D01*
X10551913Y-9742960D02*
X10380485Y-10000103D01*
X10809056Y-9752484D02*
X10828104Y-9752484D01*
X10828104Y-9752484D02*
X10847151Y-9762008D01*
X10847151Y-9762008D02*
X10856675Y-9771531D01*
X10856675Y-9771531D02*
X10866199Y-9790579D01*
X10866199Y-9790579D02*
X10875723Y-9828674D01*
X10875723Y-9828674D02*
X10875723Y-9876293D01*
X10875723Y-9876293D02*
X10866199Y-9914389D01*
X10866199Y-9914389D02*
X10856675Y-9933436D01*
X10856675Y-9933436D02*
X10847151Y-9942960D01*
X10847151Y-9942960D02*
X10828104Y-9952484D01*
X10828104Y-9952484D02*
X10809056Y-9952484D01*
X10809056Y-9952484D02*
X10790008Y-9942960D01*
X10790008Y-9942960D02*
X10780485Y-9933436D01*
X10780485Y-9933436D02*
X10770961Y-9914389D01*
X10770961Y-9914389D02*
X10761437Y-9876293D01*
X10761437Y-9876293D02*
X10761437Y-9828674D01*
X10761437Y-9828674D02*
X10770961Y-9790579D01*
X10770961Y-9790579D02*
X10780485Y-9771531D01*
X10780485Y-9771531D02*
X10790008Y-9762008D01*
X10790008Y-9762008D02*
X10809056Y-9752484D01*
X10961437Y-9933436D02*
X10970961Y-9942960D01*
X10970961Y-9942960D02*
X10961437Y-9952484D01*
X10961437Y-9952484D02*
X10951913Y-9942960D01*
X10951913Y-9942960D02*
X10961437Y-9933436D01*
X10961437Y-9933436D02*
X10961437Y-9952484D01*
X11094770Y-9752484D02*
X11113818Y-9752484D01*
X11113818Y-9752484D02*
X11132866Y-9762008D01*
X11132866Y-9762008D02*
X11142389Y-9771531D01*
X11142389Y-9771531D02*
X11151913Y-9790579D01*
X11151913Y-9790579D02*
X11161437Y-9828674D01*
X11161437Y-9828674D02*
X11161437Y-9876293D01*
X11161437Y-9876293D02*
X11151913Y-9914389D01*
X11151913Y-9914389D02*
X11142389Y-9933436D01*
X11142389Y-9933436D02*
X11132866Y-9942960D01*
X11132866Y-9942960D02*
X11113818Y-9952484D01*
X11113818Y-9952484D02*
X11094770Y-9952484D01*
X11094770Y-9952484D02*
X11075723Y-9942960D01*
X11075723Y-9942960D02*
X11066199Y-9933436D01*
X11066199Y-9933436D02*
X11056675Y-9914389D01*
X11056675Y-9914389D02*
X11047151Y-9876293D01*
X11047151Y-9876293D02*
X11047151Y-9828674D01*
X11047151Y-9828674D02*
X11056675Y-9790579D01*
X11056675Y-9790579D02*
X11066199Y-9771531D01*
X11066199Y-9771531D02*
X11075723Y-9762008D01*
X11075723Y-9762008D02*
X11094770Y-9752484D01*
X11228104Y-9752484D02*
X11351913Y-9752484D01*
X11351913Y-9752484D02*
X11285246Y-9828674D01*
X11285246Y-9828674D02*
X11313818Y-9828674D01*
X11313818Y-9828674D02*
X11332865Y-9838198D01*
X11332865Y-9838198D02*
X11342389Y-9847722D01*
X11342389Y-9847722D02*
X11351913Y-9866770D01*
X11351913Y-9866770D02*
X11351913Y-9914389D01*
X11351913Y-9914389D02*
X11342389Y-9933436D01*
X11342389Y-9933436D02*
X11332865Y-9942960D01*
X11332865Y-9942960D02*
X11313818Y-9952484D01*
X11313818Y-9952484D02*
X11256675Y-9952484D01*
X11256675Y-9952484D02*
X11237627Y-9942960D01*
X11237627Y-9942960D02*
X11228104Y-9933436D01*
X11447151Y-9952484D02*
X11485246Y-9952484D01*
X11485246Y-9952484D02*
X11504294Y-9942960D01*
X11504294Y-9942960D02*
X11513818Y-9933436D01*
X11513818Y-9933436D02*
X11532865Y-9904865D01*
X11532865Y-9904865D02*
X11542389Y-9866770D01*
X11542389Y-9866770D02*
X11542389Y-9790579D01*
X11542389Y-9790579D02*
X11532865Y-9771531D01*
X11532865Y-9771531D02*
X11523342Y-9762008D01*
X11523342Y-9762008D02*
X11504294Y-9752484D01*
X11504294Y-9752484D02*
X11466199Y-9752484D01*
X11466199Y-9752484D02*
X11447151Y-9762008D01*
X11447151Y-9762008D02*
X11437627Y-9771531D01*
X11437627Y-9771531D02*
X11428104Y-9790579D01*
X11428104Y-9790579D02*
X11428104Y-9838198D01*
X11428104Y-9838198D02*
X11437627Y-9857246D01*
X11437627Y-9857246D02*
X11447151Y-9866770D01*
X11447151Y-9866770D02*
X11466199Y-9876293D01*
X11466199Y-9876293D02*
X11504294Y-9876293D01*
X11504294Y-9876293D02*
X11523342Y-9866770D01*
X11523342Y-9866770D02*
X11532865Y-9857246D01*
X11532865Y-9857246D02*
X11542389Y-9838198D01*
X11713818Y-9819150D02*
X11713818Y-9952484D01*
X11666199Y-9742960D02*
X11618580Y-9885817D01*
X11618580Y-9885817D02*
X11742389Y-9885817D01*
X11809056Y-9752484D02*
X11809056Y-9790579D01*
X11885246Y-9752484D02*
X11885246Y-9790579D01*
X12180485Y-10028674D02*
X12170961Y-10019150D01*
X12170961Y-10019150D02*
X12151913Y-9990579D01*
X12151913Y-9990579D02*
X12142389Y-9971531D01*
X12142389Y-9971531D02*
X12132866Y-9942960D01*
X12132866Y-9942960D02*
X12123342Y-9895341D01*
X12123342Y-9895341D02*
X12123342Y-9857246D01*
X12123342Y-9857246D02*
X12132866Y-9809627D01*
X12132866Y-9809627D02*
X12142389Y-9781055D01*
X12142389Y-9781055D02*
X12151913Y-9762008D01*
X12151913Y-9762008D02*
X12170961Y-9733436D01*
X12170961Y-9733436D02*
X12180485Y-9723912D01*
X12237627Y-9752484D02*
X12370961Y-9752484D01*
X12370961Y-9752484D02*
X12285246Y-9952484D01*
X12599532Y-9952484D02*
X12599532Y-9752484D01*
X12685247Y-9952484D02*
X12685247Y-9847722D01*
X12685247Y-9847722D02*
X12675723Y-9828674D01*
X12675723Y-9828674D02*
X12656675Y-9819150D01*
X12656675Y-9819150D02*
X12628104Y-9819150D01*
X12628104Y-9819150D02*
X12609056Y-9828674D01*
X12609056Y-9828674D02*
X12599532Y-9838198D01*
X12809056Y-9952484D02*
X12790008Y-9942960D01*
X12790008Y-9942960D02*
X12780485Y-9933436D01*
X12780485Y-9933436D02*
X12770961Y-9914389D01*
X12770961Y-9914389D02*
X12770961Y-9857246D01*
X12770961Y-9857246D02*
X12780485Y-9838198D01*
X12780485Y-9838198D02*
X12790008Y-9828674D01*
X12790008Y-9828674D02*
X12809056Y-9819150D01*
X12809056Y-9819150D02*
X12837628Y-9819150D01*
X12837628Y-9819150D02*
X12856675Y-9828674D01*
X12856675Y-9828674D02*
X12866199Y-9838198D01*
X12866199Y-9838198D02*
X12875723Y-9857246D01*
X12875723Y-9857246D02*
X12875723Y-9914389D01*
X12875723Y-9914389D02*
X12866199Y-9933436D01*
X12866199Y-9933436D02*
X12856675Y-9942960D01*
X12856675Y-9942960D02*
X12837628Y-9952484D01*
X12837628Y-9952484D02*
X12809056Y-9952484D01*
X12990008Y-9952484D02*
X12970961Y-9942960D01*
X12970961Y-9942960D02*
X12961437Y-9923912D01*
X12961437Y-9923912D02*
X12961437Y-9752484D01*
X13142389Y-9942960D02*
X13123342Y-9952484D01*
X13123342Y-9952484D02*
X13085247Y-9952484D01*
X13085247Y-9952484D02*
X13066199Y-9942960D01*
X13066199Y-9942960D02*
X13056675Y-9923912D01*
X13056675Y-9923912D02*
X13056675Y-9847722D01*
X13056675Y-9847722D02*
X13066199Y-9828674D01*
X13066199Y-9828674D02*
X13085247Y-9819150D01*
X13085247Y-9819150D02*
X13123342Y-9819150D01*
X13123342Y-9819150D02*
X13142389Y-9828674D01*
X13142389Y-9828674D02*
X13151913Y-9847722D01*
X13151913Y-9847722D02*
X13151913Y-9866770D01*
X13151913Y-9866770D02*
X13056675Y-9885817D01*
X13228104Y-9942960D02*
X13247151Y-9952484D01*
X13247151Y-9952484D02*
X13285247Y-9952484D01*
X13285247Y-9952484D02*
X13304294Y-9942960D01*
X13304294Y-9942960D02*
X13313818Y-9923912D01*
X13313818Y-9923912D02*
X13313818Y-9914389D01*
X13313818Y-9914389D02*
X13304294Y-9895341D01*
X13304294Y-9895341D02*
X13285247Y-9885817D01*
X13285247Y-9885817D02*
X13256675Y-9885817D01*
X13256675Y-9885817D02*
X13237628Y-9876293D01*
X13237628Y-9876293D02*
X13228104Y-9857246D01*
X13228104Y-9857246D02*
X13228104Y-9847722D01*
X13228104Y-9847722D02*
X13237628Y-9828674D01*
X13237628Y-9828674D02*
X13256675Y-9819150D01*
X13256675Y-9819150D02*
X13285247Y-9819150D01*
X13285247Y-9819150D02*
X13304294Y-9828674D01*
X13380485Y-10028674D02*
X13390009Y-10019150D01*
X13390009Y-10019150D02*
X13409056Y-9990579D01*
X13409056Y-9990579D02*
X13418580Y-9971531D01*
X13418580Y-9971531D02*
X13428104Y-9942960D01*
X13428104Y-9942960D02*
X13437628Y-9895341D01*
X13437628Y-9895341D02*
X13437628Y-9857246D01*
X13437628Y-9857246D02*
X13428104Y-9809627D01*
X13428104Y-9809627D02*
X13418580Y-9781055D01*
X13418580Y-9781055D02*
X13409056Y-9762008D01*
X13409056Y-9762008D02*
X13390009Y-9733436D01*
X13390009Y-9733436D02*
X13380485Y-9723912D01*
D13*
X8495422Y-10070000D02*
X8605422Y-10180000D01*
X8605422Y-10070000D02*
X8495422Y-10180000D01*
X8605422Y-10125000D02*
G75*
G02*
X8495422Y-10125000I-55000J0D01*
G01*
X8495422Y-10125000D02*
G75*
G02*
X8605422Y-10125000I55000J0D01*
G01*
D12*
X8970961Y-10216484D02*
X8856675Y-10216484D01*
X8913818Y-10216484D02*
X8913818Y-10016484D01*
X8913818Y-10016484D02*
X8894770Y-10045055D01*
X8894770Y-10045055D02*
X8875722Y-10064103D01*
X8875722Y-10064103D02*
X8856675Y-10073627D01*
X9056675Y-10197436D02*
X9066199Y-10206960D01*
X9066199Y-10206960D02*
X9056675Y-10216484D01*
X9056675Y-10216484D02*
X9047151Y-10206960D01*
X9047151Y-10206960D02*
X9056675Y-10197436D01*
X9056675Y-10197436D02*
X9056675Y-10216484D01*
X9256675Y-10216484D02*
X9142389Y-10216484D01*
X9199532Y-10216484D02*
X9199532Y-10016484D01*
X9199532Y-10016484D02*
X9180484Y-10045055D01*
X9180484Y-10045055D02*
X9161437Y-10064103D01*
X9161437Y-10064103D02*
X9142389Y-10073627D01*
X9380484Y-10016484D02*
X9399532Y-10016484D01*
X9399532Y-10016484D02*
X9418580Y-10026008D01*
X9418580Y-10026008D02*
X9428103Y-10035531D01*
X9428103Y-10035531D02*
X9437627Y-10054579D01*
X9437627Y-10054579D02*
X9447151Y-10092674D01*
X9447151Y-10092674D02*
X9447151Y-10140293D01*
X9447151Y-10140293D02*
X9437627Y-10178389D01*
X9437627Y-10178389D02*
X9428103Y-10197436D01*
X9428103Y-10197436D02*
X9418580Y-10206960D01*
X9418580Y-10206960D02*
X9399532Y-10216484D01*
X9399532Y-10216484D02*
X9380484Y-10216484D01*
X9380484Y-10216484D02*
X9361437Y-10206960D01*
X9361437Y-10206960D02*
X9351913Y-10197436D01*
X9351913Y-10197436D02*
X9342389Y-10178389D01*
X9342389Y-10178389D02*
X9332865Y-10140293D01*
X9332865Y-10140293D02*
X9332865Y-10092674D01*
X9332865Y-10092674D02*
X9342389Y-10054579D01*
X9342389Y-10054579D02*
X9351913Y-10035531D01*
X9351913Y-10035531D02*
X9361437Y-10026008D01*
X9361437Y-10026008D02*
X9380484Y-10016484D01*
X9570961Y-10016484D02*
X9590008Y-10016484D01*
X9590008Y-10016484D02*
X9609056Y-10026008D01*
X9609056Y-10026008D02*
X9618580Y-10035531D01*
X9618580Y-10035531D02*
X9628103Y-10054579D01*
X9628103Y-10054579D02*
X9637627Y-10092674D01*
X9637627Y-10092674D02*
X9637627Y-10140293D01*
X9637627Y-10140293D02*
X9628103Y-10178389D01*
X9628103Y-10178389D02*
X9618580Y-10197436D01*
X9618580Y-10197436D02*
X9609056Y-10206960D01*
X9609056Y-10206960D02*
X9590008Y-10216484D01*
X9590008Y-10216484D02*
X9570961Y-10216484D01*
X9570961Y-10216484D02*
X9551913Y-10206960D01*
X9551913Y-10206960D02*
X9542389Y-10197436D01*
X9542389Y-10197436D02*
X9532865Y-10178389D01*
X9532865Y-10178389D02*
X9523342Y-10140293D01*
X9523342Y-10140293D02*
X9523342Y-10092674D01*
X9523342Y-10092674D02*
X9532865Y-10054579D01*
X9532865Y-10054579D02*
X9542389Y-10035531D01*
X9542389Y-10035531D02*
X9551913Y-10026008D01*
X9551913Y-10026008D02*
X9570961Y-10016484D01*
X9723342Y-10216484D02*
X9723342Y-10083150D01*
X9723342Y-10102198D02*
X9732865Y-10092674D01*
X9732865Y-10092674D02*
X9751913Y-10083150D01*
X9751913Y-10083150D02*
X9780484Y-10083150D01*
X9780484Y-10083150D02*
X9799532Y-10092674D01*
X9799532Y-10092674D02*
X9809056Y-10111722D01*
X9809056Y-10111722D02*
X9809056Y-10216484D01*
X9809056Y-10111722D02*
X9818580Y-10092674D01*
X9818580Y-10092674D02*
X9837627Y-10083150D01*
X9837627Y-10083150D02*
X9866199Y-10083150D01*
X9866199Y-10083150D02*
X9885246Y-10092674D01*
X9885246Y-10092674D02*
X9894770Y-10111722D01*
X9894770Y-10111722D02*
X9894770Y-10216484D01*
X9990008Y-10216484D02*
X9990008Y-10083150D01*
X9990008Y-10102198D02*
X9999532Y-10092674D01*
X9999532Y-10092674D02*
X10018580Y-10083150D01*
X10018580Y-10083150D02*
X10047151Y-10083150D01*
X10047151Y-10083150D02*
X10066199Y-10092674D01*
X10066199Y-10092674D02*
X10075723Y-10111722D01*
X10075723Y-10111722D02*
X10075723Y-10216484D01*
X10075723Y-10111722D02*
X10085246Y-10092674D01*
X10085246Y-10092674D02*
X10104294Y-10083150D01*
X10104294Y-10083150D02*
X10132865Y-10083150D01*
X10132865Y-10083150D02*
X10151913Y-10092674D01*
X10151913Y-10092674D02*
X10161437Y-10111722D01*
X10161437Y-10111722D02*
X10161437Y-10216484D01*
X10551913Y-10006960D02*
X10380485Y-10264103D01*
X10809056Y-10016484D02*
X10828104Y-10016484D01*
X10828104Y-10016484D02*
X10847151Y-10026008D01*
X10847151Y-10026008D02*
X10856675Y-10035531D01*
X10856675Y-10035531D02*
X10866199Y-10054579D01*
X10866199Y-10054579D02*
X10875723Y-10092674D01*
X10875723Y-10092674D02*
X10875723Y-10140293D01*
X10875723Y-10140293D02*
X10866199Y-10178389D01*
X10866199Y-10178389D02*
X10856675Y-10197436D01*
X10856675Y-10197436D02*
X10847151Y-10206960D01*
X10847151Y-10206960D02*
X10828104Y-10216484D01*
X10828104Y-10216484D02*
X10809056Y-10216484D01*
X10809056Y-10216484D02*
X10790008Y-10206960D01*
X10790008Y-10206960D02*
X10780485Y-10197436D01*
X10780485Y-10197436D02*
X10770961Y-10178389D01*
X10770961Y-10178389D02*
X10761437Y-10140293D01*
X10761437Y-10140293D02*
X10761437Y-10092674D01*
X10761437Y-10092674D02*
X10770961Y-10054579D01*
X10770961Y-10054579D02*
X10780485Y-10035531D01*
X10780485Y-10035531D02*
X10790008Y-10026008D01*
X10790008Y-10026008D02*
X10809056Y-10016484D01*
X10961437Y-10197436D02*
X10970961Y-10206960D01*
X10970961Y-10206960D02*
X10961437Y-10216484D01*
X10961437Y-10216484D02*
X10951913Y-10206960D01*
X10951913Y-10206960D02*
X10961437Y-10197436D01*
X10961437Y-10197436D02*
X10961437Y-10216484D01*
X11094770Y-10016484D02*
X11113818Y-10016484D01*
X11113818Y-10016484D02*
X11132866Y-10026008D01*
X11132866Y-10026008D02*
X11142389Y-10035531D01*
X11142389Y-10035531D02*
X11151913Y-10054579D01*
X11151913Y-10054579D02*
X11161437Y-10092674D01*
X11161437Y-10092674D02*
X11161437Y-10140293D01*
X11161437Y-10140293D02*
X11151913Y-10178389D01*
X11151913Y-10178389D02*
X11142389Y-10197436D01*
X11142389Y-10197436D02*
X11132866Y-10206960D01*
X11132866Y-10206960D02*
X11113818Y-10216484D01*
X11113818Y-10216484D02*
X11094770Y-10216484D01*
X11094770Y-10216484D02*
X11075723Y-10206960D01*
X11075723Y-10206960D02*
X11066199Y-10197436D01*
X11066199Y-10197436D02*
X11056675Y-10178389D01*
X11056675Y-10178389D02*
X11047151Y-10140293D01*
X11047151Y-10140293D02*
X11047151Y-10092674D01*
X11047151Y-10092674D02*
X11056675Y-10054579D01*
X11056675Y-10054579D02*
X11066199Y-10035531D01*
X11066199Y-10035531D02*
X11075723Y-10026008D01*
X11075723Y-10026008D02*
X11094770Y-10016484D01*
X11332865Y-10083150D02*
X11332865Y-10216484D01*
X11285246Y-10006960D02*
X11237627Y-10149817D01*
X11237627Y-10149817D02*
X11361437Y-10149817D01*
X11418580Y-10016484D02*
X11542389Y-10016484D01*
X11542389Y-10016484D02*
X11475723Y-10092674D01*
X11475723Y-10092674D02*
X11504294Y-10092674D01*
X11504294Y-10092674D02*
X11523342Y-10102198D01*
X11523342Y-10102198D02*
X11532865Y-10111722D01*
X11532865Y-10111722D02*
X11542389Y-10130770D01*
X11542389Y-10130770D02*
X11542389Y-10178389D01*
X11542389Y-10178389D02*
X11532865Y-10197436D01*
X11532865Y-10197436D02*
X11523342Y-10206960D01*
X11523342Y-10206960D02*
X11504294Y-10216484D01*
X11504294Y-10216484D02*
X11447151Y-10216484D01*
X11447151Y-10216484D02*
X11428104Y-10206960D01*
X11428104Y-10206960D02*
X11418580Y-10197436D01*
X11609056Y-10016484D02*
X11732865Y-10016484D01*
X11732865Y-10016484D02*
X11666199Y-10092674D01*
X11666199Y-10092674D02*
X11694770Y-10092674D01*
X11694770Y-10092674D02*
X11713818Y-10102198D01*
X11713818Y-10102198D02*
X11723342Y-10111722D01*
X11723342Y-10111722D02*
X11732865Y-10130770D01*
X11732865Y-10130770D02*
X11732865Y-10178389D01*
X11732865Y-10178389D02*
X11723342Y-10197436D01*
X11723342Y-10197436D02*
X11713818Y-10206960D01*
X11713818Y-10206960D02*
X11694770Y-10216484D01*
X11694770Y-10216484D02*
X11637627Y-10216484D01*
X11637627Y-10216484D02*
X11618580Y-10206960D01*
X11618580Y-10206960D02*
X11609056Y-10197436D01*
X11809056Y-10016484D02*
X11809056Y-10054579D01*
X11885246Y-10016484D02*
X11885246Y-10054579D01*
X12180485Y-10292674D02*
X12170961Y-10283150D01*
X12170961Y-10283150D02*
X12151913Y-10254579D01*
X12151913Y-10254579D02*
X12142389Y-10235531D01*
X12142389Y-10235531D02*
X12132866Y-10206960D01*
X12132866Y-10206960D02*
X12123342Y-10159341D01*
X12123342Y-10159341D02*
X12123342Y-10121246D01*
X12123342Y-10121246D02*
X12132866Y-10073627D01*
X12132866Y-10073627D02*
X12142389Y-10045055D01*
X12142389Y-10045055D02*
X12151913Y-10026008D01*
X12151913Y-10026008D02*
X12170961Y-9997436D01*
X12170961Y-9997436D02*
X12180485Y-9987912D01*
X12247151Y-10035531D02*
X12256675Y-10026008D01*
X12256675Y-10026008D02*
X12275723Y-10016484D01*
X12275723Y-10016484D02*
X12323342Y-10016484D01*
X12323342Y-10016484D02*
X12342389Y-10026008D01*
X12342389Y-10026008D02*
X12351913Y-10035531D01*
X12351913Y-10035531D02*
X12361437Y-10054579D01*
X12361437Y-10054579D02*
X12361437Y-10073627D01*
X12361437Y-10073627D02*
X12351913Y-10102198D01*
X12351913Y-10102198D02*
X12237627Y-10216484D01*
X12237627Y-10216484D02*
X12361437Y-10216484D01*
X12599532Y-10216484D02*
X12599532Y-10016484D01*
X12685247Y-10216484D02*
X12685247Y-10111722D01*
X12685247Y-10111722D02*
X12675723Y-10092674D01*
X12675723Y-10092674D02*
X12656675Y-10083150D01*
X12656675Y-10083150D02*
X12628104Y-10083150D01*
X12628104Y-10083150D02*
X12609056Y-10092674D01*
X12609056Y-10092674D02*
X12599532Y-10102198D01*
X12809056Y-10216484D02*
X12790008Y-10206960D01*
X12790008Y-10206960D02*
X12780485Y-10197436D01*
X12780485Y-10197436D02*
X12770961Y-10178389D01*
X12770961Y-10178389D02*
X12770961Y-10121246D01*
X12770961Y-10121246D02*
X12780485Y-10102198D01*
X12780485Y-10102198D02*
X12790008Y-10092674D01*
X12790008Y-10092674D02*
X12809056Y-10083150D01*
X12809056Y-10083150D02*
X12837628Y-10083150D01*
X12837628Y-10083150D02*
X12856675Y-10092674D01*
X12856675Y-10092674D02*
X12866199Y-10102198D01*
X12866199Y-10102198D02*
X12875723Y-10121246D01*
X12875723Y-10121246D02*
X12875723Y-10178389D01*
X12875723Y-10178389D02*
X12866199Y-10197436D01*
X12866199Y-10197436D02*
X12856675Y-10206960D01*
X12856675Y-10206960D02*
X12837628Y-10216484D01*
X12837628Y-10216484D02*
X12809056Y-10216484D01*
X12990008Y-10216484D02*
X12970961Y-10206960D01*
X12970961Y-10206960D02*
X12961437Y-10187912D01*
X12961437Y-10187912D02*
X12961437Y-10016484D01*
X13142389Y-10206960D02*
X13123342Y-10216484D01*
X13123342Y-10216484D02*
X13085247Y-10216484D01*
X13085247Y-10216484D02*
X13066199Y-10206960D01*
X13066199Y-10206960D02*
X13056675Y-10187912D01*
X13056675Y-10187912D02*
X13056675Y-10111722D01*
X13056675Y-10111722D02*
X13066199Y-10092674D01*
X13066199Y-10092674D02*
X13085247Y-10083150D01*
X13085247Y-10083150D02*
X13123342Y-10083150D01*
X13123342Y-10083150D02*
X13142389Y-10092674D01*
X13142389Y-10092674D02*
X13151913Y-10111722D01*
X13151913Y-10111722D02*
X13151913Y-10130770D01*
X13151913Y-10130770D02*
X13056675Y-10149817D01*
X13228104Y-10206960D02*
X13247151Y-10216484D01*
X13247151Y-10216484D02*
X13285247Y-10216484D01*
X13285247Y-10216484D02*
X13304294Y-10206960D01*
X13304294Y-10206960D02*
X13313818Y-10187912D01*
X13313818Y-10187912D02*
X13313818Y-10178389D01*
X13313818Y-10178389D02*
X13304294Y-10159341D01*
X13304294Y-10159341D02*
X13285247Y-10149817D01*
X13285247Y-10149817D02*
X13256675Y-10149817D01*
X13256675Y-10149817D02*
X13237628Y-10140293D01*
X13237628Y-10140293D02*
X13228104Y-10121246D01*
X13228104Y-10121246D02*
X13228104Y-10111722D01*
X13228104Y-10111722D02*
X13237628Y-10092674D01*
X13237628Y-10092674D02*
X13256675Y-10083150D01*
X13256675Y-10083150D02*
X13285247Y-10083150D01*
X13285247Y-10083150D02*
X13304294Y-10092674D01*
X13380485Y-10292674D02*
X13390009Y-10283150D01*
X13390009Y-10283150D02*
X13409056Y-10254579D01*
X13409056Y-10254579D02*
X13418580Y-10235531D01*
X13418580Y-10235531D02*
X13428104Y-10206960D01*
X13428104Y-10206960D02*
X13437628Y-10159341D01*
X13437628Y-10159341D02*
X13437628Y-10121246D01*
X13437628Y-10121246D02*
X13428104Y-10073627D01*
X13428104Y-10073627D02*
X13418580Y-10045055D01*
X13418580Y-10045055D02*
X13409056Y-10026008D01*
X13409056Y-10026008D02*
X13390009Y-9997436D01*
X13390009Y-9997436D02*
X13380485Y-9987912D01*
M02*
