%TF.GenerationSoftware,KiCad,Pcbnew,8.0.9-8.0.9-0~ubuntu22.04.1*%
%TF.CreationDate,2025-08-10T04:03:38+02:00*%
%TF.ProjectId,H-C3-ulp29,482d4333-2d75-46c7-9032-392e6b696361,rev?*%
%TF.SameCoordinates,Original*%
%TF.FileFunction,Drillmap*%
%TF.FilePolarity,Positive*%
%FSLAX45Y45*%
G04 Gerber Fmt 4.5, Leading zero omitted, Abs format (unit mm)*
G04 Created by KiCad (PCBNEW 8.0.9-8.0.9-0~ubuntu22.04.1) date 2025-08-10 04:03:38*
%MOMM*%
%LPD*%
G01*
G04 APERTURE LIST*
%ADD10C,0.100000*%
%ADD11C,0.050000*%
%ADD12C,0.200000*%
G04 APERTURE END LIST*
D10*
X16830181Y-4451214D02*
G75*
G02*
X16950000Y-4572700I-1881J-121686D01*
G01*
D11*
X12070699Y-4423641D02*
G75*
G02*
X12070999Y-4121539I151J151051D01*
G01*
D10*
X8610422Y-4579000D02*
G75*
G02*
X8740000Y-4449722I129278J0D01*
G01*
D11*
X13477199Y-4121241D02*
G75*
G02*
X13476899Y-4423639I-149J-151199D01*
G01*
D10*
X16950000Y-4572700D02*
X16950000Y-5550000D01*
X16830181Y-4451214D02*
X14152601Y-4450000D01*
X13702199Y-3949697D02*
G75*
G02*
X14152502Y-4399800I1J-450303D01*
G01*
X11844099Y-3949697D02*
X13702199Y-3949697D01*
X16800000Y-6960000D02*
X16950000Y-6960000D01*
X16950000Y-6960000D02*
X16950000Y-8030000D01*
X16950000Y-8030423D02*
G75*
G02*
X16819823Y-8160001I-130180J603D01*
G01*
X16800000Y-5550000D02*
X16800000Y-6960000D01*
X14152500Y-4399800D02*
X14152601Y-4450000D01*
X8739999Y-8160000D02*
G75*
G02*
X8610419Y-8029823I601J130180D01*
G01*
D11*
X12070699Y-4423641D02*
X13476899Y-4423641D01*
D10*
X16800000Y-5550000D02*
X16950000Y-5550000D01*
X8739999Y-8160000D02*
X16819823Y-8160000D01*
D11*
X12070999Y-4121541D02*
X12713197Y-4121222D01*
D10*
X11394171Y-4450000D02*
X11394070Y-4399800D01*
D11*
X12846601Y-4120959D02*
X13477199Y-4121241D01*
D10*
X8610422Y-4579000D02*
X8610422Y-8030000D01*
X11394070Y-4399800D02*
G75*
G02*
X11844099Y-3949500I450030J270D01*
G01*
D11*
X12713198Y-4121222D02*
G75*
G02*
X12846606Y-4120959I66702J1002D01*
G01*
D10*
X11394171Y-4450000D02*
X8740000Y-4449722D01*
D12*
D10*
X12447000Y-7446900D02*
X12512000Y-7511900D01*
X12512000Y-7446900D02*
X12447000Y-7511900D01*
X13025000Y-7446900D02*
X13090000Y-7511900D01*
X13090000Y-7446900D02*
X13025000Y-7511900D01*
D12*
X8866199Y-8476484D02*
X8866199Y-8276484D01*
X8866199Y-8276484D02*
X8913818Y-8276484D01*
X8913818Y-8276484D02*
X8942389Y-8286008D01*
X8942389Y-8286008D02*
X8961437Y-8305055D01*
X8961437Y-8305055D02*
X8970961Y-8324103D01*
X8970961Y-8324103D02*
X8980484Y-8362198D01*
X8980484Y-8362198D02*
X8980484Y-8390770D01*
X8980484Y-8390770D02*
X8970961Y-8428865D01*
X8970961Y-8428865D02*
X8961437Y-8447912D01*
X8961437Y-8447912D02*
X8942389Y-8466960D01*
X8942389Y-8466960D02*
X8913818Y-8476484D01*
X8913818Y-8476484D02*
X8866199Y-8476484D01*
X9066199Y-8476484D02*
X9066199Y-8343150D01*
X9066199Y-8381246D02*
X9075722Y-8362198D01*
X9075722Y-8362198D02*
X9085246Y-8352674D01*
X9085246Y-8352674D02*
X9104294Y-8343150D01*
X9104294Y-8343150D02*
X9123342Y-8343150D01*
X9190008Y-8476484D02*
X9190008Y-8343150D01*
X9190008Y-8276484D02*
X9180484Y-8286008D01*
X9180484Y-8286008D02*
X9190008Y-8295531D01*
X9190008Y-8295531D02*
X9199532Y-8286008D01*
X9199532Y-8286008D02*
X9190008Y-8276484D01*
X9190008Y-8276484D02*
X9190008Y-8295531D01*
X9313818Y-8476484D02*
X9294770Y-8466960D01*
X9294770Y-8466960D02*
X9285246Y-8447912D01*
X9285246Y-8447912D02*
X9285246Y-8276484D01*
X9418580Y-8476484D02*
X9399532Y-8466960D01*
X9399532Y-8466960D02*
X9390008Y-8447912D01*
X9390008Y-8447912D02*
X9390008Y-8276484D01*
X9647151Y-8476484D02*
X9647151Y-8276484D01*
X9647151Y-8276484D02*
X9713818Y-8419341D01*
X9713818Y-8419341D02*
X9780484Y-8276484D01*
X9780484Y-8276484D02*
X9780484Y-8476484D01*
X9961437Y-8476484D02*
X9961437Y-8371722D01*
X9961437Y-8371722D02*
X9951913Y-8352674D01*
X9951913Y-8352674D02*
X9932865Y-8343150D01*
X9932865Y-8343150D02*
X9894770Y-8343150D01*
X9894770Y-8343150D02*
X9875722Y-8352674D01*
X9961437Y-8466960D02*
X9942389Y-8476484D01*
X9942389Y-8476484D02*
X9894770Y-8476484D01*
X9894770Y-8476484D02*
X9875722Y-8466960D01*
X9875722Y-8466960D02*
X9866199Y-8447912D01*
X9866199Y-8447912D02*
X9866199Y-8428865D01*
X9866199Y-8428865D02*
X9875722Y-8409817D01*
X9875722Y-8409817D02*
X9894770Y-8400293D01*
X9894770Y-8400293D02*
X9942389Y-8400293D01*
X9942389Y-8400293D02*
X9961437Y-8390770D01*
X10056675Y-8343150D02*
X10056675Y-8543150D01*
X10056675Y-8352674D02*
X10075722Y-8343150D01*
X10075722Y-8343150D02*
X10113818Y-8343150D01*
X10113818Y-8343150D02*
X10132865Y-8352674D01*
X10132865Y-8352674D02*
X10142389Y-8362198D01*
X10142389Y-8362198D02*
X10151913Y-8381246D01*
X10151913Y-8381246D02*
X10151913Y-8438389D01*
X10151913Y-8438389D02*
X10142389Y-8457436D01*
X10142389Y-8457436D02*
X10132865Y-8466960D01*
X10132865Y-8466960D02*
X10113818Y-8476484D01*
X10113818Y-8476484D02*
X10075722Y-8476484D01*
X10075722Y-8476484D02*
X10056675Y-8466960D01*
X10237627Y-8457436D02*
X10247151Y-8466960D01*
X10247151Y-8466960D02*
X10237627Y-8476484D01*
X10237627Y-8476484D02*
X10228103Y-8466960D01*
X10228103Y-8466960D02*
X10237627Y-8457436D01*
X10237627Y-8457436D02*
X10237627Y-8476484D01*
X10237627Y-8352674D02*
X10247151Y-8362198D01*
X10247151Y-8362198D02*
X10237627Y-8371722D01*
X10237627Y-8371722D02*
X10228103Y-8362198D01*
X10228103Y-8362198D02*
X10237627Y-8352674D01*
X10237627Y-8352674D02*
X10237627Y-8371722D01*
D10*
X8540422Y-8772500D02*
X8605422Y-8837500D01*
X8605422Y-8772500D02*
X8540422Y-8837500D01*
D12*
X8904294Y-8696484D02*
X8923342Y-8696484D01*
X8923342Y-8696484D02*
X8942389Y-8706008D01*
X8942389Y-8706008D02*
X8951913Y-8715531D01*
X8951913Y-8715531D02*
X8961437Y-8734579D01*
X8961437Y-8734579D02*
X8970961Y-8772674D01*
X8970961Y-8772674D02*
X8970961Y-8820293D01*
X8970961Y-8820293D02*
X8961437Y-8858389D01*
X8961437Y-8858389D02*
X8951913Y-8877436D01*
X8951913Y-8877436D02*
X8942389Y-8886960D01*
X8942389Y-8886960D02*
X8923342Y-8896484D01*
X8923342Y-8896484D02*
X8904294Y-8896484D01*
X8904294Y-8896484D02*
X8885246Y-8886960D01*
X8885246Y-8886960D02*
X8875722Y-8877436D01*
X8875722Y-8877436D02*
X8866199Y-8858389D01*
X8866199Y-8858389D02*
X8856675Y-8820293D01*
X8856675Y-8820293D02*
X8856675Y-8772674D01*
X8856675Y-8772674D02*
X8866199Y-8734579D01*
X8866199Y-8734579D02*
X8875722Y-8715531D01*
X8875722Y-8715531D02*
X8885246Y-8706008D01*
X8885246Y-8706008D02*
X8904294Y-8696484D01*
X9056675Y-8877436D02*
X9066199Y-8886960D01*
X9066199Y-8886960D02*
X9056675Y-8896484D01*
X9056675Y-8896484D02*
X9047151Y-8886960D01*
X9047151Y-8886960D02*
X9056675Y-8877436D01*
X9056675Y-8877436D02*
X9056675Y-8896484D01*
X9237627Y-8696484D02*
X9199532Y-8696484D01*
X9199532Y-8696484D02*
X9180484Y-8706008D01*
X9180484Y-8706008D02*
X9170961Y-8715531D01*
X9170961Y-8715531D02*
X9151913Y-8744103D01*
X9151913Y-8744103D02*
X9142389Y-8782198D01*
X9142389Y-8782198D02*
X9142389Y-8858389D01*
X9142389Y-8858389D02*
X9151913Y-8877436D01*
X9151913Y-8877436D02*
X9161437Y-8886960D01*
X9161437Y-8886960D02*
X9180484Y-8896484D01*
X9180484Y-8896484D02*
X9218580Y-8896484D01*
X9218580Y-8896484D02*
X9237627Y-8886960D01*
X9237627Y-8886960D02*
X9247151Y-8877436D01*
X9247151Y-8877436D02*
X9256675Y-8858389D01*
X9256675Y-8858389D02*
X9256675Y-8810770D01*
X9256675Y-8810770D02*
X9247151Y-8791722D01*
X9247151Y-8791722D02*
X9237627Y-8782198D01*
X9237627Y-8782198D02*
X9218580Y-8772674D01*
X9218580Y-8772674D02*
X9180484Y-8772674D01*
X9180484Y-8772674D02*
X9161437Y-8782198D01*
X9161437Y-8782198D02*
X9151913Y-8791722D01*
X9151913Y-8791722D02*
X9142389Y-8810770D01*
X9437627Y-8696484D02*
X9342389Y-8696484D01*
X9342389Y-8696484D02*
X9332865Y-8791722D01*
X9332865Y-8791722D02*
X9342389Y-8782198D01*
X9342389Y-8782198D02*
X9361437Y-8772674D01*
X9361437Y-8772674D02*
X9409056Y-8772674D01*
X9409056Y-8772674D02*
X9428103Y-8782198D01*
X9428103Y-8782198D02*
X9437627Y-8791722D01*
X9437627Y-8791722D02*
X9447151Y-8810770D01*
X9447151Y-8810770D02*
X9447151Y-8858389D01*
X9447151Y-8858389D02*
X9437627Y-8877436D01*
X9437627Y-8877436D02*
X9428103Y-8886960D01*
X9428103Y-8886960D02*
X9409056Y-8896484D01*
X9409056Y-8896484D02*
X9361437Y-8896484D01*
X9361437Y-8896484D02*
X9342389Y-8886960D01*
X9342389Y-8886960D02*
X9332865Y-8877436D01*
X9570961Y-8696484D02*
X9590008Y-8696484D01*
X9590008Y-8696484D02*
X9609056Y-8706008D01*
X9609056Y-8706008D02*
X9618580Y-8715531D01*
X9618580Y-8715531D02*
X9628103Y-8734579D01*
X9628103Y-8734579D02*
X9637627Y-8772674D01*
X9637627Y-8772674D02*
X9637627Y-8820293D01*
X9637627Y-8820293D02*
X9628103Y-8858389D01*
X9628103Y-8858389D02*
X9618580Y-8877436D01*
X9618580Y-8877436D02*
X9609056Y-8886960D01*
X9609056Y-8886960D02*
X9590008Y-8896484D01*
X9590008Y-8896484D02*
X9570961Y-8896484D01*
X9570961Y-8896484D02*
X9551913Y-8886960D01*
X9551913Y-8886960D02*
X9542389Y-8877436D01*
X9542389Y-8877436D02*
X9532865Y-8858389D01*
X9532865Y-8858389D02*
X9523342Y-8820293D01*
X9523342Y-8820293D02*
X9523342Y-8772674D01*
X9523342Y-8772674D02*
X9532865Y-8734579D01*
X9532865Y-8734579D02*
X9542389Y-8715531D01*
X9542389Y-8715531D02*
X9551913Y-8706008D01*
X9551913Y-8706008D02*
X9570961Y-8696484D01*
X9723342Y-8896484D02*
X9723342Y-8763150D01*
X9723342Y-8782198D02*
X9732865Y-8772674D01*
X9732865Y-8772674D02*
X9751913Y-8763150D01*
X9751913Y-8763150D02*
X9780484Y-8763150D01*
X9780484Y-8763150D02*
X9799532Y-8772674D01*
X9799532Y-8772674D02*
X9809056Y-8791722D01*
X9809056Y-8791722D02*
X9809056Y-8896484D01*
X9809056Y-8791722D02*
X9818580Y-8772674D01*
X9818580Y-8772674D02*
X9837627Y-8763150D01*
X9837627Y-8763150D02*
X9866199Y-8763150D01*
X9866199Y-8763150D02*
X9885246Y-8772674D01*
X9885246Y-8772674D02*
X9894770Y-8791722D01*
X9894770Y-8791722D02*
X9894770Y-8896484D01*
X9990008Y-8896484D02*
X9990008Y-8763150D01*
X9990008Y-8782198D02*
X9999532Y-8772674D01*
X9999532Y-8772674D02*
X10018580Y-8763150D01*
X10018580Y-8763150D02*
X10047151Y-8763150D01*
X10047151Y-8763150D02*
X10066199Y-8772674D01*
X10066199Y-8772674D02*
X10075723Y-8791722D01*
X10075723Y-8791722D02*
X10075723Y-8896484D01*
X10075723Y-8791722D02*
X10085246Y-8772674D01*
X10085246Y-8772674D02*
X10104294Y-8763150D01*
X10104294Y-8763150D02*
X10132865Y-8763150D01*
X10132865Y-8763150D02*
X10151913Y-8772674D01*
X10151913Y-8772674D02*
X10161437Y-8791722D01*
X10161437Y-8791722D02*
X10161437Y-8896484D01*
X10551913Y-8686960D02*
X10380485Y-8944103D01*
X10809056Y-8696484D02*
X10828104Y-8696484D01*
X10828104Y-8696484D02*
X10847151Y-8706008D01*
X10847151Y-8706008D02*
X10856675Y-8715531D01*
X10856675Y-8715531D02*
X10866199Y-8734579D01*
X10866199Y-8734579D02*
X10875723Y-8772674D01*
X10875723Y-8772674D02*
X10875723Y-8820293D01*
X10875723Y-8820293D02*
X10866199Y-8858389D01*
X10866199Y-8858389D02*
X10856675Y-8877436D01*
X10856675Y-8877436D02*
X10847151Y-8886960D01*
X10847151Y-8886960D02*
X10828104Y-8896484D01*
X10828104Y-8896484D02*
X10809056Y-8896484D01*
X10809056Y-8896484D02*
X10790008Y-8886960D01*
X10790008Y-8886960D02*
X10780485Y-8877436D01*
X10780485Y-8877436D02*
X10770961Y-8858389D01*
X10770961Y-8858389D02*
X10761437Y-8820293D01*
X10761437Y-8820293D02*
X10761437Y-8772674D01*
X10761437Y-8772674D02*
X10770961Y-8734579D01*
X10770961Y-8734579D02*
X10780485Y-8715531D01*
X10780485Y-8715531D02*
X10790008Y-8706008D01*
X10790008Y-8706008D02*
X10809056Y-8696484D01*
X10961437Y-8877436D02*
X10970961Y-8886960D01*
X10970961Y-8886960D02*
X10961437Y-8896484D01*
X10961437Y-8896484D02*
X10951913Y-8886960D01*
X10951913Y-8886960D02*
X10961437Y-8877436D01*
X10961437Y-8877436D02*
X10961437Y-8896484D01*
X11094770Y-8696484D02*
X11113818Y-8696484D01*
X11113818Y-8696484D02*
X11132866Y-8706008D01*
X11132866Y-8706008D02*
X11142389Y-8715531D01*
X11142389Y-8715531D02*
X11151913Y-8734579D01*
X11151913Y-8734579D02*
X11161437Y-8772674D01*
X11161437Y-8772674D02*
X11161437Y-8820293D01*
X11161437Y-8820293D02*
X11151913Y-8858389D01*
X11151913Y-8858389D02*
X11142389Y-8877436D01*
X11142389Y-8877436D02*
X11132866Y-8886960D01*
X11132866Y-8886960D02*
X11113818Y-8896484D01*
X11113818Y-8896484D02*
X11094770Y-8896484D01*
X11094770Y-8896484D02*
X11075723Y-8886960D01*
X11075723Y-8886960D02*
X11066199Y-8877436D01*
X11066199Y-8877436D02*
X11056675Y-8858389D01*
X11056675Y-8858389D02*
X11047151Y-8820293D01*
X11047151Y-8820293D02*
X11047151Y-8772674D01*
X11047151Y-8772674D02*
X11056675Y-8734579D01*
X11056675Y-8734579D02*
X11066199Y-8715531D01*
X11066199Y-8715531D02*
X11075723Y-8706008D01*
X11075723Y-8706008D02*
X11094770Y-8696484D01*
X11237627Y-8715531D02*
X11247151Y-8706008D01*
X11247151Y-8706008D02*
X11266199Y-8696484D01*
X11266199Y-8696484D02*
X11313818Y-8696484D01*
X11313818Y-8696484D02*
X11332865Y-8706008D01*
X11332865Y-8706008D02*
X11342389Y-8715531D01*
X11342389Y-8715531D02*
X11351913Y-8734579D01*
X11351913Y-8734579D02*
X11351913Y-8753627D01*
X11351913Y-8753627D02*
X11342389Y-8782198D01*
X11342389Y-8782198D02*
X11228104Y-8896484D01*
X11228104Y-8896484D02*
X11351913Y-8896484D01*
X11532865Y-8696484D02*
X11437627Y-8696484D01*
X11437627Y-8696484D02*
X11428104Y-8791722D01*
X11428104Y-8791722D02*
X11437627Y-8782198D01*
X11437627Y-8782198D02*
X11456675Y-8772674D01*
X11456675Y-8772674D02*
X11504294Y-8772674D01*
X11504294Y-8772674D02*
X11523342Y-8782198D01*
X11523342Y-8782198D02*
X11532865Y-8791722D01*
X11532865Y-8791722D02*
X11542389Y-8810770D01*
X11542389Y-8810770D02*
X11542389Y-8858389D01*
X11542389Y-8858389D02*
X11532865Y-8877436D01*
X11532865Y-8877436D02*
X11523342Y-8886960D01*
X11523342Y-8886960D02*
X11504294Y-8896484D01*
X11504294Y-8896484D02*
X11456675Y-8896484D01*
X11456675Y-8896484D02*
X11437627Y-8886960D01*
X11437627Y-8886960D02*
X11428104Y-8877436D01*
X11713818Y-8696484D02*
X11675723Y-8696484D01*
X11675723Y-8696484D02*
X11656675Y-8706008D01*
X11656675Y-8706008D02*
X11647151Y-8715531D01*
X11647151Y-8715531D02*
X11628104Y-8744103D01*
X11628104Y-8744103D02*
X11618580Y-8782198D01*
X11618580Y-8782198D02*
X11618580Y-8858389D01*
X11618580Y-8858389D02*
X11628104Y-8877436D01*
X11628104Y-8877436D02*
X11637627Y-8886960D01*
X11637627Y-8886960D02*
X11656675Y-8896484D01*
X11656675Y-8896484D02*
X11694770Y-8896484D01*
X11694770Y-8896484D02*
X11713818Y-8886960D01*
X11713818Y-8886960D02*
X11723342Y-8877436D01*
X11723342Y-8877436D02*
X11732865Y-8858389D01*
X11732865Y-8858389D02*
X11732865Y-8810770D01*
X11732865Y-8810770D02*
X11723342Y-8791722D01*
X11723342Y-8791722D02*
X11713818Y-8782198D01*
X11713818Y-8782198D02*
X11694770Y-8772674D01*
X11694770Y-8772674D02*
X11656675Y-8772674D01*
X11656675Y-8772674D02*
X11637627Y-8782198D01*
X11637627Y-8782198D02*
X11628104Y-8791722D01*
X11628104Y-8791722D02*
X11618580Y-8810770D01*
X11809056Y-8696484D02*
X11809056Y-8734579D01*
X11885246Y-8696484D02*
X11885246Y-8734579D01*
X12180485Y-8972674D02*
X12170961Y-8963150D01*
X12170961Y-8963150D02*
X12151913Y-8934579D01*
X12151913Y-8934579D02*
X12142389Y-8915531D01*
X12142389Y-8915531D02*
X12132866Y-8886960D01*
X12132866Y-8886960D02*
X12123342Y-8839341D01*
X12123342Y-8839341D02*
X12123342Y-8801246D01*
X12123342Y-8801246D02*
X12132866Y-8753627D01*
X12132866Y-8753627D02*
X12142389Y-8725055D01*
X12142389Y-8725055D02*
X12151913Y-8706008D01*
X12151913Y-8706008D02*
X12170961Y-8677436D01*
X12170961Y-8677436D02*
X12180485Y-8667912D01*
X12247151Y-8715531D02*
X12256675Y-8706008D01*
X12256675Y-8706008D02*
X12275723Y-8696484D01*
X12275723Y-8696484D02*
X12323342Y-8696484D01*
X12323342Y-8696484D02*
X12342389Y-8706008D01*
X12342389Y-8706008D02*
X12351913Y-8715531D01*
X12351913Y-8715531D02*
X12361437Y-8734579D01*
X12361437Y-8734579D02*
X12361437Y-8753627D01*
X12361437Y-8753627D02*
X12351913Y-8782198D01*
X12351913Y-8782198D02*
X12237627Y-8896484D01*
X12237627Y-8896484D02*
X12361437Y-8896484D01*
X12599532Y-8896484D02*
X12599532Y-8696484D01*
X12685247Y-8896484D02*
X12685247Y-8791722D01*
X12685247Y-8791722D02*
X12675723Y-8772674D01*
X12675723Y-8772674D02*
X12656675Y-8763150D01*
X12656675Y-8763150D02*
X12628104Y-8763150D01*
X12628104Y-8763150D02*
X12609056Y-8772674D01*
X12609056Y-8772674D02*
X12599532Y-8782198D01*
X12809056Y-8896484D02*
X12790008Y-8886960D01*
X12790008Y-8886960D02*
X12780485Y-8877436D01*
X12780485Y-8877436D02*
X12770961Y-8858389D01*
X12770961Y-8858389D02*
X12770961Y-8801246D01*
X12770961Y-8801246D02*
X12780485Y-8782198D01*
X12780485Y-8782198D02*
X12790008Y-8772674D01*
X12790008Y-8772674D02*
X12809056Y-8763150D01*
X12809056Y-8763150D02*
X12837628Y-8763150D01*
X12837628Y-8763150D02*
X12856675Y-8772674D01*
X12856675Y-8772674D02*
X12866199Y-8782198D01*
X12866199Y-8782198D02*
X12875723Y-8801246D01*
X12875723Y-8801246D02*
X12875723Y-8858389D01*
X12875723Y-8858389D02*
X12866199Y-8877436D01*
X12866199Y-8877436D02*
X12856675Y-8886960D01*
X12856675Y-8886960D02*
X12837628Y-8896484D01*
X12837628Y-8896484D02*
X12809056Y-8896484D01*
X12990008Y-8896484D02*
X12970961Y-8886960D01*
X12970961Y-8886960D02*
X12961437Y-8867912D01*
X12961437Y-8867912D02*
X12961437Y-8696484D01*
X13142389Y-8886960D02*
X13123342Y-8896484D01*
X13123342Y-8896484D02*
X13085247Y-8896484D01*
X13085247Y-8896484D02*
X13066199Y-8886960D01*
X13066199Y-8886960D02*
X13056675Y-8867912D01*
X13056675Y-8867912D02*
X13056675Y-8791722D01*
X13056675Y-8791722D02*
X13066199Y-8772674D01*
X13066199Y-8772674D02*
X13085247Y-8763150D01*
X13085247Y-8763150D02*
X13123342Y-8763150D01*
X13123342Y-8763150D02*
X13142389Y-8772674D01*
X13142389Y-8772674D02*
X13151913Y-8791722D01*
X13151913Y-8791722D02*
X13151913Y-8810770D01*
X13151913Y-8810770D02*
X13056675Y-8829817D01*
X13228104Y-8886960D02*
X13247151Y-8896484D01*
X13247151Y-8896484D02*
X13285247Y-8896484D01*
X13285247Y-8896484D02*
X13304294Y-8886960D01*
X13304294Y-8886960D02*
X13313818Y-8867912D01*
X13313818Y-8867912D02*
X13313818Y-8858389D01*
X13313818Y-8858389D02*
X13304294Y-8839341D01*
X13304294Y-8839341D02*
X13285247Y-8829817D01*
X13285247Y-8829817D02*
X13256675Y-8829817D01*
X13256675Y-8829817D02*
X13237628Y-8820293D01*
X13237628Y-8820293D02*
X13228104Y-8801246D01*
X13228104Y-8801246D02*
X13228104Y-8791722D01*
X13228104Y-8791722D02*
X13237628Y-8772674D01*
X13237628Y-8772674D02*
X13256675Y-8763150D01*
X13256675Y-8763150D02*
X13285247Y-8763150D01*
X13285247Y-8763150D02*
X13304294Y-8772674D01*
X13380485Y-8972674D02*
X13390009Y-8963150D01*
X13390009Y-8963150D02*
X13409056Y-8934579D01*
X13409056Y-8934579D02*
X13418580Y-8915531D01*
X13418580Y-8915531D02*
X13428104Y-8886960D01*
X13428104Y-8886960D02*
X13437628Y-8839341D01*
X13437628Y-8839341D02*
X13437628Y-8801246D01*
X13437628Y-8801246D02*
X13428104Y-8753627D01*
X13428104Y-8753627D02*
X13418580Y-8725055D01*
X13418580Y-8725055D02*
X13409056Y-8706008D01*
X13409056Y-8706008D02*
X13390009Y-8677436D01*
X13390009Y-8677436D02*
X13380485Y-8667912D01*
X13742390Y-8972674D02*
X13732866Y-8963150D01*
X13732866Y-8963150D02*
X13713818Y-8934579D01*
X13713818Y-8934579D02*
X13704294Y-8915531D01*
X13704294Y-8915531D02*
X13694770Y-8886960D01*
X13694770Y-8886960D02*
X13685247Y-8839341D01*
X13685247Y-8839341D02*
X13685247Y-8801246D01*
X13685247Y-8801246D02*
X13694770Y-8753627D01*
X13694770Y-8753627D02*
X13704294Y-8725055D01*
X13704294Y-8725055D02*
X13713818Y-8706008D01*
X13713818Y-8706008D02*
X13732866Y-8677436D01*
X13732866Y-8677436D02*
X13742390Y-8667912D01*
X13818580Y-8763150D02*
X13818580Y-8896484D01*
X13818580Y-8782198D02*
X13828104Y-8772674D01*
X13828104Y-8772674D02*
X13847151Y-8763150D01*
X13847151Y-8763150D02*
X13875723Y-8763150D01*
X13875723Y-8763150D02*
X13894770Y-8772674D01*
X13894770Y-8772674D02*
X13904294Y-8791722D01*
X13904294Y-8791722D02*
X13904294Y-8896484D01*
X14028104Y-8896484D02*
X14009056Y-8886960D01*
X14009056Y-8886960D02*
X13999532Y-8877436D01*
X13999532Y-8877436D02*
X13990009Y-8858389D01*
X13990009Y-8858389D02*
X13990009Y-8801246D01*
X13990009Y-8801246D02*
X13999532Y-8782198D01*
X13999532Y-8782198D02*
X14009056Y-8772674D01*
X14009056Y-8772674D02*
X14028104Y-8763150D01*
X14028104Y-8763150D02*
X14056675Y-8763150D01*
X14056675Y-8763150D02*
X14075723Y-8772674D01*
X14075723Y-8772674D02*
X14085247Y-8782198D01*
X14085247Y-8782198D02*
X14094770Y-8801246D01*
X14094770Y-8801246D02*
X14094770Y-8858389D01*
X14094770Y-8858389D02*
X14085247Y-8877436D01*
X14085247Y-8877436D02*
X14075723Y-8886960D01*
X14075723Y-8886960D02*
X14056675Y-8896484D01*
X14056675Y-8896484D02*
X14028104Y-8896484D01*
X14151913Y-8763150D02*
X14228104Y-8763150D01*
X14180485Y-8696484D02*
X14180485Y-8867912D01*
X14180485Y-8867912D02*
X14190009Y-8886960D01*
X14190009Y-8886960D02*
X14209056Y-8896484D01*
X14209056Y-8896484D02*
X14228104Y-8896484D01*
X14447151Y-8763150D02*
X14447151Y-8963150D01*
X14447151Y-8772674D02*
X14466199Y-8763150D01*
X14466199Y-8763150D02*
X14504294Y-8763150D01*
X14504294Y-8763150D02*
X14523342Y-8772674D01*
X14523342Y-8772674D02*
X14532866Y-8782198D01*
X14532866Y-8782198D02*
X14542390Y-8801246D01*
X14542390Y-8801246D02*
X14542390Y-8858389D01*
X14542390Y-8858389D02*
X14532866Y-8877436D01*
X14532866Y-8877436D02*
X14523342Y-8886960D01*
X14523342Y-8886960D02*
X14504294Y-8896484D01*
X14504294Y-8896484D02*
X14466199Y-8896484D01*
X14466199Y-8896484D02*
X14447151Y-8886960D01*
X14656675Y-8896484D02*
X14637628Y-8886960D01*
X14637628Y-8886960D02*
X14628104Y-8867912D01*
X14628104Y-8867912D02*
X14628104Y-8696484D01*
X14818580Y-8896484D02*
X14818580Y-8791722D01*
X14818580Y-8791722D02*
X14809056Y-8772674D01*
X14809056Y-8772674D02*
X14790009Y-8763150D01*
X14790009Y-8763150D02*
X14751913Y-8763150D01*
X14751913Y-8763150D02*
X14732866Y-8772674D01*
X14818580Y-8886960D02*
X14799532Y-8896484D01*
X14799532Y-8896484D02*
X14751913Y-8896484D01*
X14751913Y-8896484D02*
X14732866Y-8886960D01*
X14732866Y-8886960D02*
X14723342Y-8867912D01*
X14723342Y-8867912D02*
X14723342Y-8848865D01*
X14723342Y-8848865D02*
X14732866Y-8829817D01*
X14732866Y-8829817D02*
X14751913Y-8820293D01*
X14751913Y-8820293D02*
X14799532Y-8820293D01*
X14799532Y-8820293D02*
X14818580Y-8810770D01*
X14885247Y-8763150D02*
X14961437Y-8763150D01*
X14913818Y-8696484D02*
X14913818Y-8867912D01*
X14913818Y-8867912D02*
X14923342Y-8886960D01*
X14923342Y-8886960D02*
X14942390Y-8896484D01*
X14942390Y-8896484D02*
X14961437Y-8896484D01*
X15104294Y-8886960D02*
X15085247Y-8896484D01*
X15085247Y-8896484D02*
X15047151Y-8896484D01*
X15047151Y-8896484D02*
X15028104Y-8886960D01*
X15028104Y-8886960D02*
X15018580Y-8867912D01*
X15018580Y-8867912D02*
X15018580Y-8791722D01*
X15018580Y-8791722D02*
X15028104Y-8772674D01*
X15028104Y-8772674D02*
X15047151Y-8763150D01*
X15047151Y-8763150D02*
X15085247Y-8763150D01*
X15085247Y-8763150D02*
X15104294Y-8772674D01*
X15104294Y-8772674D02*
X15113818Y-8791722D01*
X15113818Y-8791722D02*
X15113818Y-8810770D01*
X15113818Y-8810770D02*
X15018580Y-8829817D01*
X15285247Y-8896484D02*
X15285247Y-8696484D01*
X15285247Y-8886960D02*
X15266199Y-8896484D01*
X15266199Y-8896484D02*
X15228104Y-8896484D01*
X15228104Y-8896484D02*
X15209056Y-8886960D01*
X15209056Y-8886960D02*
X15199532Y-8877436D01*
X15199532Y-8877436D02*
X15190009Y-8858389D01*
X15190009Y-8858389D02*
X15190009Y-8801246D01*
X15190009Y-8801246D02*
X15199532Y-8782198D01*
X15199532Y-8782198D02*
X15209056Y-8772674D01*
X15209056Y-8772674D02*
X15228104Y-8763150D01*
X15228104Y-8763150D02*
X15266199Y-8763150D01*
X15266199Y-8763150D02*
X15285247Y-8772674D01*
X15361437Y-8972674D02*
X15370961Y-8963150D01*
X15370961Y-8963150D02*
X15390009Y-8934579D01*
X15390009Y-8934579D02*
X15399532Y-8915531D01*
X15399532Y-8915531D02*
X15409056Y-8886960D01*
X15409056Y-8886960D02*
X15418580Y-8839341D01*
X15418580Y-8839341D02*
X15418580Y-8801246D01*
X15418580Y-8801246D02*
X15409056Y-8753627D01*
X15409056Y-8753627D02*
X15399532Y-8725055D01*
X15399532Y-8725055D02*
X15390009Y-8706008D01*
X15390009Y-8706008D02*
X15370961Y-8677436D01*
X15370961Y-8677436D02*
X15361437Y-8667912D01*
M02*
