M48
; DRILL file {KiCad 8.0.9-8.0.9-0~ubuntu22.04.1} date 2025-08-10T04:03:37+0200
; FORMAT={-:-/ absolute / metric / decimal}
; #@! TF.CreationDate,2025-08-10T04:03:37+02:00
; #@! TF.GenerationSoftware,Kicad,Pcbnew,8.0.9-8.0.9-0~ubuntu22.04.1
; #@! TF.FileFunction,Plated,1,4,PTH
FMAT,2
METRIC
; #@! TA.AperFunction,Plated,PTH,ViaDrill
T1C0.300
; #@! TA.AperFunction,Plated,PTH,ViaDrill
T2C0.500
; #@! TA.AperFunction,Plated,PTH,ComponentDrill
T3C0.500
; #@! TA.AperFunction,Plated,PTH,ComponentDrill
T4C0.600
; #@! TA.AperFunction,Plated,PTH,ComponentDrill
T5C1.000
; #@! TA.AperFunction,Plated,PTH,ComponentDrill
T6C1.100
%
G90
G05
T1
X87.85Y-72.7
X89.278Y-53.51
X90.06Y-60.673
X90.528Y-53.977
X91.353Y-60.793
X92.4Y-75.25
X92.4Y-76.25
X93.325Y-60.655
X94.016Y-48.048
X94.675Y-54.596
X94.675Y-55.375
X96.25Y-54.4
X96.589Y-72.473
X97.03Y-76.37
X97.278Y-68.479
X97.85Y-67.85
X98.6Y-67.7
X99.282Y-53.631
X100.226Y-64.883
X100.365Y-62.532
X100.436Y-77.102
X100.901Y-65.733
X101.135Y-52.904
X101.282Y-60.094
X105.706Y-63.247
X113.4Y-62.689
X115.195Y-62.855
X120.181Y-70.934
X122.762Y-70.25
X124.487Y-68.824
X126.662Y-65.68
X127.92Y-74.683
X127.949Y-71.485
X133.182Y-66.893
X134.088Y-72.416
X136.313Y-71.309
X138.923Y-62.363
X144.615Y-71.065
X144.69Y-71.91
X144.735Y-75.348
X146.8Y-68.7
X147.9Y-58.85
X150.3Y-69.35
X150.35Y-66.875
X152.6Y-65.375
X153.375Y-65.375
X153.68Y-75.6
X155.15Y-55.502
X155.6Y-75.5
X156.1Y-61.3
X156.25Y-66.25
X157.125Y-74.5
X158.85Y-60.35
X162.26Y-46.756
X162.975Y-51.325
X165.832Y-50.0
T2
X95.273Y-47.47
X95.283Y-71.958
X106.218Y-61.61
X108.827Y-57.055
X113.411Y-57.025
X117.45Y-74.6
X118.08Y-70.998
X121.563Y-70.323
X122.966Y-66.342
X136.932Y-67.403
X138.93Y-54.755
X143.831Y-60.448
X146.845Y-60.655
X151.401Y-56.399
X153.322Y-53.231
X153.351Y-54.472
X163.684Y-77.888
X165.154Y-76.799
T3
X168.115Y-47.397
X168.115Y-51.197
T5
X104.75Y-78.3
X107.29Y-78.3
X109.83Y-78.3
X112.37Y-78.3
X114.91Y-78.3
X117.45Y-78.3
X119.99Y-78.3
T6
X90.478Y-48.715
X90.478Y-52.515
T4
G00X123.365Y-73.714
M15
G01X123.365Y-74.814
M16
G05
G00X123.365Y-78.144
M15
G01X123.365Y-78.744
M16
G05
G00X132.005Y-73.714
M15
G01X132.005Y-74.814
M16
G05
G00X132.005Y-78.144
M15
G01X132.005Y-78.744
M16
G05
M30
