%TF.GenerationSoftware,KiCad,Pcbnew,8.0.9-8.0.9-0~ubuntu22.04.1*%
%TF.CreationDate,2025-08-10T04:03:49+02:00*%
%TF.ProjectId,H-C3-ulp29,482d4333-2d75-46c7-9032-392e6b696361,rev?*%
%TF.SameCoordinates,Original*%
%TF.FileFunction,Copper,L1,Top*%
%TF.FilePolarity,Positive*%
%FSLAX46Y46*%
G04 Gerber Fmt 4.6, Leading zero omitted, Abs format (unit mm)*
G04 Created by KiCad (PCBNEW 8.0.9-8.0.9-0~ubuntu22.04.1) date 2025-08-10 04:03:49*
%MOMM*%
%LPD*%
G01*
G04 APERTURE LIST*
G04 Aperture macros list*
%AMRoundRect*
0 Rectangle with rounded corners*
0 $1 Rounding radius*
0 $2 $3 $4 $5 $6 $7 $8 $9 X,Y pos of 4 corners*
0 Add a 4 corners polygon primitive as box body*
4,1,4,$2,$3,$4,$5,$6,$7,$8,$9,$2,$3,0*
0 Add four circle primitives for the rounded corners*
1,1,$1+$1,$2,$3*
1,1,$1+$1,$4,$5*
1,1,$1+$1,$6,$7*
1,1,$1+$1,$8,$9*
0 Add four rect primitives between the rounded corners*
20,1,$1+$1,$2,$3,$4,$5,0*
20,1,$1+$1,$4,$5,$6,$7,0*
20,1,$1+$1,$6,$7,$8,$9,0*
20,1,$1+$1,$8,$9,$2,$3,0*%
%AMRotRect*
0 Rectangle, with rotation*
0 The origin of the aperture is its center*
0 $1 length*
0 $2 width*
0 $3 Rotation angle, in degrees counterclockwise*
0 Add horizontal line*
21,1,$1,$2,0,0,$3*%
%AMFreePoly0*
4,1,21,0.935355,1.185355,0.950000,1.150000,0.950000,0.250000,0.935355,0.214645,0.900000,0.200000,0.452741,0.200000,0.479746,0.140866,0.500000,0.000000,0.479746,-0.140866,0.450000,-0.206001,0.450000,-0.450000,0.435355,-0.485355,0.400000,-0.500000,-0.900000,-0.500000,-0.935355,-0.485355,-0.950000,-0.450000,-0.950000,1.150000,-0.935355,1.185355,-0.900000,1.200000,0.900000,1.200000,
0.935355,1.185355,0.935355,1.185355,$1*%
%AMFreePoly1*
4,1,21,0.935355,1.185355,0.950000,1.150000,0.950000,-0.450000,0.935355,-0.485355,0.900000,-0.500000,-0.400000,-0.500000,-0.435355,-0.485355,-0.450000,-0.450000,-0.450000,-0.206001,-0.479746,-0.140866,-0.500000,0.000000,-0.479746,0.140866,-0.452741,0.200000,-0.900000,0.200000,-0.935355,0.214645,-0.950000,0.250000,-0.950000,1.150000,-0.935355,1.185355,-0.900000,1.200000,0.900000,1.200000,
0.935355,1.185355,0.935355,1.185355,$1*%
G04 Aperture macros list end*
%TA.AperFunction,ComponentPad*%
%ADD10R,1.700000X1.700000*%
%TD*%
%TA.AperFunction,ComponentPad*%
%ADD11O,1.700000X1.700000*%
%TD*%
%TA.AperFunction,ComponentPad*%
%ADD12C,1.100000*%
%TD*%
%TA.AperFunction,SMDPad,CuDef*%
%ADD13R,1.300000X1.000000*%
%TD*%
%TA.AperFunction,SMDPad,CuDef*%
%ADD14R,3.000000X0.900000*%
%TD*%
%TA.AperFunction,SMDPad,CuDef*%
%ADD15RotRect,1.200000X0.800000X45.000000*%
%TD*%
%TA.AperFunction,SMDPad,CuDef*%
%ADD16RotRect,1.200000X0.800000X135.000000*%
%TD*%
%TA.AperFunction,SMDPad,CuDef*%
%ADD17RoundRect,0.250000X0.475000X-0.337500X0.475000X0.337500X-0.475000X0.337500X-0.475000X-0.337500X0*%
%TD*%
%TA.AperFunction,SMDPad,CuDef*%
%ADD18R,1.550000X0.600000*%
%TD*%
%TA.AperFunction,SMDPad,CuDef*%
%ADD19R,1.800000X1.200000*%
%TD*%
%TA.AperFunction,SMDPad,CuDef*%
%ADD20RoundRect,0.135000X0.135000X0.185000X-0.135000X0.185000X-0.135000X-0.185000X0.135000X-0.185000X0*%
%TD*%
%TA.AperFunction,SMDPad,CuDef*%
%ADD21C,1.500000*%
%TD*%
%TA.AperFunction,SMDPad,CuDef*%
%ADD22RoundRect,0.135000X-0.135000X-0.185000X0.135000X-0.185000X0.135000X0.185000X-0.135000X0.185000X0*%
%TD*%
%TA.AperFunction,SMDPad,CuDef*%
%ADD23R,3.630000X4.500000*%
%TD*%
%TA.AperFunction,SMDPad,CuDef*%
%ADD24RoundRect,0.225000X0.225000X0.375000X-0.225000X0.375000X-0.225000X-0.375000X0.225000X-0.375000X0*%
%TD*%
%TA.AperFunction,SMDPad,CuDef*%
%ADD25RoundRect,0.135000X-0.226274X-0.035355X-0.035355X-0.226274X0.226274X0.035355X0.035355X0.226274X0*%
%TD*%
%TA.AperFunction,SMDPad,CuDef*%
%ADD26R,3.708400X1.092200*%
%TD*%
%TA.AperFunction,SMDPad,CuDef*%
%ADD27R,1.000000X0.800000*%
%TD*%
%TA.AperFunction,SMDPad,CuDef*%
%ADD28R,0.700000X1.100000*%
%TD*%
%TA.AperFunction,ComponentPad*%
%ADD29C,1.000000*%
%TD*%
%TA.AperFunction,SMDPad,CuDef*%
%ADD30FreePoly0,270.000000*%
%TD*%
%TA.AperFunction,SMDPad,CuDef*%
%ADD31FreePoly1,270.000000*%
%TD*%
%TA.AperFunction,SMDPad,CuDef*%
%ADD32RoundRect,0.200000X0.335876X0.053033X0.053033X0.335876X-0.335876X-0.053033X-0.053033X-0.335876X0*%
%TD*%
%TA.AperFunction,SMDPad,CuDef*%
%ADD33RoundRect,0.147500X0.172500X-0.147500X0.172500X0.147500X-0.172500X0.147500X-0.172500X-0.147500X0*%
%TD*%
%TA.AperFunction,SMDPad,CuDef*%
%ADD34RoundRect,0.250000X0.337500X0.475000X-0.337500X0.475000X-0.337500X-0.475000X0.337500X-0.475000X0*%
%TD*%
%TA.AperFunction,SMDPad,CuDef*%
%ADD35RoundRect,0.150000X0.521491X-0.309359X-0.309359X0.521491X-0.521491X0.309359X0.309359X-0.521491X0*%
%TD*%
%TA.AperFunction,SMDPad,CuDef*%
%ADD36RoundRect,0.225000X-0.225000X-0.375000X0.225000X-0.375000X0.225000X0.375000X-0.225000X0.375000X0*%
%TD*%
%TA.AperFunction,SMDPad,CuDef*%
%ADD37RoundRect,0.135000X0.226274X0.035355X0.035355X0.226274X-0.226274X-0.035355X-0.035355X-0.226274X0*%
%TD*%
%TA.AperFunction,SMDPad,CuDef*%
%ADD38RoundRect,0.150000X-0.309359X-0.521491X0.521491X0.309359X0.309359X0.521491X-0.521491X-0.309359X0*%
%TD*%
%TA.AperFunction,SMDPad,CuDef*%
%ADD39R,2.770000X0.650000*%
%TD*%
%TA.AperFunction,SMDPad,CuDef*%
%ADD40RoundRect,0.225000X-0.250000X0.225000X-0.250000X-0.225000X0.250000X-0.225000X0.250000X0.225000X0*%
%TD*%
%TA.AperFunction,SMDPad,CuDef*%
%ADD41RoundRect,0.250000X-0.337500X-0.475000X0.337500X-0.475000X0.337500X0.475000X-0.337500X0.475000X0*%
%TD*%
%TA.AperFunction,SMDPad,CuDef*%
%ADD42R,0.900000X2.000000*%
%TD*%
%TA.AperFunction,SMDPad,CuDef*%
%ADD43R,2.000000X0.900000*%
%TD*%
%TA.AperFunction,SMDPad,CuDef*%
%ADD44R,0.900000X0.900000*%
%TD*%
%TA.AperFunction,SMDPad,CuDef*%
%ADD45RoundRect,0.200000X0.053033X-0.335876X0.335876X-0.053033X-0.053033X0.335876X-0.335876X0.053033X0*%
%TD*%
%TA.AperFunction,SMDPad,CuDef*%
%ADD46R,0.600000X1.450000*%
%TD*%
%TA.AperFunction,SMDPad,CuDef*%
%ADD47R,0.300000X1.450000*%
%TD*%
%TA.AperFunction,ComponentPad*%
%ADD48O,1.000000X2.100000*%
%TD*%
%TA.AperFunction,ComponentPad*%
%ADD49O,1.000000X1.600000*%
%TD*%
%TA.AperFunction,SMDPad,CuDef*%
%ADD50RoundRect,0.250000X0.512652X0.159099X0.159099X0.512652X-0.512652X-0.159099X-0.159099X-0.512652X0*%
%TD*%
%TA.AperFunction,SMDPad,CuDef*%
%ADD51R,1.295400X1.422400*%
%TD*%
%TA.AperFunction,SMDPad,CuDef*%
%ADD52R,1.193800X0.304800*%
%TD*%
%TA.AperFunction,SMDPad,CuDef*%
%ADD53R,2.006600X1.803400*%
%TD*%
%TA.AperFunction,SMDPad,CuDef*%
%ADD54RoundRect,0.200000X-0.200000X-0.275000X0.200000X-0.275000X0.200000X0.275000X-0.200000X0.275000X0*%
%TD*%
%TA.AperFunction,SMDPad,CuDef*%
%ADD55RoundRect,0.135000X-0.035355X0.226274X-0.226274X0.035355X0.035355X-0.226274X0.226274X-0.035355X0*%
%TD*%
%TA.AperFunction,SMDPad,CuDef*%
%ADD56RoundRect,0.112500X-0.237500X0.112500X-0.237500X-0.112500X0.237500X-0.112500X0.237500X0.112500X0*%
%TD*%
%TA.AperFunction,ViaPad*%
%ADD57C,0.600000*%
%TD*%
%TA.AperFunction,ViaPad*%
%ADD58C,0.800000*%
%TD*%
%TA.AperFunction,Conductor*%
%ADD59C,0.250000*%
%TD*%
%TA.AperFunction,Conductor*%
%ADD60C,0.200000*%
%TD*%
%TA.AperFunction,Conductor*%
%ADD61C,0.300000*%
%TD*%
%TA.AperFunction,Conductor*%
%ADD62C,0.400000*%
%TD*%
%TA.AperFunction,Conductor*%
%ADD63C,0.600000*%
%TD*%
G04 APERTURE END LIST*
D10*
%TO.P,J3,1,Pin_1*%
%TO.N,/P1.00*%
X104750000Y-78300000D03*
D11*
%TO.P,J3,2,Pin_2*%
%TO.N,/P0.22*%
X107290000Y-78300000D03*
%TO.P,J3,3,Pin_3*%
%TO.N,/P0.20*%
X109830000Y-78300000D03*
%TO.P,J3,4,Pin_4*%
%TO.N,/P0.26*%
X112370000Y-78300000D03*
%TO.P,J3,5,Pin_5*%
%TO.N,/P0.13*%
X114910000Y-78300000D03*
%TO.P,J3,6,Pin_6*%
%TO.N,+3V3*%
X117450000Y-78300000D03*
%TO.P,J3,7,Pin_7*%
%TO.N,GND*%
X119990000Y-78300000D03*
%TD*%
D12*
%TO.P,SW1,*%
%TO.N,*%
X90478000Y-52515000D03*
X90478000Y-48715000D03*
D13*
%TO.P,SW1,1,1*%
%TO.N,SW1*%
X92428000Y-53615000D03*
%TO.P,SW1,2,2*%
%TO.N,SW2*%
X92428000Y-47615000D03*
D14*
%TO.P,SW1,3,3*%
%TO.N,Net-(R4-Pad2)*%
X90978000Y-55315000D03*
%TO.P,SW1,4,4*%
X90978000Y-45915000D03*
D15*
%TO.P,SW1,5,5*%
X88368000Y-46935000D03*
D16*
%TO.P,SW1,6,6*%
X88368000Y-54295000D03*
D13*
%TO.P,SW1,C,C*%
%TO.N,SW0*%
X92428000Y-51615000D03*
%TO.P,SW1,T,T*%
%TO.N,Net-(R2-Pad2)*%
X92428000Y-49615000D03*
%TD*%
D17*
%TO.P,C14,1*%
%TO.N,GND*%
X160600000Y-75387500D03*
%TO.P,C14,2*%
%TO.N,PREVGH*%
X160600000Y-73312500D03*
%TD*%
D18*
%TO.P,J4,1,1*%
%TO.N,GND*%
X91093315Y-75253000D03*
%TO.P,J4,2,2*%
%TO.N,+3V3*%
X91093315Y-76253000D03*
%TO.P,J4,3,3*%
%TO.N,/SDA*%
X91093315Y-77253000D03*
%TO.P,J4,4,4*%
%TO.N,/SCL*%
X91093315Y-78253000D03*
D19*
%TO.P,J4,5,MT5*%
%TO.N,unconnected-(J4-MT5-Pad5)*%
X87218315Y-73953000D03*
%TO.P,J4,6,MT6*%
%TO.N,unconnected-(J4-MT6-Pad6)*%
X87218315Y-79553000D03*
%TD*%
D20*
%TO.P,R2,1*%
%TO.N,GND*%
X95257000Y-49321000D03*
%TO.P,R2,2*%
%TO.N,Net-(R2-Pad2)*%
X94237000Y-49321000D03*
%TD*%
D21*
%TO.P,TP1,1,1*%
%TO.N,PREVGH*%
X158200000Y-77700000D03*
%TD*%
D22*
%TO.P,R21,1*%
%TO.N,/MCU_RST*%
X164252000Y-48179000D03*
%TO.P,R21,2*%
%TO.N,+3V3*%
X165272000Y-48179000D03*
%TD*%
D23*
%TO.P,BT1,1,+*%
%TO.N,+VBAT*%
X144500608Y-57053221D03*
%TO.P,BT1,2,-*%
%TO.N,GND*%
X111120608Y-57053221D03*
%TD*%
D24*
%TO.P,D2,1,K*%
%TO.N,PREVGH*%
X148350000Y-69800000D03*
%TO.P,D2,2,A*%
%TO.N,Net-(D2-A)*%
X145050000Y-69800000D03*
%TD*%
D25*
%TO.P,R6,1*%
%TO.N,+VBAT*%
X97867000Y-74533000D03*
%TO.P,R6,2*%
%TO.N,Net-(U1-AI0)*%
X98588248Y-75254248D03*
%TD*%
D26*
%TO.P,L3,1,1*%
%TO.N,Net-(D2-A)*%
X149044000Y-53404400D03*
%TO.P,L3,2,2*%
%TO.N,+3V3*%
X149044000Y-56401600D03*
%TD*%
D17*
%TO.P,C8,1*%
%TO.N,GND*%
X155600000Y-74337500D03*
%TO.P,C8,2*%
%TO.N,/VCOM*%
X155600000Y-72262500D03*
%TD*%
D22*
%TO.P,R5,1*%
%TO.N,Net-(D4-A)*%
X87992000Y-71771000D03*
%TO.P,R5,2*%
%TO.N,Net-(U1-P1.13)*%
X89012000Y-71771000D03*
%TD*%
D27*
%TO.P,SW3,1,1*%
%TO.N,GND*%
X166785000Y-50597000D03*
%TO.P,SW3,2,2*%
%TO.N,/MCU_RST*%
X166785000Y-47997000D03*
D28*
%TO.P,SW3,3,3*%
%TO.N,unconnected-(SW3-Pad3)*%
X166745000Y-49297000D03*
D29*
%TO.P,SW3,4,4*%
%TO.N,unconnected-(SW3-Pad4)_1*%
X168115000Y-47397000D03*
D30*
%TO.N,unconnected-(SW3-Pad4)*%
X168115000Y-47397000D03*
D29*
%TO.P,SW3,5,5*%
%TO.N,unconnected-(SW3-Pad5)_1*%
X168115000Y-51197000D03*
D31*
%TO.N,unconnected-(SW3-Pad5)*%
X168115000Y-51197000D03*
%TD*%
D32*
%TO.P,R15,1*%
%TO.N,+3V3*%
X97133363Y-77733363D03*
%TO.P,R15,2*%
%TO.N,/SCL*%
X95966637Y-76566637D03*
%TD*%
D33*
%TO.P,D4,1,K*%
%TO.N,GND*%
X86850000Y-72352500D03*
%TO.P,D4,2,A*%
%TO.N,Net-(D4-A)*%
X86850000Y-71382500D03*
%TD*%
D21*
%TO.P,TP2,1,1*%
%TO.N,/VCOM*%
X155200000Y-77700000D03*
%TD*%
D34*
%TO.P,C11,1*%
%TO.N,GND*%
X162617500Y-77890000D03*
%TO.P,C11,2*%
%TO.N,Net-(C11-Pad2)*%
X160542500Y-77890000D03*
%TD*%
D35*
%TO.P,U2,1,GND*%
%TO.N,GND*%
X121019074Y-69112577D03*
%TO.P,U2,2,VO*%
%TO.N,+3V3*%
X122362577Y-67769074D03*
%TO.P,U2,3,VI*%
%TO.N,+VIN*%
X120365000Y-67115000D03*
%TD*%
D36*
%TO.P,D1,1,K*%
%TO.N,Net-(D1-K)*%
X150395000Y-71800000D03*
%TO.P,D1,2,A*%
%TO.N,Net-(D1-A)*%
X153695000Y-71800000D03*
%TD*%
D34*
%TO.P,C16,1*%
%TO.N,Net-(D1-K)*%
X148712500Y-74750000D03*
%TO.P,C16,2*%
%TO.N,Net-(D2-A)*%
X146637500Y-74750000D03*
%TD*%
D37*
%TO.P,R3,1*%
%TO.N,/EPD_RST*%
X96633624Y-73859624D03*
%TO.P,R3,2*%
%TO.N,+3V3*%
X95912376Y-73138376D03*
%TD*%
D38*
%TO.P,Q2,1,G*%
%TO.N,+VBUS*%
X133766336Y-69311661D03*
%TO.P,Q2,2,S*%
%TO.N,+VIN*%
X135109839Y-70655164D03*
%TO.P,Q2,3,D*%
%TO.N,+VBAT*%
X135763913Y-68657587D03*
%TD*%
D39*
%TO.P,CN1,1,1*%
%TO.N,SWDIO*%
X138641000Y-70374000D03*
%TO.P,CN1,2,2*%
%TO.N,+3V3*%
X142681000Y-70374000D03*
%TO.P,CN1,3,3*%
%TO.N,SWCLK*%
X138641000Y-71644000D03*
%TO.P,CN1,4,4*%
%TO.N,GND*%
X142681000Y-71644000D03*
%TO.P,CN1,5,5*%
%TO.N,unconnected-(CN1-Pad5)*%
X138641000Y-72914000D03*
%TO.P,CN1,6,6*%
%TO.N,GND*%
X142681000Y-72914000D03*
%TO.P,CN1,7,7*%
%TO.N,unconnected-(CN1-Pad7)*%
X138641000Y-74184000D03*
%TO.P,CN1,8,8*%
%TO.N,GND*%
X142681000Y-74184000D03*
%TO.P,CN1,9,9*%
%TO.N,/MCU_RST*%
X138641000Y-75454000D03*
%TO.P,CN1,10,10*%
%TO.N,GND*%
X142681000Y-75454000D03*
%TD*%
D34*
%TO.P,C6,1*%
%TO.N,GND*%
X166025000Y-53750000D03*
%TO.P,C6,2*%
%TO.N,Net-(C6-Pad2)*%
X163950000Y-53750000D03*
%TD*%
D40*
%TO.P,C17,1*%
%TO.N,GND*%
X152280000Y-53730000D03*
%TO.P,C17,2*%
%TO.N,+3V3*%
X152280000Y-55280000D03*
%TD*%
D24*
%TO.P,D3,1,K*%
%TO.N,GND*%
X153695000Y-74600000D03*
%TO.P,D3,2,A*%
%TO.N,Net-(D1-K)*%
X150395000Y-74600000D03*
%TD*%
D41*
%TO.P,C7,1*%
%TO.N,GND*%
X148875000Y-58850000D03*
%TO.P,C7,2*%
%TO.N,Net-(C7-Pad2)*%
X150950000Y-58850000D03*
%TD*%
D25*
%TO.P,R9,1*%
%TO.N,Net-(U1-AI0)*%
X99236000Y-75892000D03*
%TO.P,R9,2*%
%TO.N,GND*%
X99957248Y-76613248D03*
%TD*%
D41*
%TO.P,C9,1*%
%TO.N,GND*%
X151312500Y-66875000D03*
%TO.P,C9,2*%
%TO.N,+3V3*%
X153387500Y-66875000D03*
%TD*%
D36*
%TO.P,D5,1,K*%
%TO.N,+VIN*%
X128268000Y-67253000D03*
%TO.P,D5,2,A*%
%TO.N,+VBUS*%
X131568000Y-67253000D03*
%TD*%
D42*
%TO.P,U1,1,P1.11*%
%TO.N,/SDA*%
X90212000Y-70380000D03*
%TO.P,U1,2,P1.10*%
%TO.N,/SCL*%
X91482000Y-70380000D03*
%TO.P,U1,3,P0.03*%
%TO.N,/EPD_RST*%
X92722000Y-70380000D03*
%TO.P,U1,4,AI4*%
%TO.N,unconnected-(U1-AI4-Pad4)*%
X94022000Y-70380000D03*
%TO.P,U1,5,GND*%
%TO.N,GND*%
X95292000Y-70380000D03*
%TO.P,U1,6,P1.13*%
%TO.N,Net-(U1-P1.13)*%
X96562000Y-70380000D03*
%TO.P,U1,7,AI0*%
%TO.N,Net-(U1-AI0)*%
X97832000Y-70380000D03*
%TO.P,U1,8,AI5*%
%TO.N,unconnected-(U1-AI5-Pad8)*%
X99102000Y-70380000D03*
%TO.P,U1,9,AI7*%
%TO.N,unconnected-(U1-AI7-Pad9)*%
X100372000Y-70380000D03*
%TO.P,U1,10,AI6*%
%TO.N,unconnected-(U1-AI6-Pad10)*%
X101642000Y-70380000D03*
D43*
%TO.P,U1,11,XL1*%
%TO.N,Net-(U1-XL1)*%
X104232000Y-68330000D03*
D44*
%TO.P,U1,12,P0.26*%
%TO.N,/P0.26*%
X102132000Y-67690000D03*
D43*
%TO.P,U1,13,XL2*%
%TO.N,Net-(U1-XL2)*%
X104232000Y-67050000D03*
D44*
%TO.P,U1,14,P0.06*%
%TO.N,/EPD_DC*%
X102132000Y-66420000D03*
D43*
%TO.P,U1,15,AI3*%
%TO.N,unconnected-(U1-AI3-Pad15)*%
X104232000Y-65780000D03*
D44*
%TO.P,U1,16,P0.08*%
%TO.N,/EPD_CS*%
X102132000Y-65150000D03*
D43*
%TO.P,U1,17,P1.09*%
%TO.N,/EPD_MOSI*%
X104232000Y-64510000D03*
D44*
%TO.P,U1,18,AI2*%
%TO.N,unconnected-(U1-AI2-Pad18)*%
X102132000Y-63880000D03*
D43*
%TO.P,U1,19,VCC*%
%TO.N,+3V3*%
X104232000Y-63250000D03*
D44*
%TO.P,U1,20,P12*%
%TO.N,unconnected-(U1-P12-Pad20)*%
X102132000Y-62610000D03*
D43*
%TO.P,U1,21,GND*%
%TO.N,GND*%
X104232000Y-61980000D03*
D44*
%TO.P,U1,22,P0.07*%
%TO.N,/EPD_CLK*%
X102132000Y-61340000D03*
D43*
%TO.P,U1,23,VDH*%
%TO.N,unconnected-(U1-VDH-Pad23)*%
X104232000Y-60710000D03*
D44*
%TO.P,U1,24,GND*%
%TO.N,GND*%
X102132000Y-60070000D03*
D43*
%TO.P,U1,25,DCH*%
%TO.N,unconnected-(U1-DCH-Pad25)*%
X104232000Y-59430000D03*
D42*
%TO.P,U1,26,RST*%
%TO.N,/MCU_RST*%
X101642000Y-57380000D03*
%TO.P,U1,27,VBS*%
%TO.N,+VBUS*%
X100372000Y-57380000D03*
D44*
%TO.P,U1,28,P15*%
%TO.N,unconnected-(U1-P15-Pad28)*%
X99732000Y-59470000D03*
D42*
%TO.P,U1,29,D-*%
%TO.N,/USB_D-*%
X99102000Y-57380000D03*
D44*
%TO.P,U1,30,P17*%
%TO.N,unconnected-(U1-P17-Pad30)*%
X98462000Y-59470000D03*
D42*
%TO.P,U1,31,D+*%
%TO.N,/USB_D+*%
X97832000Y-57380000D03*
D44*
%TO.P,U1,32,P0.20*%
%TO.N,/P0.20*%
X97192000Y-59470000D03*
D42*
%TO.P,U1,33,P0.13*%
%TO.N,/P0.13*%
X96562000Y-57380000D03*
D44*
%TO.P,U1,34,P0.22*%
%TO.N,/P0.22*%
X95922000Y-59470000D03*
D42*
%TO.P,U1,35,P0.24*%
%TO.N,/EPD_BUSY*%
X95292000Y-57380000D03*
D44*
%TO.P,U1,36,P1.00*%
%TO.N,/P1.00*%
X94652000Y-59470000D03*
D42*
%TO.P,U1,37,SWD*%
%TO.N,SWDIO*%
X94022000Y-57380000D03*
D44*
%TO.P,U1,38,P1.02*%
%TO.N,SW2*%
X93382000Y-59470000D03*
D42*
%TO.P,U1,39,SWC*%
%TO.N,SWCLK*%
X92752000Y-57380000D03*
D44*
%TO.P,U1,40,P1.04*%
%TO.N,SW1*%
X92112000Y-59470000D03*
D42*
%TO.P,U1,41,NF1*%
%TO.N,unconnected-(U1-NF1-Pad41)*%
X91482000Y-57380000D03*
D44*
%TO.P,U1,42,P1.06*%
%TO.N,SW0*%
X90842000Y-59480000D03*
D42*
%TO.P,U1,43,NF2*%
%TO.N,unconnected-(U1-NF2-Pad43)*%
X90212000Y-57380000D03*
%TD*%
D45*
%TO.P,R20,1*%
%TO.N,Net-(J1-CC2)*%
X129902274Y-70621726D03*
%TO.P,R20,2*%
%TO.N,GND*%
X131069000Y-69455000D03*
%TD*%
D46*
%TO.P,J1,A1,GND*%
%TO.N,GND*%
X124435000Y-73349000D03*
%TO.P,J1,A4,VBUS*%
%TO.N,+VBUS*%
X125235000Y-73349000D03*
D47*
%TO.P,J1,A5,CC1*%
%TO.N,Net-(J1-CC1)*%
X126435000Y-73349000D03*
%TO.P,J1,A6,D+*%
%TO.N,/USB_D+*%
X127435000Y-73349000D03*
%TO.P,J1,A7,D-*%
%TO.N,/USB_D-*%
X127935000Y-73349000D03*
%TO.P,J1,A8,SBU1*%
%TO.N,unconnected-(J1-SBU1-PadA8)*%
X128935000Y-73349000D03*
D46*
%TO.P,J1,A9,VBUS*%
%TO.N,+VBUS*%
X130135000Y-73349000D03*
%TO.P,J1,A12,GND*%
%TO.N,GND*%
X130935000Y-73349000D03*
%TO.P,J1,B1,GND*%
X130935000Y-73349000D03*
%TO.P,J1,B4,VBUS*%
%TO.N,+VBUS*%
X130135000Y-73349000D03*
D47*
%TO.P,J1,B5,CC2*%
%TO.N,Net-(J1-CC2)*%
X129435000Y-73349000D03*
%TO.P,J1,B6,D+*%
%TO.N,/USB_D+*%
X128435000Y-73349000D03*
%TO.P,J1,B7,D-*%
%TO.N,/USB_D-*%
X126935000Y-73349000D03*
%TO.P,J1,B8,SBU2*%
%TO.N,unconnected-(J1-SBU2-PadB8)*%
X125935000Y-73349000D03*
D46*
%TO.P,J1,B9,VBUS*%
%TO.N,+VBUS*%
X125235000Y-73349000D03*
%TO.P,J1,B12,GND*%
%TO.N,GND*%
X124435000Y-73349000D03*
D48*
%TO.P,J1,S1,SHIELD*%
X123365000Y-74264000D03*
D49*
X123365000Y-78444000D03*
D48*
X132005000Y-74264000D03*
D49*
X132005000Y-78444000D03*
%TD*%
D50*
%TO.P,C2,1*%
%TO.N,GND*%
X125756751Y-67941751D03*
%TO.P,C2,2*%
%TO.N,+3V3*%
X124413249Y-66598249D03*
%TD*%
D34*
%TO.P,C10,1*%
%TO.N,GND*%
X165486000Y-73397000D03*
%TO.P,C10,2*%
%TO.N,Net-(C10-Pad2)*%
X163411000Y-73397000D03*
%TD*%
D51*
%TO.P,Y2,1,1*%
%TO.N,Net-(U1-XL2)*%
X107125000Y-66611800D03*
%TO.P,Y2,2,2*%
%TO.N,Net-(U1-XL1)*%
X107125000Y-68796200D03*
%TD*%
D50*
%TO.P,C1,1*%
%TO.N,GND*%
X119528751Y-70308751D03*
%TO.P,C1,2*%
%TO.N,+VIN*%
X118185249Y-68965249D03*
%TD*%
D32*
%TO.P,R14,1*%
%TO.N,+3V3*%
X95515000Y-78331000D03*
%TO.P,R14,2*%
%TO.N,/SDA*%
X94348274Y-77164274D03*
%TD*%
D52*
%TO.P,J2,1,1*%
%TO.N,/VCOM*%
X157554400Y-69450001D03*
%TO.P,J2,2,2*%
%TO.N,Net-(D1-A)*%
X157554400Y-68950000D03*
%TO.P,J2,3,3*%
%TO.N,Net-(C13-Pad2)*%
X157554400Y-68450001D03*
%TO.P,J2,4,4*%
%TO.N,PREVGH*%
X157554400Y-67949999D03*
%TO.P,J2,5,5*%
%TO.N,Net-(C11-Pad2)*%
X157554400Y-67450000D03*
%TO.P,J2,6,6*%
%TO.N,Net-(C12-Pad2)*%
X157554400Y-66950001D03*
%TO.P,J2,7,7*%
%TO.N,Net-(C10-Pad2)*%
X157554400Y-66450000D03*
%TO.P,J2,8,8*%
%TO.N,GND*%
X157554400Y-65950001D03*
%TO.P,J2,9,9*%
%TO.N,+3V3*%
X157554400Y-65449999D03*
%TO.P,J2,10,10*%
X157554400Y-64950000D03*
%TO.P,J2,11,11*%
%TO.N,/EPD_MOSI*%
X157554400Y-64450001D03*
%TO.P,J2,12,12*%
%TO.N,/EPD_CLK*%
X157554400Y-63950000D03*
%TO.P,J2,13,13*%
%TO.N,/EPD_CS*%
X157554400Y-63450000D03*
%TO.P,J2,14,14*%
%TO.N,/EPD_DC*%
X157554400Y-62949999D03*
%TO.P,J2,15,15*%
%TO.N,/EPD_RST*%
X157554400Y-62450000D03*
%TO.P,J2,16,16*%
%TO.N,/EPD_BUSY*%
X157554400Y-61950001D03*
%TO.P,J2,17,17*%
%TO.N,GND*%
X157554400Y-61449999D03*
%TO.P,J2,18,18*%
%TO.N,unconnected-(J2-Pad18)*%
X157554400Y-60950000D03*
%TO.P,J2,19,19*%
%TO.N,unconnected-(J2-Pad19)*%
X157554400Y-60449999D03*
%TO.P,J2,20,20*%
%TO.N,Net-(C6-Pad2)*%
X157554400Y-59950000D03*
%TO.P,J2,21,21*%
%TO.N,Net-(C7-Pad2)*%
X157554400Y-59450001D03*
%TO.P,J2,22,22*%
%TO.N,Net-(Q1-S)*%
X157554400Y-58949999D03*
%TO.P,J2,23,23*%
%TO.N,Net-(Q1-G)*%
X157554400Y-58450000D03*
%TO.P,J2,24,24*%
%TO.N,unconnected-(J2-Pad24)*%
X157554400Y-57950001D03*
D53*
%TO.P,J2,25*%
%TO.N,N/C*%
X160704399Y-71100000D03*
%TO.P,J2,26*%
X160704399Y-56300000D03*
%TD*%
D22*
%TO.P,R7,1*%
%TO.N,Net-(Q1-G)*%
X153519000Y-55500000D03*
%TO.P,R7,2*%
%TO.N,GND*%
X154539000Y-55500000D03*
%TD*%
D54*
%TO.P,R8,1*%
%TO.N,Net-(Q1-S)*%
X161100000Y-50150000D03*
%TO.P,R8,2*%
%TO.N,GND*%
X162750000Y-50150000D03*
%TD*%
D41*
%TO.P,C15,1*%
%TO.N,GND*%
X151312500Y-69350000D03*
%TO.P,C15,2*%
%TO.N,Net-(D1-A)*%
X153387500Y-69350000D03*
%TD*%
D32*
%TO.P,R1,1*%
%TO.N,Net-(J1-CC1)*%
X124685363Y-70657363D03*
%TO.P,R1,2*%
%TO.N,GND*%
X123518637Y-69490637D03*
%TD*%
D55*
%TO.P,R10,1*%
%TO.N,GND*%
X133666624Y-67367376D03*
%TO.P,R10,2*%
%TO.N,+VBUS*%
X132945376Y-68088624D03*
%TD*%
D20*
%TO.P,R4,1*%
%TO.N,GND*%
X95257000Y-45909000D03*
%TO.P,R4,2*%
%TO.N,Net-(R4-Pad2)*%
X94237000Y-45909000D03*
%TD*%
D21*
%TO.P,TP3,1,1*%
%TO.N,Net-(D1-A)*%
X152200000Y-77700000D03*
%TD*%
D56*
%TO.P,Q1,1,G*%
%TO.N,Net-(Q1-G)*%
X152650000Y-57000000D03*
%TO.P,Q1,2,S*%
%TO.N,Net-(Q1-S)*%
X152650000Y-58300000D03*
%TO.P,Q1,3,D*%
%TO.N,Net-(D2-A)*%
X154650000Y-57650000D03*
%TD*%
D34*
%TO.P,C12,1*%
%TO.N,GND*%
X165486000Y-75472000D03*
%TO.P,C12,2*%
%TO.N,Net-(C12-Pad2)*%
X163411000Y-75472000D03*
%TD*%
D17*
%TO.P,C13,1*%
%TO.N,GND*%
X158500000Y-75387500D03*
%TO.P,C13,2*%
%TO.N,Net-(C13-Pad2)*%
X158500000Y-73312500D03*
%TD*%
D57*
%TO.N,/P0.13*%
X96250000Y-54400000D03*
%TO.N,/P0.20*%
X98600000Y-67700000D03*
%TO.N,/P0.22*%
X97850000Y-67850000D03*
%TO.N,/P1.00*%
X97278226Y-68478951D03*
D58*
%TO.N,+3V3*%
X117450000Y-74600000D03*
%TO.N,GND*%
X113411000Y-57025000D03*
X165154000Y-76799000D03*
D57*
X147900000Y-58850000D03*
X124487000Y-68824000D03*
X144735000Y-75348000D03*
D58*
X106218000Y-61610000D03*
X163684000Y-77888000D03*
D57*
X155600000Y-75500000D03*
D58*
X108827000Y-57055000D03*
D57*
X122762000Y-70250000D03*
D58*
X153322000Y-53231000D03*
D57*
X156250000Y-66250000D03*
X156100000Y-61300000D03*
X162975000Y-51325000D03*
X120181000Y-70934000D03*
X150300000Y-69350000D03*
X150350000Y-66875000D03*
X157125000Y-74500000D03*
X92400000Y-75250000D03*
X101282000Y-60094000D03*
X155150000Y-55502000D03*
X133182000Y-66893000D03*
X87850000Y-72700000D03*
X144690000Y-71910000D03*
X165832000Y-50000000D03*
D58*
X95273000Y-47470000D03*
D57*
X153680000Y-75600000D03*
X100436000Y-77102000D03*
D58*
X95283000Y-71958000D03*
%TO.N,+VBAT*%
X136931959Y-67403041D03*
X143831000Y-60448000D03*
D57*
%TO.N,Net-(D2-A)*%
X146800000Y-68700000D03*
D58*
X146845000Y-60655000D03*
D57*
%TO.N,/USB_D+*%
X127919685Y-74683314D03*
X101135000Y-52904000D03*
%TO.N,/USB_D-*%
X99282000Y-53631000D03*
X127949000Y-71485000D03*
%TO.N,+3V3*%
X105706000Y-63247000D03*
X162260000Y-46756000D03*
D58*
X153351000Y-54472000D03*
D57*
X153375000Y-65375000D03*
D58*
X121563000Y-70323000D03*
D57*
X144615000Y-71065000D03*
D58*
X122966000Y-66342000D03*
X151401400Y-56398600D03*
D57*
X97030025Y-76369975D03*
X92400000Y-76250000D03*
X96589000Y-72473000D03*
X152600000Y-65375000D03*
%TO.N,/EPD_CS*%
X100226000Y-64882769D03*
X113400000Y-62689000D03*
%TO.N,unconnected-(J2-Pad19)*%
X158850000Y-60350000D03*
%TO.N,SW2*%
X93325000Y-60655000D03*
X94016000Y-48048000D03*
%TO.N,/MCU_RST*%
X136313000Y-71309000D03*
X138923000Y-62363000D03*
D58*
X138930000Y-54755000D03*
D57*
%TO.N,SW1*%
X90528000Y-53977000D03*
X91353025Y-60792975D03*
%TO.N,/EPD_DC*%
X115195000Y-62855000D03*
X100901000Y-65733000D03*
%TO.N,SWDIO*%
X94675000Y-55375000D03*
X134088000Y-72416000D03*
%TO.N,SWCLK*%
X94675000Y-54595711D03*
X126662000Y-65680000D03*
D58*
%TO.N,+VBUS*%
X118080000Y-70998000D03*
D57*
X100365000Y-62532000D03*
%TO.N,SW0*%
X90060000Y-60673000D03*
X89278000Y-53510000D03*
%TD*%
D59*
%TO.N,GND*%
X86850000Y-72352500D02*
X87502500Y-72352500D01*
X87502500Y-72352500D02*
X87850000Y-72700000D01*
D60*
%TO.N,Net-(D4-A)*%
X87603500Y-71382500D02*
X86850000Y-71382500D01*
D61*
%TO.N,SW1*%
X92112000Y-60034000D02*
X91353025Y-60792975D01*
X92112000Y-59470000D02*
X92112000Y-60034000D01*
%TO.N,SW2*%
X93382000Y-60598000D02*
X93325000Y-60655000D01*
%TO.N,SWDIO*%
X94022000Y-56028000D02*
X94675000Y-55375000D01*
D59*
%TO.N,/P0.13*%
X96562000Y-57380000D02*
X96562000Y-54712000D01*
D61*
%TO.N,SWCLK*%
X92752000Y-56080000D02*
X94236289Y-54595711D01*
X92752000Y-57380000D02*
X92752000Y-56080000D01*
%TO.N,SW2*%
X93382000Y-59470000D02*
X93382000Y-60598000D01*
%TO.N,SWCLK*%
X94236289Y-54595711D02*
X94675000Y-54595711D01*
D59*
%TO.N,/P0.13*%
X96562000Y-54712000D02*
X96250000Y-54400000D01*
D61*
%TO.N,SWDIO*%
X94022000Y-57380000D02*
X94022000Y-56028000D01*
D59*
%TO.N,/P0.20*%
X97192000Y-59470000D02*
X97192000Y-66292000D01*
X97192000Y-66292000D02*
X98600000Y-67700000D01*
%TO.N,/P1.00*%
X94652000Y-65852725D02*
X97278226Y-68478951D01*
X94652000Y-59470000D02*
X94652000Y-65852725D01*
%TO.N,/P0.22*%
X95922000Y-59470000D02*
X95922000Y-65922000D01*
X95922000Y-65922000D02*
X97850000Y-67850000D01*
%TO.N,+3V3*%
X117450000Y-78300000D02*
X117450000Y-74600000D01*
D62*
%TO.N,GND*%
X119990000Y-78300000D02*
X123221000Y-78300000D01*
X123221000Y-78300000D02*
X123365000Y-78444000D01*
D59*
%TO.N,/P0.26*%
X102132000Y-67690000D02*
X102132000Y-68390000D01*
X112370000Y-74370000D02*
X112370000Y-78300000D01*
X102132000Y-68390000D02*
X106292000Y-72550000D01*
X106292000Y-72550000D02*
X110550000Y-72550000D01*
X110550000Y-72550000D02*
X112370000Y-74370000D01*
D63*
%TO.N,+VBAT*%
X128597000Y-79900000D02*
X103000000Y-79900000D01*
X98850000Y-74306726D02*
X98093274Y-74306726D01*
X101250000Y-78150000D02*
X101250000Y-76706726D01*
X135763913Y-68657587D02*
X135763913Y-68672087D01*
X135763913Y-68672087D02*
X135466570Y-68672087D01*
X135466570Y-68672087D02*
X133184000Y-70954657D01*
X133184000Y-75313000D02*
X128597000Y-79900000D01*
X133184000Y-70954657D02*
X133184000Y-75313000D01*
X103000000Y-79900000D02*
X101250000Y-78150000D01*
X101250000Y-76706726D02*
X98850000Y-74306726D01*
D62*
%TO.N,GND*%
X111120608Y-57053221D02*
X108828779Y-57053221D01*
D59*
X142681000Y-74184000D02*
X142681000Y-75454000D01*
X166025000Y-53750000D02*
X165780000Y-53750000D01*
D62*
X121019074Y-69112577D02*
X120724925Y-69112577D01*
D60*
X101306000Y-60070000D02*
X101282000Y-60094000D01*
D62*
X119528751Y-70308751D02*
X119555751Y-70308751D01*
D59*
X144424000Y-71644000D02*
X144690000Y-71910000D01*
D62*
X157137500Y-74512500D02*
X157125000Y-74500000D01*
D59*
X142681000Y-72914000D02*
X142681000Y-74184000D01*
D61*
X165486000Y-75472000D02*
X165486000Y-76467000D01*
D62*
X162750000Y-50150000D02*
X162750000Y-51100000D01*
X157125000Y-74500000D02*
X157612500Y-74500000D01*
D61*
X131069000Y-69455000D02*
X131069000Y-73215000D01*
X165486000Y-73397000D02*
X165486000Y-75472000D01*
D59*
X144629000Y-75454000D02*
X144735000Y-75348000D01*
D61*
X155148000Y-55500000D02*
X155150000Y-55502000D01*
D59*
X142681000Y-75454000D02*
X144629000Y-75454000D01*
D60*
X148875000Y-58850000D02*
X147900000Y-58850000D01*
D61*
X133666624Y-67367376D02*
X133656376Y-67367376D01*
D62*
X151312500Y-69350000D02*
X150300000Y-69350000D01*
D61*
X166785000Y-50597000D02*
X166429000Y-50597000D01*
D62*
X95292000Y-71949000D02*
X95283000Y-71958000D01*
D59*
X142681000Y-71644000D02*
X142681000Y-72914000D01*
X156249999Y-61449999D02*
X156100000Y-61300000D01*
D62*
X162750000Y-51100000D02*
X162975000Y-51325000D01*
D59*
X157554400Y-65950001D02*
X156549999Y-65950001D01*
D60*
X99957248Y-76613248D02*
X99957248Y-76623248D01*
D62*
X125756751Y-67941751D02*
X125369249Y-67941751D01*
D59*
X157554400Y-61449999D02*
X156249999Y-61449999D01*
D62*
X155762500Y-74500000D02*
X155600000Y-74337500D01*
D61*
X131069000Y-73215000D02*
X130935000Y-73349000D01*
D59*
X162975000Y-52025000D02*
X162975000Y-51325000D01*
X142681000Y-71644000D02*
X144424000Y-71644000D01*
D61*
X165486000Y-76467000D02*
X165154000Y-76799000D01*
X166429000Y-50597000D02*
X165832000Y-50000000D01*
D60*
X102132000Y-60070000D02*
X101306000Y-60070000D01*
D61*
X130935000Y-73349000D02*
X131090000Y-73349000D01*
D62*
X104232000Y-61980000D02*
X105848000Y-61980000D01*
X151312500Y-66875000D02*
X150350000Y-66875000D01*
D61*
X95257000Y-49321000D02*
X95257000Y-47486000D01*
D62*
X105848000Y-61980000D02*
X106218000Y-61610000D01*
D61*
X95257000Y-47454000D02*
X95273000Y-47470000D01*
D62*
X119555751Y-70308751D02*
X120181000Y-70934000D01*
D59*
X164885000Y-52610000D02*
X163560000Y-52610000D01*
D62*
X157612500Y-74500000D02*
X158500000Y-75387500D01*
X155337500Y-74600000D02*
X155600000Y-74337500D01*
D61*
X123518637Y-69490637D02*
X123820363Y-69490637D01*
X133656376Y-67367376D02*
X133182000Y-66893000D01*
D62*
X152823000Y-53730000D02*
X153322000Y-53231000D01*
D61*
X123518637Y-69493363D02*
X122762000Y-70250000D01*
X95257000Y-45909000D02*
X95257000Y-47454000D01*
D59*
X156549999Y-65950001D02*
X156250000Y-66250000D01*
D62*
X125369249Y-67941751D02*
X124487000Y-68824000D01*
X95292000Y-70380000D02*
X95292000Y-71949000D01*
X157125000Y-74500000D02*
X155762500Y-74500000D01*
D59*
X163560000Y-52610000D02*
X162975000Y-52025000D01*
D61*
X150295000Y-66820000D02*
X150350000Y-66875000D01*
D62*
X158500000Y-75387500D02*
X160600000Y-75387500D01*
X153695000Y-75585000D02*
X153680000Y-75600000D01*
X121019074Y-69112577D02*
X121024577Y-69112577D01*
X113382779Y-57053221D02*
X113411000Y-57025000D01*
X108828779Y-57053221D02*
X108827000Y-57055000D01*
D61*
X124435000Y-73349000D02*
X124280000Y-73349000D01*
X154539000Y-55500000D02*
X155148000Y-55500000D01*
D62*
X152280000Y-53730000D02*
X152823000Y-53730000D01*
X155600000Y-74337500D02*
X155600000Y-75500000D01*
D60*
X99957248Y-76623248D02*
X100436000Y-77102000D01*
D61*
X123518637Y-69490637D02*
X123518637Y-69493363D01*
D59*
X166025000Y-53750000D02*
X164885000Y-52610000D01*
D61*
X131090000Y-73349000D02*
X132005000Y-74264000D01*
D62*
X111120608Y-57053221D02*
X113382779Y-57053221D01*
X163682000Y-77890000D02*
X163684000Y-77888000D01*
X162617500Y-77890000D02*
X163682000Y-77890000D01*
D61*
X92397000Y-75253000D02*
X92400000Y-75250000D01*
X95257000Y-47486000D02*
X95273000Y-47470000D01*
D62*
X120724925Y-69112577D02*
X119528751Y-70308751D01*
D61*
X123820363Y-69490637D02*
X124487000Y-68824000D01*
D62*
X153695000Y-74600000D02*
X153704443Y-74609443D01*
D61*
X91093315Y-75253000D02*
X92397000Y-75253000D01*
X124280000Y-73349000D02*
X123365000Y-74264000D01*
D62*
X153695000Y-74600000D02*
X153695000Y-75585000D01*
D63*
%TO.N,+VBAT*%
X144500608Y-59778392D02*
X143831000Y-60448000D01*
X144500608Y-57053221D02*
X144500608Y-59778392D01*
X136931959Y-67489541D02*
X136931959Y-67403041D01*
X98093274Y-74306726D02*
X97867000Y-74533000D01*
X135763913Y-68657587D02*
X136931959Y-67489541D01*
D60*
%TO.N,Net-(C6-Pad2)*%
X159451300Y-58850000D02*
X161150000Y-58850000D01*
X158351300Y-59950000D02*
X159451300Y-58850000D01*
X161150000Y-58850000D02*
X162400000Y-57600000D01*
X163150000Y-53750000D02*
X163950000Y-53750000D01*
X157554400Y-59950000D02*
X158351300Y-59950000D01*
X162400000Y-54500000D02*
X163150000Y-53750000D01*
X162400000Y-57600000D02*
X162400000Y-54500000D01*
%TO.N,Net-(C7-Pad2)*%
X156300001Y-59450001D02*
X157554400Y-59450001D01*
X150950000Y-58850000D02*
X155700000Y-58850000D01*
X155700000Y-58850000D02*
X156300001Y-59450001D01*
D59*
%TO.N,/VCOM*%
X157554400Y-69450001D02*
X157554400Y-70308100D01*
X155600000Y-72262500D02*
X154600000Y-73262500D01*
X154600000Y-73262500D02*
X154600000Y-77100000D01*
X154600000Y-77100000D02*
X155200000Y-77700000D01*
X157554400Y-70308100D02*
X155600000Y-72262500D01*
%TO.N,Net-(C10-Pad2)*%
X163411000Y-70111000D02*
X163411000Y-73397000D01*
X157554400Y-66450000D02*
X159750000Y-66450000D01*
X159750000Y-66450000D02*
X163411000Y-70111000D01*
D60*
%TO.N,Net-(C11-Pad2)*%
X162060000Y-70100000D02*
X162060000Y-76372500D01*
X162060000Y-76372500D02*
X160542500Y-77890000D01*
X159410000Y-67450000D02*
X157554400Y-67450000D01*
X162060000Y-70100000D02*
X159410000Y-67450000D01*
%TO.N,Net-(C12-Pad2)*%
X159585001Y-66950001D02*
X162435000Y-69800000D01*
X162435000Y-69800000D02*
X162435000Y-74496000D01*
X162435000Y-74496000D02*
X163411000Y-75472000D01*
X157554400Y-66950001D02*
X159585001Y-66950001D01*
D59*
%TO.N,Net-(C13-Pad2)*%
X158401300Y-68450001D02*
X158825000Y-68873701D01*
X158825000Y-72225000D02*
X158500000Y-72550000D01*
X158825000Y-68873701D02*
X158825000Y-72225000D01*
X158500000Y-72550000D02*
X158500000Y-73312500D01*
X157554400Y-68450001D02*
X158401300Y-68450001D01*
D60*
%TO.N,PREVGH*%
X159499399Y-72300000D02*
X159587500Y-72300000D01*
D59*
X149150001Y-67949999D02*
X148350000Y-68750000D01*
X157554400Y-67949999D02*
X158574999Y-67949999D01*
D60*
X161450000Y-72300000D02*
X161710000Y-72560000D01*
X161710000Y-75940000D02*
X161190000Y-76460000D01*
X161190000Y-76460000D02*
X159550000Y-76460000D01*
D59*
X158574999Y-67949999D02*
X159225000Y-68600000D01*
D60*
X161710000Y-72560000D02*
X161710000Y-75940000D01*
X159587500Y-72300000D02*
X160600000Y-73312500D01*
D59*
X148350000Y-68750000D02*
X148350000Y-69800000D01*
D60*
X159225000Y-72025601D02*
X159499399Y-72300000D01*
X159550000Y-76460000D02*
X158200000Y-77810000D01*
D59*
X159225000Y-68600000D02*
X159225000Y-72025601D01*
X157554400Y-67949999D02*
X149150001Y-67949999D01*
D60*
X159499399Y-72300000D02*
X161450000Y-72300000D01*
D59*
%TO.N,Net-(D1-A)*%
X152200000Y-73295000D02*
X152200000Y-77700000D01*
X153787500Y-68950000D02*
X157554400Y-68950000D01*
X153387500Y-69350000D02*
X153387500Y-71492500D01*
X153695000Y-71800000D02*
X152200000Y-73295000D01*
X153387500Y-71492500D02*
X153695000Y-71800000D01*
D62*
%TO.N,Net-(D1-K)*%
X150395000Y-71800000D02*
X150395000Y-74600000D01*
X150270000Y-74475000D02*
X150395000Y-74600000D01*
X150395000Y-74600000D02*
X148862500Y-74600000D01*
X148862500Y-74600000D02*
X148712500Y-74750000D01*
%TO.N,Net-(D2-A)*%
X145725000Y-69800000D02*
X146800000Y-68725000D01*
X146637500Y-71387500D02*
X146637500Y-74750000D01*
X146782000Y-58636000D02*
X146782000Y-55666400D01*
X146845000Y-58699000D02*
X146782000Y-58636000D01*
X146782000Y-55666400D02*
X149044000Y-53404400D01*
D60*
X146800000Y-68725000D02*
X146800000Y-68700000D01*
D62*
X147894000Y-57650000D02*
X146845000Y-58699000D01*
X146845000Y-58699000D02*
X146845000Y-60655000D01*
X145050000Y-69800000D02*
X146637500Y-71387500D01*
X154650000Y-57650000D02*
X147894000Y-57650000D01*
X145725000Y-69800000D02*
X145050000Y-69800000D01*
D59*
%TO.N,Net-(J1-CC1)*%
X126435000Y-73349000D02*
X126435000Y-72407000D01*
X126435000Y-72407000D02*
X124685363Y-70657363D01*
%TO.N,/USB_D+*%
X128125686Y-74683314D02*
X127919685Y-74683314D01*
D61*
X127435000Y-73349000D02*
X127435000Y-74374000D01*
X127705000Y-74644000D02*
X128165000Y-74644000D01*
D59*
X98834000Y-52904000D02*
X97832000Y-53906000D01*
X101135000Y-52904000D02*
X98834000Y-52904000D01*
X128435000Y-74374000D02*
X128125686Y-74683314D01*
D61*
X128165000Y-74644000D02*
X128435000Y-74374000D01*
X128435000Y-74374000D02*
X128435000Y-73349000D01*
D59*
X97832000Y-53906000D02*
X97832000Y-57380000D01*
D61*
X127435000Y-74374000D02*
X127705000Y-74644000D01*
%TO.N,/USB_D-*%
X127935000Y-71499000D02*
X127949000Y-71485000D01*
X127275000Y-71964000D02*
X127575000Y-71964000D01*
X126935000Y-73349000D02*
X126935000Y-72304000D01*
X99102000Y-53811000D02*
X99282000Y-53631000D01*
X126935000Y-72304000D02*
X127275000Y-71964000D01*
X127935000Y-72324000D02*
X127935000Y-71499000D01*
X127575000Y-71964000D02*
X127605000Y-71994000D01*
X127605000Y-71994000D02*
X127935000Y-72324000D01*
X127935000Y-72324000D02*
X127935000Y-73349000D01*
X99102000Y-57380000D02*
X99102000Y-53811000D01*
%TO.N,+3V3*%
X95515000Y-78331000D02*
X96535726Y-78331000D01*
X92397000Y-76253000D02*
X92400000Y-76250000D01*
D62*
X152543000Y-55280000D02*
X153351000Y-54472000D01*
X122362577Y-67769074D02*
X122362577Y-69523423D01*
X122362577Y-66945423D02*
X122966000Y-66342000D01*
D61*
X91093315Y-76253000D02*
X92397000Y-76253000D01*
X163849000Y-46756000D02*
X162260000Y-46756000D01*
D62*
X122362577Y-67769074D02*
X122362577Y-66945423D01*
D59*
X95923624Y-73138376D02*
X96589000Y-72473000D01*
X142681000Y-70374000D02*
X143924000Y-70374000D01*
D62*
X152280000Y-55280000D02*
X152543000Y-55280000D01*
D59*
X155550001Y-65449999D02*
X154125000Y-66875000D01*
D61*
X165272000Y-48179000D02*
X163849000Y-46756000D01*
D62*
X152280000Y-55520000D02*
X151401400Y-56398600D01*
X153387500Y-66875000D02*
X153387500Y-65387500D01*
X153387500Y-66875000D02*
X153525000Y-66875000D01*
D59*
X157554400Y-64950000D02*
X155312500Y-64950000D01*
D61*
X96535726Y-78331000D02*
X97133363Y-77733363D01*
D59*
X155312500Y-64950000D02*
X153387500Y-66875000D01*
D62*
X122362577Y-67769074D02*
X123242424Y-67769074D01*
X122362577Y-69523423D02*
X121563000Y-70323000D01*
D61*
X97133363Y-77733363D02*
X97133363Y-76473313D01*
X105703000Y-63250000D02*
X105706000Y-63247000D01*
D62*
X152280000Y-55280000D02*
X152280000Y-55520000D01*
D59*
X95912376Y-73138376D02*
X95923624Y-73138376D01*
D62*
X148500000Y-56398600D02*
X151401400Y-56398600D01*
D61*
X97133363Y-76473313D02*
X97030025Y-76369975D01*
X104232000Y-63250000D02*
X105703000Y-63250000D01*
D59*
X154125000Y-66875000D02*
X153387500Y-66875000D01*
D62*
X123242424Y-67769074D02*
X124413249Y-66598249D01*
X153387500Y-66162500D02*
X152600000Y-65375000D01*
X153387500Y-65387500D02*
X153375000Y-65375000D01*
D59*
X143924000Y-70374000D02*
X144615000Y-71065000D01*
X157554400Y-65449999D02*
X155550001Y-65449999D01*
D62*
X153387500Y-66875000D02*
X153387500Y-66162500D01*
D59*
%TO.N,/EPD_CLK*%
X157554400Y-63950000D02*
X113610000Y-63950000D01*
X102957000Y-58804500D02*
X102957000Y-60997000D01*
X102614000Y-61340000D02*
X102132000Y-61340000D01*
X102957000Y-60997000D02*
X102614000Y-61340000D01*
X107956500Y-58296500D02*
X103465000Y-58296500D01*
X103465000Y-58296500D02*
X102957000Y-58804500D01*
X113610000Y-63950000D02*
X107956500Y-58296500D01*
%TO.N,/EPD_CS*%
X114161000Y-63450000D02*
X113400000Y-62689000D01*
X102132000Y-65150000D02*
X100493231Y-65150000D01*
X100493231Y-65150000D02*
X100226000Y-64882769D01*
X157554400Y-63450000D02*
X114161000Y-63450000D01*
D60*
%TO.N,/EPD_RST*%
X157554400Y-62450000D02*
X158750000Y-62450000D01*
D61*
X166700000Y-77150000D02*
X166700000Y-70400000D01*
X96633624Y-74983624D02*
X102150000Y-80500000D01*
X95459938Y-74809938D02*
X96633624Y-74809938D01*
X92722000Y-72072000D02*
X95459938Y-74809938D01*
X96633624Y-74809938D02*
X96633624Y-74983624D01*
X166700000Y-70400000D02*
X158750000Y-62450000D01*
X163350000Y-80500000D02*
X166700000Y-77150000D01*
X102150000Y-80500000D02*
X163350000Y-80500000D01*
X92722000Y-70380000D02*
X92722000Y-72072000D01*
X96633624Y-73859624D02*
X96633624Y-74809938D01*
D59*
%TO.N,/EPD_BUSY*%
X95292000Y-54410000D02*
X95292000Y-57380000D01*
X99203000Y-50499000D02*
X95292000Y-54410000D01*
X99203000Y-50499000D02*
X128048950Y-50499000D01*
D61*
X139499951Y-61950001D02*
X128048950Y-50499000D01*
X157554400Y-61950001D02*
X139499951Y-61950001D01*
D60*
%TO.N,unconnected-(J2-Pad19)*%
X157554400Y-60349999D02*
X158850000Y-60350000D01*
%TO.N,Net-(Q1-S)*%
X161957699Y-57451700D02*
X160909399Y-58500000D01*
X161100000Y-50150000D02*
X161957699Y-51007699D01*
X161957699Y-51007699D02*
X161957699Y-57451700D01*
X160909399Y-58500000D02*
X159306326Y-58500000D01*
X152650000Y-58300000D02*
X155800000Y-58300000D01*
X156449999Y-58949999D02*
X157554400Y-58949999D01*
X155800000Y-58300000D02*
X156449999Y-58949999D01*
X159306326Y-58500000D02*
X158856327Y-58949999D01*
X158856327Y-58949999D02*
X157554400Y-58949999D01*
D61*
%TO.N,Net-(Q1-G)*%
X152650000Y-57000000D02*
X153490000Y-56160000D01*
D60*
X156700000Y-58450000D02*
X157554400Y-58450000D01*
D61*
X153490000Y-56160000D02*
X153490000Y-55550000D01*
D60*
X152650000Y-57000000D02*
X155250000Y-57000000D01*
X155250000Y-57000000D02*
X156700000Y-58450000D01*
D61*
%TO.N,SW2*%
X92428000Y-47615000D02*
X93583000Y-47615000D01*
X93583000Y-47615000D02*
X94016000Y-48048000D01*
%TO.N,/SDA*%
X89100000Y-74150000D02*
X89100000Y-76800000D01*
X94259548Y-77253000D02*
X94348274Y-77164274D01*
X90212000Y-73038000D02*
X89100000Y-74150000D01*
X89553000Y-77253000D02*
X91093315Y-77253000D01*
X89100000Y-76800000D02*
X89553000Y-77253000D01*
X91093315Y-77253000D02*
X94259548Y-77253000D01*
X90212000Y-70380000D02*
X90212000Y-73038000D01*
%TO.N,/SCL*%
X95966637Y-76733363D02*
X95966637Y-76566637D01*
X91482000Y-72082000D02*
X95966637Y-76566637D01*
X91482000Y-70380000D02*
X91482000Y-72082000D01*
X91093315Y-78253000D02*
X94447000Y-78253000D01*
X94447000Y-78253000D02*
X95966637Y-76733363D01*
D59*
%TO.N,Net-(J1-CC2)*%
X129435000Y-71089000D02*
X129902274Y-70621726D01*
X129435000Y-73349000D02*
X129435000Y-71089000D01*
%TO.N,/MCU_RST*%
X111497960Y-52369000D02*
X121553960Y-62425000D01*
X138930000Y-54755000D02*
X141983000Y-51702000D01*
X136313000Y-71309000D02*
X136313000Y-74186000D01*
X165973000Y-48774000D02*
X166750000Y-47997000D01*
X101642000Y-56021000D02*
X105294000Y-52369000D01*
X105294000Y-52369000D02*
X111497960Y-52369000D01*
X164252000Y-48179000D02*
X164847000Y-48774000D01*
X166750000Y-47997000D02*
X166785000Y-47997000D01*
X137581000Y-75454000D02*
X138641000Y-75454000D01*
X141983000Y-51702000D02*
X158028000Y-51702000D01*
X101642000Y-57380000D02*
X101642000Y-56021000D01*
X158028000Y-51702000D02*
X161551000Y-48179000D01*
X136313000Y-74186000D02*
X137581000Y-75454000D01*
X161551000Y-48179000D02*
X164252000Y-48179000D01*
X164847000Y-48774000D02*
X165973000Y-48774000D01*
X138861000Y-62425000D02*
X138923000Y-62363000D01*
X121553960Y-62425000D02*
X138861000Y-62425000D01*
D60*
%TO.N,Net-(D4-A)*%
X87603500Y-71382500D02*
X87992000Y-71771000D01*
D61*
%TO.N,Net-(R2-Pad2)*%
X93943000Y-49615000D02*
X94237000Y-49321000D01*
X92428000Y-49615000D02*
X93943000Y-49615000D01*
D63*
%TO.N,Net-(R4-Pad2)*%
X90984000Y-45909000D02*
X90978000Y-45915000D01*
X94237000Y-45909000D02*
X90984000Y-45909000D01*
X89388000Y-45915000D02*
X88368000Y-46935000D01*
X90978000Y-45915000D02*
X89388000Y-45915000D01*
X90978000Y-55315000D02*
X89388000Y-55315000D01*
X89388000Y-55315000D02*
X88368000Y-54295000D01*
X88368000Y-46935000D02*
X88368000Y-54295000D01*
D60*
%TO.N,Net-(U1-P1.13)*%
X89012000Y-68813000D02*
X89012000Y-71771000D01*
X89083000Y-68742000D02*
X89012000Y-68813000D01*
X96562000Y-68422000D02*
X95878000Y-67738000D01*
X95878000Y-67738000D02*
X90087000Y-67738000D01*
X90087000Y-67738000D02*
X89083000Y-68742000D01*
X96562000Y-70380000D02*
X96562000Y-68422000D01*
D61*
%TO.N,SW1*%
X90890000Y-53615000D02*
X90528000Y-53977000D01*
X92428000Y-53615000D02*
X90890000Y-53615000D01*
D59*
%TO.N,/EPD_MOSI*%
X105482000Y-64510000D02*
X104232000Y-64510000D01*
X106651000Y-63341000D02*
X105482000Y-64510000D01*
X157554400Y-64450001D02*
X111237001Y-64450001D01*
X110128000Y-63341000D02*
X106651000Y-63341000D01*
X111237001Y-64450001D02*
X110128000Y-63341000D01*
%TO.N,/EPD_DC*%
X100901000Y-65733000D02*
X101588000Y-66420000D01*
X115289999Y-62949999D02*
X115195000Y-62855000D01*
X157554400Y-62949999D02*
X115289999Y-62949999D01*
X101588000Y-66420000D02*
X102132000Y-66420000D01*
D60*
%TO.N,Net-(U1-AI0)*%
X99226000Y-75892000D02*
X98588248Y-75254248D01*
X97253080Y-74934421D02*
X98210660Y-75892000D01*
X97832000Y-70380000D02*
X97832000Y-72608000D01*
X97253080Y-73186920D02*
X97253080Y-74934421D01*
X97832000Y-72608000D02*
X97253080Y-73186920D01*
X98210660Y-75892000D02*
X99236000Y-75892000D01*
X99236000Y-75892000D02*
X99226000Y-75892000D01*
D61*
%TO.N,SWDIO*%
X134088000Y-72416000D02*
X134197531Y-72416000D01*
X134197531Y-72416000D02*
X136239531Y-70374000D01*
X136239531Y-70374000D02*
X138641000Y-70374000D01*
%TO.N,SWCLK*%
X137429000Y-65680000D02*
X140614000Y-68865000D01*
X140614000Y-70731000D02*
X139701000Y-71644000D01*
X126662000Y-65680000D02*
X137429000Y-65680000D01*
X139701000Y-71644000D02*
X138641000Y-71644000D01*
X140614000Y-68865000D02*
X140614000Y-70731000D01*
D62*
%TO.N,+VIN*%
X135109839Y-70655164D02*
X137939000Y-67826003D01*
X118185249Y-68965249D02*
X118514751Y-68965249D01*
X121999301Y-65480699D02*
X120365000Y-67115000D01*
X126588280Y-67253000D02*
X124815979Y-65480699D01*
X128268000Y-67253000D02*
X126588280Y-67253000D01*
X136911000Y-66180000D02*
X129341000Y-66180000D01*
X129341000Y-66180000D02*
X128268000Y-67253000D01*
X124815979Y-65480699D02*
X121999301Y-65480699D01*
X118514751Y-68965249D02*
X120365000Y-67115000D01*
X137939000Y-67208000D02*
X136911000Y-66180000D01*
X137939000Y-67826003D02*
X137939000Y-67208000D01*
%TO.N,Net-(U1-XL1)*%
X104232000Y-68330000D02*
X106658800Y-68330000D01*
X106658800Y-68330000D02*
X107125000Y-68796200D01*
%TO.N,Net-(U1-XL2)*%
X106686800Y-67050000D02*
X107125000Y-66611800D01*
X104232000Y-67050000D02*
X106686800Y-67050000D01*
%TO.N,+VBUS*%
X124581000Y-69574000D02*
X129247000Y-69574000D01*
X125585000Y-75094000D02*
X126046000Y-75555000D01*
X118766000Y-71684000D02*
X118080000Y-70998000D01*
X118766000Y-71684000D02*
X122157000Y-71684000D01*
X122157000Y-71684000D02*
X124495000Y-71684000D01*
X125235000Y-73349000D02*
X125235000Y-72424000D01*
X122471000Y-71684000D02*
X122157000Y-71684000D01*
X100365000Y-62532000D02*
X100532000Y-62365000D01*
X131568000Y-67253000D02*
X131707675Y-67253000D01*
X129247000Y-69574000D02*
X131568000Y-67253000D01*
X131707675Y-67253000D02*
X133766336Y-69311661D01*
X100532000Y-57540000D02*
X100372000Y-57380000D01*
X126046000Y-75555000D02*
X129339000Y-75555000D01*
X124581000Y-69574000D02*
X122471000Y-71684000D01*
X124495000Y-71684000D02*
X124671500Y-71860500D01*
X129800000Y-74472984D02*
X130135000Y-74137984D01*
X130135000Y-74137984D02*
X130135000Y-73349000D01*
X125235000Y-72424000D02*
X124671500Y-71860500D01*
X125235000Y-73349000D02*
X125235000Y-74137984D01*
X100532000Y-62365000D02*
X100532000Y-57540000D01*
X129339000Y-75555000D02*
X129800000Y-75094000D01*
X125235000Y-74137984D02*
X125585000Y-74487984D01*
X125585000Y-74487984D02*
X125585000Y-75094000D01*
X129800000Y-75094000D02*
X129800000Y-74472984D01*
D61*
%TO.N,SW0*%
X92120000Y-51615000D02*
X91376000Y-50871000D01*
X90778497Y-50871000D02*
X89278000Y-52371497D01*
X91376000Y-50871000D02*
X90778497Y-50871000D01*
X89278000Y-52371497D02*
X89278000Y-53510000D01*
X90060000Y-60673000D02*
X90584000Y-60673000D01*
X92428000Y-51615000D02*
X92120000Y-51615000D01*
X90584000Y-60673000D02*
X90842000Y-60415000D01*
X90842000Y-60415000D02*
X90842000Y-59480000D01*
%TD*%
M02*
